<svg xmlns="http://www.w3.org/2000/svg" viewBox="0 0 86.15 79"><defs><style>.a{fill:#555464;fill-rule:evenodd;}</style></defs><title>beneficios_socios_Artboard 1 copy 8</title><path class="a" d="M25.12,7.07a.73.73,0,0,1-.63-.37.77.77,0,0,1,.26-1A35.71,35.71,0,0,1,50.9,1.33a.76.76,0,0,1,.57.9.74.74,0,0,1-.87.58A34.28,34.28,0,0,0,25.5,7a.72.72,0,0,1-.37.11"/><path class="a" d="M18.52,12a.69.69,0,0,1-.5-.22.76.76,0,0,1,0-1c.61-.64,1.26-1.26,1.91-1.85a.68.68,0,0,1,1,.08.76.76,0,0,1-.07,1c-.63.57-1.25,1.16-1.84,1.78a.69.69,0,0,1-.5.22"/><path class="a" d="M16.28,60.44a.71.71,0,0,1-.54-.25,36.27,36.27,0,0,1-8.59-23.5c0-1.17.05-2.35.16-3.51a.72.72,0,1,1,1.43.14c-.11,1.11-.16,2.24-.16,3.37a34.8,34.8,0,0,0,8.24,22.55.74.74,0,0,1-.07,1,.71.71,0,0,1-.47.18"/><path class="a" d="M21.09,64.54a1,1,0,0,1-.52-.15c-.56-.37-1.12-.75-1.66-1.14a.59.59,0,0,1-.06-.95,1,1,0,0,1,1.17,0c.52.38,1.05.75,1.59,1.1a.59.59,0,0,1,.12.94.92.92,0,0,1-.65.25"/><path class="a" d="M55.49,70.29a.72.72,0,0,1-.68-.46.72.72,0,0,1,.42-.93,34.1,34.1,0,0,0,12-7.75,34.88,34.88,0,0,0,2.62-2.9.73.73,0,0,1,1-.11.71.71,0,0,1,.12,1,36.33,36.33,0,0,1-2.72,3,35.56,35.56,0,0,1-12.56,8.08.72.72,0,0,1-.26,0"/><path class="a" d="M73.63,54.69a1,1,0,0,1-.42-.09.57.57,0,0,1-.27-.88c.29-.38.57-.77.84-1.16a.92.92,0,0,1,1.09-.25.58.58,0,0,1,.32.87c-.28.41-.57.81-.87,1.2a.86.86,0,0,1-.69.31"/><path class="a" d="M77.75,39.91h-.06a.72.72,0,0,1-.65-.78c.08-1,.12-2,.12-2.95a34.57,34.57,0,0,0-6.65-20.56.74.74,0,0,1,.14-1,.7.7,0,0,1,1,.15,36,36,0,0,1,6.94,21.43c0,1,0,2.05-.13,3.07a.72.72,0,0,1-.7.66"/><path class="a" d="M68,12a.67.67,0,0,1-.5-.23,35.07,35.07,0,0,0-3.45-3.32.82.82,0,0,1-.13-1.08.66.66,0,0,1,1-.15,36.57,36.57,0,0,1,3.6,3.45.83.83,0,0,1,0,1.09A.66.66,0,0,1,68,12"/><path class="a" d="M21.33,71.93a.55.55,0,0,1-.3-.09l-.14-.09-.19-.13-.13-.1a.71.71,0,0,1-.18-.92.56.56,0,0,1,.82-.2l.14.1.15.11.14.09a.71.71,0,0,1,.21.91.59.59,0,0,1-.51.33"/><path class="a" d="M43.5,78.5A41.79,41.79,0,0,1,24.8,74.15a.74.74,0,0,1,.65-1.32,41,41,0,0,0,32.43,1.6.74.74,0,0,1,.52,1.38A42.12,42.12,0,0,1,43.5,78.5"/><path class="a" d="M79.4,56.33a1,1,0,0,1-.39-.07.57.57,0,0,1-.34-.85c.27-.39.54-.79.79-1.18a1,1,0,0,1,1.11-.29c.41.15.58.53.38.84s-.54.82-.82,1.22a.9.9,0,0,1-.73.33"/><path class="a" d="M81.77,52.23a.72.72,0,0,1-.26,0,.75.75,0,0,1-.43-1,42.27,42.27,0,0,0,2.59-14.66.73.73,0,1,1,1.46,0,43.79,43.79,0,0,1-2.69,15.19.73.73,0,0,1-.69.48"/><path class="a" d="M71.31,7.07a.68.68,0,0,1-.48-.2c-.34-.34-.69-.67-1-1a.75.75,0,0,1-.07-1,.68.68,0,0,1,1-.07c.37.33.73.68,1.08,1a.75.75,0,0,1,0,1,.68.68,0,0,1-.51.23"/><path class="a" d="M16.07,6.25A.68.68,0,0,1,15.53,6a.87.87,0,0,1,.08-1.13c.61-.59,1.25-1.16,1.89-1.71a.66.66,0,0,1,1,.16.87.87,0,0,1-.14,1.12c-.62.53-1.23,1.08-1.83,1.65a.67.67,0,0,1-.46.19"/><path class="a" d="M2.14,32.52H2a.73.73,0,0,1-.65-.82A41.6,41.6,0,0,1,13.27,7.29a.74.74,0,0,1,1,0,.73.73,0,0,1,0,1A40.16,40.16,0,0,0,2.87,31.88a.74.74,0,0,1-.73.65"/><path class="a" d="M67.56,25.16a29.64,29.64,0,0,0-3.45-5.42c-.58-.71-1.19-1.39-1.82-2A27.11,27.11,0,0,0,42.86,9.53h0a27.1,27.1,0,0,0-19.46,8.22,28.13,28.13,0,0,0-.44,38.89.72.72,0,0,0,.11.16c2.31,2.57,5.1,4.21,8.57,5.89h0A26.9,26.9,0,0,0,42.4,65.35l1,0a27.05,27.05,0,0,0,8.92-1.52h0a26.05,26.05,0,0,0,9.18-5.93h0l.29-.27c.2-.17.39-.35.58-.54a27.88,27.88,0,0,0,8-19.67,26,26,0,0,0-2.8-12.27m-15,24.73a.72.72,0,0,0-.72.68l-.42,12.08A25.61,25.61,0,0,1,32.63,61.6L33,49.9v0a.7.7,0,0,0-.67-.71.72.72,0,0,0-.72.68l-.39,11.09a23.18,23.18,0,0,1-6.87-4.75V52c0-.3,0-.59,0-.86,0-.59,0-1.11,0-1.49,0-.16,0-.33,0-.48V48.6a6.74,6.74,0,0,1,4.22-5.93,47.26,47.26,0,0,1,27.46,0A6.73,6.73,0,0,1,60.3,48.6v8.49a25.34,25.34,0,0,1-7.51,5l.4-11.51v0a.7.7,0,0,0-.67-.71M33.57,30a8.78,8.78,0,1,1,8.78,8.91A8.85,8.85,0,0,1,33.57,30M61.73,55.71c0-.6,0-1.2,0-1.87,0-1.08,0-2.37,0-4.16a.63.63,0,0,0,0-.12v-1a8.15,8.15,0,0,0-5.22-7.29,48.87,48.87,0,0,0-10-1.92,10.17,10.17,0,1,0-8.36,0,48.89,48.89,0,0,0-10,1.92A8.16,8.16,0,0,0,23,48.6V49s0,0,0,0a.61.61,0,0,0,0,.09v2.87c0,.85,0,1.74,0,2.48a26.71,26.71,0,0,1,1.42-35.79,25.72,25.72,0,0,1,18.47-7.8h0a25.73,25.73,0,0,1,18.45,7.77c.61.61,1.19,1.27,1.74,1.95l0,0a28.65,28.65,0,0,1,3.26,5.15A24.58,24.58,0,0,1,69,37.43a26.46,26.46,0,0,1-7.24,18.28"/></svg>