<svg xmlns="http://www.w3.org/2000/svg" viewBox="0 0 79 79"><defs><style>.a{fill:#555464;fill-rule:evenodd;}</style></defs><title>beneficios_socios_Artboard 1 copy 10</title><path class="a" d="M22.39,10.78a.65.65,0,0,1,.24-.9,33.9,33.9,0,0,1,16.9-4.47,34.47,34.47,0,0,1,7,.72.65.65,0,0,1,.52.78.67.67,0,0,1-.8.51,33.1,33.1,0,0,0-6.75-.69A32.51,32.51,0,0,0,23.31,11a.7.7,0,0,1-.34.09A.68.68,0,0,1,22.39,10.78Zm-5.26,6.48a.63.63,0,0,0,.45-.19c.53-.53,1.09-1.05,1.66-1.54a.64.64,0,0,0-.83-1c-.59.51-1.17,1.05-1.73,1.61a.64.64,0,0,0,.45,1.09ZM6.52,40c0-1,0-2.06.14-3.08a.65.65,0,0,0-.55-.73H6a.64.64,0,0,0-.61.6C5.34,37.84,5.3,38.92,5.3,40a34.67,34.67,0,0,0,7.33,21.5.59.59,0,0,0,.46.23.58.58,0,0,0,.4-.16.71.71,0,0,0,.06-.94A33.26,33.26,0,0,1,6.52,40ZM19.38,65.6a.62.62,0,0,0,.5-.25.71.71,0,0,0-.09-1c-.42-.36-.83-.73-1.23-1.11a.61.61,0,0,0-.9.05.71.71,0,0,0,0,1c.41.4.84.79,1.27,1.16A.61.61,0,0,0,19.38,65.6ZM66,58.54a.74.74,0,0,0-.56.24,32.44,32.44,0,0,1-2.58,2.58,34.29,34.29,0,0,1-11.89,6.89.62.62,0,0,0-.41.82.72.72,0,0,0,.67.41.76.76,0,0,0,.25,0,35.75,35.75,0,0,0,12.39-7.18,34.06,34.06,0,0,0,2.69-2.68.6.6,0,0,0-.11-.9A.77.77,0,0,0,66,58.54Zm2.69-4.09a.72.72,0,0,0-.33-.08.69.69,0,0,0-.6.33c-.23.39-.46.77-.71,1.15a.61.61,0,0,0,.23.88.71.71,0,0,0,.93-.21c.25-.39.5-.79.74-1.2A.62.62,0,0,0,68.67,54.45ZM64.49,20a.61.61,0,0,0-.38.14.71.71,0,0,0-.13,1,33.32,33.32,0,0,1,6,19.29c0,.92,0,1.85-.11,2.77a.67.67,0,0,0,.58.73h.05a.65.65,0,0,0,.63-.62c.08-1,.11-1.92.11-2.88A34.72,34.72,0,0,0,65,20.24.63.63,0,0,0,64.49,20Zm-5.64-7.39a.59.59,0,0,0-.48.24.62.62,0,0,0,.11.86,29,29,0,0,1,2.94,2.64.58.58,0,0,0,.84,0,.62.62,0,0,0,0-.87,30,30,0,0,0-3.06-2.75A.58.58,0,0,0,58.85,12.57Zm-38.7,59.5L20,72l-.17-.11-.16-.1a.68.68,0,1,0-.73,1.15l.15.1.22.14.16.09a.68.68,0,1,0,.7-1.17Zm32.41,3.14a41.43,41.43,0,0,1-13.12,2.1,40.81,40.81,0,0,1-16.49-3.39.74.74,0,0,0-.3-.06.69.69,0,0,0-.6.33.57.57,0,0,0,.31.8A42.28,42.28,0,0,0,39.43,78.5,42.92,42.92,0,0,0,53,76.33a.58.58,0,0,0,.39-.77A.7.7,0,0,0,52.55,75.21Zm21.87-20a.71.71,0,0,0-.3-.07.69.69,0,0,0-.61.36c-.21.4-.42.8-.65,1.19a.62.62,0,0,0,.28.86.7.7,0,0,0,.32.08.69.69,0,0,0,.6-.34c.23-.41.46-.82.67-1.23A.62.62,0,0,0,74.43,55.21Zm3.46-16.56a.67.67,0,0,0-.61.71,45.22,45.22,0,0,1-2.17,14,.75.75,0,0,0,.36.92.53.53,0,0,0,.22,0,.62.62,0,0,0,.57-.46A46.89,46.89,0,0,0,78.5,39.36.67.67,0,0,0,77.89,38.65ZM63.31,11.06l1,.93a.68.68,0,0,0,.93-1c-.34-.32-.7-.65-1.06-1a.68.68,0,1,0-.9,1ZM44.08,1.72A40.31,40.31,0,0,1,62.61,8.26a.73.73,0,0,0,.41.12.72.72,0,0,0,.55-.25.57.57,0,0,0-.14-.86A41.74,41.74,0,0,0,44.22.5h-.08a.66.66,0,0,0-.68.55A.63.63,0,0,0,44.08,1.72ZM15.27,8.36a.61.61,0,0,0-.38.14c-.57.46-1.14.95-1.69,1.45a.71.71,0,0,0-.07,1,.62.62,0,0,0,.49.24A.61.61,0,0,0,14,11c.53-.48,1.08-1,1.63-1.4a.71.71,0,0,0,.12-1A.62.62,0,0,0,15.27,8.36Zm-3.63,4a.61.61,0,0,0-.9,0A39.83,39.83,0,0,0,.5,35a.67.67,0,0,0,.56.76h.08a.65.65,0,0,0,.63-.6,38.45,38.45,0,0,1,9.88-21.86A.71.71,0,0,0,11.64,12.38Zm10.48,47-.25-.12-.26-.14h0v.08l-1-.68-.26-.19h0l-.1-.08L20,58l-.11-.09a10.67,10.67,0,0,1-1-1l0,0-.26-.3-.11-.14-.22-.29L18.11,56l-.19-.27-.25-.39-.11-.19-.22-.4-.08-.15-.19-.4L17,54l-.19-.47,0-.08a10.76,10.76,0,0,1-.37-1.2v0c0-.19-.08-.37-.12-.56l0-.13c0-.16-.05-.31-.07-.47l0-.17c0-.15,0-.31,0-.46s0-.11,0-.16,0-.41,0-.62a10.64,10.64,0,0,1,10.5-10.74l.65,0h.15L28,39H28a10.45,10.45,0,0,1,5.49,2.57l0,0a10.66,10.66,0,0,1,.9.92l.14.16.25.31.15.2.32.46.15.23.18.3.08.13h0l3.12-3.19V36.8h-.22L38,36.71h-.06l-.66-.13-.21,0-.56-.16-.19-.06-.52-.19-.23-.1L35,35.78l-.21-.11-.27-.15h0v.08l-1-.68-.26-.19h0l-.11-.08-.29-.23-.13-.11a10.77,10.77,0,0,1-1-.95l-.05-.06L31.5,33l-.12-.15-.22-.28L31,32.38l-.18-.26-.25-.4-.11-.18-.22-.41L30.18,31,30,30.57l-.06-.14c-.07-.16-.13-.31-.19-.48l0-.08a10.81,10.81,0,0,1-.37-1.2v0q-.07-.28-.12-.56l0-.13q0-.23-.07-.47l0-.17c0-.15,0-.31,0-.46s0-.11,0-.16c0-.2,0-.41,0-.62a10.51,10.51,0,1,1,21,0c0,.21,0,.41,0,.61v.17c0,.15,0,.31,0,.46l0,.17c0,.16,0,.32-.07.47l0,.13c0,.19-.07.38-.12.56v0a10.72,10.72,0,0,1-.37,1.2l0,.08c-.06.16-.13.32-.19.48l-.06.14-.19.41-.08.15-.23.41-.1.17-.25.4-.18.26-.14.19-.22.28-.12.15-.25.3-.05.05a10.47,10.47,0,0,1-1,1l-.13.11-.29.24-.11.08h0l-.26.19-1,.68v-.08h0l-.27.15-.21.11L43.5,36l-.23.09-.52.19-.18.06-.57.16-.21,0-.66.13h-.06l-.65.07h-.34V41l3.33,3.4a10.46,10.46,0,0,1,9-5.27,10.64,10.64,0,0,1,10.5,10.74c0,.21,0,.41,0,.62s0,.11,0,.16,0,.31,0,.46l0,.17c0,.16,0,.31-.07.47l0,.13c0,.19-.07.37-.12.56v0a10.93,10.93,0,0,1-.37,1.2l0,.08c-.06.16-.13.32-.19.47l-.06.14-.19.41-.08.15-.22.4-.11.19-.25.39-.18.27-.14.19-.22.29-.11.14-.26.31,0,0a10.63,10.63,0,0,1-1,1l-.11.09-.31.25-.1.08h0l-.26.19-1,.68v-.08h0l-.26.14-.25.13-.51.23-.24.1-.51.18-.21.07-.55.15-.21.05-.66.13H54l-.64.07h-.18l-.71,0-.71,0h-.18l-.65-.07h-.06l-.66-.13-.21,0-.56-.15-.2-.06-.51-.18-.24-.1L48,59.53l-.25-.13-.26-.14h0v.08l-1-.68-.26-.19h0l-.1-.08-.31-.25-.11-.09a10.63,10.63,0,0,1-1-1l0,0-.26-.31-.11-.14-.22-.29-.14-.19-.18-.27-.25-.39-.11-.19-.22-.4-.08-.15-.19-.41-.06-.14c-.07-.16-.13-.31-.19-.47l0-.08a10.69,10.69,0,0,1-.37-1.2v0c0-.19-.08-.37-.12-.56l0-.13c0-.16-.05-.31-.07-.47l0-.17c0-.15,0-.31,0-.46s0-.11,0-.16,0-.41,0-.62a10.89,10.89,0,0,1,.88-4.3l-3.27-3.35L36.31,45.5h0a10.83,10.83,0,0,1,.8,3.55v.06c0,.18,0,.37,0,.55s0,.41,0,.62,0,.11,0,.16,0,.31,0,.46l0,.17c0,.16,0,.31-.07.47l0,.13q-.05.28-.12.56v0a11.09,11.09,0,0,1-.37,1.2l0,.08q-.09.24-.19.47l-.06.14-.19.4-.08.15-.22.4-.12.2-.24.38-.19.27-.13.19-.22.29-.11.14-.26.31,0,0a10.65,10.65,0,0,1-1,1l-.11.09-.31.25-.1.08h0l-.26.19-1,.68V59.1h0l-.26.14-.25.13-.51.23-.24.1-.51.18-.2.07-.55.15-.21.05-.66.13h-.06l-.65.07h-.18l-.71,0-.71,0h-.18l-.65-.07H25l-.66-.13-.21-.05-.56-.15-.2-.06-.51-.18-.24-.1Zm35.32-3.71c0-2.29-1.45-3.23-5-3.23s-5,.94-5,3.23v2.16h0l.11.07.32.19.28.16.35.18.23.1.34.14.19.08.5.17L50,59l.39.1.18,0,.55.1.15,0,.46,0h.17l.59,0,.59,0h.17l.46,0,.15,0,.55-.1.18,0,.39-.1.21-.06.5-.17.19-.08.33-.14.23-.11.34-.18.29-.16.31-.19.11-.07h0Zm-5-4.93a2.58,2.58,0,0,0,.51-5.09,2.52,2.52,0,0,0-1,0,2.58,2.58,0,0,0,.51,5.09Zm-9.28-.9c0,.17,0,.33,0,.5v.07c0,.14,0,.29,0,.43v0c0,.15,0,.3.06.44v0c0,.15.05.3.08.46v0c0,.15.07.3.11.45v0q.06.21.12.42l0,.06.14.39,0,.09.14.35.05.12.14.3.08.16.13.25.11.19.12.2.14.23.09.14.18.26.06.08.23.3h0a9.24,9.24,0,0,0,.93,1h0V55.65c0-.17,0-.34,0-.5V55c0-.12,0-.24.05-.36l0-.1c0-.14.06-.28.1-.41l0-.09c0-.1.07-.2.11-.3l0-.1c0-.11.1-.21.16-.31l0,0A3.24,3.24,0,0,1,47,53l.06-.08.18-.21.06-.07.25-.23.05,0,.22-.17.08-.06.25-.16,0,0,.3-.15.08,0,.25-.1.08,0,.32-.11h0l.28-.08.09,0,.28-.06h0l.32-.06h0l-.07-.05L50,51.05l-.11-.1-.19-.2-.1-.11-.18-.23-.07-.1a3.86,3.86,0,0,1-.21-.35l0-.06c-.05-.1-.1-.21-.14-.32l0-.13c0-.09-.06-.18-.09-.27l0-.15c0-.1,0-.2-.05-.29l0-.14a3.94,3.94,0,0,1,0-.44A3.83,3.83,0,0,1,51,44.63a3.66,3.66,0,0,1,2.91,0,3.83,3.83,0,0,1,2.29,3.52,3.94,3.94,0,0,1,0,.44l0,.14c0,.1,0,.2-.05.29l0,.15c0,.09-.05.18-.09.27l0,.13c0,.11-.09.21-.14.32l0,.06a3.83,3.83,0,0,1-.21.35l-.07.1-.18.23-.1.11L55,51l-.11.1-.24.19-.07.05h0l.32.06h0l.28.06.09,0,.28.08h0l.32.11.08,0,.25.1.08,0,.3.15,0,0,.25.16.08.06.22.17.05,0,.25.23.06.07.18.21.06.08a3.22,3.22,0,0,1,.2.3l0,0c.06.1.11.2.16.31l0,.1c0,.1.08.2.11.3l0,.09c0,.13.07.27.1.41l0,.1c0,.12,0,.24.05.36s0,.09,0,.13,0,.33,0,.5v1.21h0a9.35,9.35,0,0,0,.93-1h0l.23-.3.06-.08.18-.26.09-.14.14-.23.12-.2.11-.19.13-.25.08-.16.14-.3.05-.12.14-.35,0-.09.14-.39,0-.06q.07-.21.12-.42v0c0-.15.07-.3.11-.45v0c0-.15.06-.3.08-.46v0c0-.15,0-.29.06-.44v0c0-.14,0-.29,0-.43v-.07c0-.17,0-.33,0-.5a9.28,9.28,0,1,0-18.56,0ZM34.63,28.69l.05,0,.22-.17.08-.06.25-.16,0,0,.3-.15.08,0,.24-.1.08,0,.32-.11h.05l.28-.08.09,0,.28-.06h0l.33-.06h0l-.07-.05-.24-.19-.1-.1L36.8,27l-.1-.11-.18-.24-.07-.1a4,4,0,0,1-.21-.36l0-.06c-.05-.1-.1-.21-.14-.32l0-.13c0-.09-.06-.18-.09-.28l0-.15c0-.1,0-.2-.06-.29l0-.14a3.94,3.94,0,0,1,0-.44,3.74,3.74,0,1,1,7.48,0,3.94,3.94,0,0,1,0,.44l0,.14c0,.1,0,.2-.05.29l0,.15c0,.09-.06.18-.09.28l0,.13c0,.11-.09.22-.15.32l0,.06a3.52,3.52,0,0,1-.21.36l-.07.09-.18.24-.1.11-.2.2-.1.1-.24.2-.06.05h0l.33.06h0l.28.06.09,0,.28.08h.05l.32.11.08,0,.24.1.08,0,.3.15,0,0,.25.16.08.06.22.17.05,0,.25.24.06.06.18.21.06.08a3.64,3.64,0,0,1,.2.3v0c.06.1.11.2.16.31l0,.1c0,.1.08.2.11.3l0,.08c0,.13.07.27.1.41l0,.1q0,.17.05.36s0,.09,0,.13,0,.33,0,.5v1.21h0a9.43,9.43,0,0,0,.92-1l0,0,.22-.29.07-.09.18-.25.1-.15.14-.22.12-.2.1-.19.13-.25.08-.15L48,30,48,29.9l.14-.35,0-.09.14-.39,0-.06c0-.14.09-.28.13-.43v0c0-.15.07-.3.11-.45v0c0-.15.06-.3.08-.45v0c0-.15,0-.3.06-.44v0c0-.14,0-.29,0-.43s0,0,0-.07,0-.33,0-.5a9.28,9.28,0,1,0-18.56,0c0,.17,0,.33,0,.5v.07c0,.14,0,.28,0,.43v.05c0,.15,0,.29.06.44v0c0,.15.05.3.08.45v0q0,.22.1.44v0c0,.14.08.28.12.42l0,.07c0,.13.09.26.13.38l0,.1.14.34.06.13.14.29.08.16.13.24.11.2.11.19.14.23.09.14.18.26.06.08.23.3h0a9.42,9.42,0,0,0,.93,1h0V31.91c0-.17,0-.34,0-.5v-.13c0-.12,0-.25.05-.36l0-.1a4.13,4.13,0,0,1,.1-.41l0-.08c0-.1.07-.21.11-.3l0-.1c.05-.11.1-.21.16-.31v0a3.6,3.6,0,0,1,.2-.3l.06-.08.18-.21.06-.06ZM42,24.41A2.52,2.52,0,1,0,39.53,27,2.55,2.55,0,0,0,42,24.41ZM38.94,35.55l.59,0,.59,0h.17l.46-.05.15,0,.55-.1.18,0,.39-.1.21-.06.5-.17.18-.07.34-.15.22-.1.37-.19.25-.14.34-.21.1-.06h0V31.91c0-2.29-1.45-3.23-5-3.23s-5,.93-5,3.23v2.16h0l.11.07.31.19.29.16.34.18.23.11.33.14.19.08.5.17.21.06.38.1.18,0,.55.1.15,0,.46.05ZM21.71,52.26l.05,0L22,52l.08-.06.25-.16,0,0,.3-.15.08,0,.25-.1.08,0,.32-.11h.05l.28-.08.09,0,.28-.06h0l.33-.06h0l-.06-.05-.25-.2-.1-.1-.19-.2-.1-.11-.18-.24-.07-.09a3.8,3.8,0,0,1-.21-.36l0-.06a3.46,3.46,0,0,1-.15-.33l0-.13q0-.14-.09-.28l0-.15c0-.1,0-.2-.06-.3s0-.09,0-.14a4,4,0,0,1,0-.44,3.74,3.74,0,1,1,7.48,0,3.94,3.94,0,0,1,0,.44s0,.09,0,.14,0,.2-.05.3l0,.15c0,.09-.05.19-.09.28l0,.13c0,.11-.09.22-.14.32l0,.06a3.87,3.87,0,0,1-.21.36l-.07.1-.18.23-.1.11-.19.2-.1.1-.24.19-.07.05h0l.33.06h0l.28.06.09,0,.28.08.05,0,.32.11.08,0,.24.1.09,0,.3.15,0,0,.25.16.08.06.22.17.05,0,.25.23.06.06.18.21.06.08c.07.1.14.2.2.3v0c.06.1.11.21.16.31l0,.1c0,.1.08.2.11.3l0,.08q.06.2.1.41l0,.1c0,.12,0,.24.05.36s0,.09,0,.13,0,.33,0,.5v1.21h0a9.41,9.41,0,0,0,.93-1h0L34,55.4l.07-.09.18-.26.1-.15.14-.22.12-.2.11-.19.13-.25.08-.15.14-.3.05-.12.14-.35,0-.08.14-.39,0-.06c0-.14.09-.28.13-.43v0c0-.15.07-.3.11-.45v0c0-.15.06-.3.08-.46v0c0-.15,0-.3.06-.45v0c0-.14,0-.29,0-.43v-.07c0-.17,0-.33,0-.5s0-.34,0-.5,0-.15,0-.23,0-.18,0-.27,0-.19,0-.28l0-.21c0-.1,0-.2-.05-.29l0-.19c0-.1,0-.19-.07-.29l0-.19-.08-.28-.06-.2-.09-.26-.08-.21L35.18,46l-.09-.21L35,45.63l0-.05c-.08-.16-.16-.33-.24-.48l-.11-.2-.19-.32-.12-.19L34,44l-.12-.15-.27-.34-.1-.12c-.13-.15-.27-.3-.41-.44l0,0a9.23,9.23,0,0,0-5.74-2.67h-.13l-.61,0a9.39,9.39,0,0,0-9.28,9.49c0,.17,0,.33,0,.5v.07c0,.14,0,.29,0,.43v.05c0,.15,0,.3.06.44v0c0,.15.05.3.08.46v0c0,.15.07.3.11.45v0c0,.14.08.29.12.42l0,.06c0,.13.09.26.14.39l0,.09.14.35.05.12.14.3.08.16.13.25.11.19.12.2.14.23L19,55l.18.26.06.08.23.3h0a9.23,9.23,0,0,0,.93,1h0V55.49c0-.17,0-.34,0-.5v-.13q0-.19.05-.36l0-.1c0-.14.06-.28.1-.41l0-.08c0-.1.07-.21.11-.3l0-.1c.05-.11.1-.22.16-.31v0c.06-.11.13-.21.2-.3l.06-.08.18-.21.06-.06ZM29.13,48a2.52,2.52,0,1,0-2.52,2.57A2.55,2.55,0,0,0,29.13,48ZM22,57.91l.28.16.35.18.23.1.34.14.19.08.5.17.21.06.39.1.18,0,.55.1.14,0,.46,0H26l.59,0,.59,0h.17l.46,0L28,59l.55-.1.18,0,.39-.1.21-.06.5-.17.19-.08.34-.14.23-.11.35-.18.28-.16.31-.19.11-.07h0V55.49c0-2.29-1.45-3.23-5-3.23s-5,.94-5,3.23v2.16h0l.11.07Z"/></svg>