<svg xmlns="http://www.w3.org/2000/svg" viewBox="0 0 79 79"><defs><style>.a{fill:#555464;fill-rule:evenodd;}</style></defs><title>beneficios_socios_Artboard 1 copy 11</title><path class="a" d="M45.15.84h.12A36.38,36.38,0,0,1,59.33,6.75a.81.81,0,0,1,.22,1.07.71.71,0,0,1-.61.35A.69.69,0,0,1,58.55,8,35,35,0,0,0,45,2.38a.77.77,0,0,1-.58-.89A.74.74,0,0,1,45.15.84ZM34,.5a34.41,34.41,0,0,0-3.79.67.66.66,0,0,0,.15,1.29l.15,0a33.06,33.06,0,0,1,3.64-.65A.66.66,0,0,0,34.05.5ZM26.65,1.84A37,37,0,0,0,14.57,9.08a.82.82,0,0,0-.1,1.09.69.69,0,0,0,.55.28.68.68,0,0,0,.45-.18,35.54,35.54,0,0,1,11.63-7,.79.79,0,0,0,.45-1,.72.72,0,0,0-.68-.53A.64.64,0,0,0,26.65,1.84Zm-21,16.08A19.27,19.27,0,0,0,4.07,21a.67.67,0,0,0,.31.87.55.55,0,0,0,.25.06.61.61,0,0,0,.56-.39,18.27,18.27,0,0,1,1.46-2.93.68.68,0,0,0-.19-.9.58.58,0,0,0-.32-.1A.6.6,0,0,0,5.61,17.92ZM2.37,26.71A43.2,43.2,0,0,0,.5,39.37,44.36,44.36,0,0,0,.72,43.8a.65.65,0,0,0,.61.63H1.4a.69.69,0,0,0,.54-.79c-.14-1.41-.21-2.85-.21-4.27a41.57,41.57,0,0,1,1.8-12.18.74.74,0,0,0-.37-.91.53.53,0,0,0-.21,0A.62.62,0,0,0,2.37,26.71ZM4.84,56.85a.74.74,0,0,0-.24.94c.38.77.8,1.54,1.23,2.28a.59.59,0,0,0,.51.31.56.56,0,0,0,.34-.11.74.74,0,0,0,.18-1c-.42-.71-.81-1.45-1.18-2.19a.61.61,0,0,0-.54-.35A.55.55,0,0,0,4.84,56.85Zm5.74,7a.75.75,0,0,0-.08,1,38.41,38.41,0,0,0,11.17,9.26.7.7,0,0,0,.34.09.71.71,0,0,0,.63-.39.75.75,0,0,0-.3-1A37,37,0,0,1,11.59,64a.7.7,0,0,0-1-.09ZM42.86,77.05c-.51.06-1,.1-1.54.14a.64.64,0,0,0-.58.69.63.63,0,0,0,.61.62h0c.53,0,1.07-.08,1.6-.14a.65.65,0,0,0,.54-.72.63.63,0,0,0-.61-.59Zm19.32-7.39a36.68,36.68,0,0,1-12.21,6,.78.78,0,0,0-.52.95.74.74,0,0,0,.71.58l.19,0A38.22,38.22,0,0,0,63,70.92a.8.8,0,0,0,.17-1.08.73.73,0,0,0-.6-.33A.71.71,0,0,0,62.18,69.66Zm6.27-7.3c-.24.31-.5.63-.75.93a.66.66,0,0,0,.08.92.64.64,0,0,0,.42.15.65.65,0,0,0,.5-.23c.26-.31.52-.64.78-1a.66.66,0,0,0-.11-.92.64.64,0,0,0-.4-.14A.65.65,0,0,0,68.46,62.37Zm5.88-13.56a40.38,40.38,0,0,1-4.2,10.57.8.8,0,0,0,.19,1,.61.61,0,0,0,.36.12.64.64,0,0,0,.55-.33,42,42,0,0,0,4.36-11,.76.76,0,0,0-.46-.91l-.17,0A.67.67,0,0,0,74.34,48.81Zm3.38-13.94a.63.63,0,0,0-.6.66c0,.42.06.84.08,1.26a.64.64,0,0,0,.65.59h0a.63.63,0,0,0,.63-.64c0-.44,0-.88-.08-1.31a.64.64,0,0,0-.65-.56Zm-6.83-17a.72.72,0,0,0-.25,1,36.73,36.73,0,0,1,5.09,12.32.76.76,0,0,0,.75.59l.15,0a.74.74,0,0,0,.6-.87,38.19,38.19,0,0,0-5.29-12.81.78.78,0,0,0-.66-.35A.8.8,0,0,0,70.88,17.87Zm-8-9.95a.57.57,0,0,0,.13.86c.67.45,1.33.94,2,1.43a.73.73,0,0,0,.45.15.72.72,0,0,0,.51-.21.57.57,0,0,0-.06-.87c-.65-.52-1.34-1-2-1.49a.74.74,0,0,0-.41-.12A.72.72,0,0,0,62.91,7.92ZM53,8.87a.74.74,0,0,0,.34,1,31.89,31.89,0,0,1,10.6,8.36.72.72,0,0,0,.57.27.74.74,0,0,0,.57-1.21A33.31,33.31,0,0,0,54,8.53a.73.73,0,0,0-.32-.07A.74.74,0,0,0,53,8.87ZM42.69,6.39a.69.69,0,0,0,.69.73A40.73,40.73,0,0,1,48.61,8l.22,0a.8.8,0,0,0,.77-.47.65.65,0,0,0-.54-.81,42.26,42.26,0,0,0-5.48-.93h-.1A.76.76,0,0,0,42.69,6.39Zm-9-.47a29.62,29.62,0,0,0-15.31,7.22.87.87,0,0,0-.12,1.12.68.68,0,0,0,.56.31.65.65,0,0,0,.43-.17A28.33,28.33,0,0,1,33.83,7.5a.79.79,0,0,0,.61-.89.74.74,0,0,0-.7-.7ZM16.1,15a30.34,30.34,0,0,0-2,2.45.75.75,0,0,0,.08,1,.58.58,0,0,0,.39.16.59.59,0,0,0,.47-.25A28.93,28.93,0,0,1,17,15.94a.75.75,0,0,0,0-1,.57.57,0,0,0-.87,0Zm-.81,45.46a.82.82,0,0,0,0,1.08,30.46,30.46,0,0,0,15.4,9.76l.16,0a.71.71,0,0,0,.67-.59.77.77,0,0,0-.52-.92,29.1,29.1,0,0,1-14.71-9.33.65.65,0,0,0-1,0ZM36,70.37a.73.73,0,0,0,.6.82,28.93,28.93,0,0,0,3.49.21.74.74,0,0,0,0-1.47,27.94,27.94,0,0,1-3.34-.2h-.08A.71.71,0,0,0,36,70.37Zm23.25-6.49a29.76,29.76,0,0,1-10.57,5.83.78.78,0,0,0-.49,1,.73.73,0,0,0,.69.56l.2,0a31.24,31.24,0,0,0,11.06-6.11A.81.81,0,0,0,60.24,64a.7.7,0,0,0-.56-.29A.68.68,0,0,0,59.23,63.88Zm4.43-5a27.85,27.85,0,0,1-2,1.91.57.57,0,0,0,0,.87.74.74,0,0,0,1,0c.74-.63,1.45-1.31,2.12-2a.57.57,0,0,0-.07-.87.74.74,0,0,0-1,.07ZM17,40.24a1.34,1.34,0,1,1-1.31,1.34A1.33,1.33,0,0,1,17,40.24M17,41.59c0,.11.19.11.19,0a.09.09,0,1,0-.19,0m45.68,1.34a1.34,1.34,0,1,1,1.31-1.34,1.33,1.33,0,0,1-1.31,1.34m0-1.44a.1.1,0,0,0-.09.1c0,.11.19.11.19,0a.1.1,0,0,0-.09-.1m8-1-8.3,5.79a.69.69,0,0,1-.4.12h-.13a.7.7,0,0,1-.45-.3l-1.81-2.76-.7.4-.4.85.24.15a2.6,2.6,0,0,1,.78,3.53l-.76,1.23a2.49,2.49,0,0,1-1.56,1.13,2.44,2.44,0,0,1-1.88-.34L54.7,50A2.58,2.58,0,0,1,54.34,51l-.76,1.23a2.48,2.48,0,0,1-2.11,1.19,2.45,2.45,0,0,1-1.33-.4l-.58-.38a2.57,2.57,0,0,1-.36,1.09L48.44,55a2.48,2.48,0,0,1-1.56,1.13A2.42,2.42,0,0,1,45,55.79l-.58-.37A2.57,2.57,0,0,1,44,56.51l-.76,1.23a2.48,2.48,0,0,1-1.56,1.13,2.42,2.42,0,0,1-1.88-.34l-1.19-.77a2.94,2.94,0,0,1-2.35,1.19,2.87,2.87,0,0,1-1.59-.48l-.31-.2a3,3,0,0,1-1.3-1.9c0-.08,0-.16,0-.25l-.24.07a2.89,2.89,0,0,1-2.23-.4l-.31-.2A3,3,0,0,1,29,53.42l-.24.07a2.89,2.89,0,0,1-2.23-.4l-.31-.2a3,3,0,0,1-1.33-2.12,2.92,2.92,0,0,1-.85.13,2.89,2.89,0,0,1-1.59-.48l-.31-.2a3,3,0,0,1-1.3-1.9,3.07,3.07,0,0,1,.4-2.29l.13-.21A3,3,0,0,1,22,45l-.59-1.25-.9-.52-1.89,2.87a.7.7,0,0,1-.45.3h-.13a.7.7,0,0,1-.4-.12l-8.3-5.79a.73.73,0,0,1-.19-1l9.94-15.16a.71.71,0,0,1,.45-.31.69.69,0,0,1,.53.11L28.41,30a.72.72,0,0,1,.23.27H51.39a.71.71,0,0,1,.23-.27l8.3-5.78a.69.69,0,0,1,.53-.11.71.71,0,0,1,.45.31l9.94,15.16A.73.73,0,0,1,70.65,40.54ZM27,30.76l-7.14-5-9.16,14,7.14,5ZM24.33,49.41a1.53,1.53,0,0,0,.79-.46,2.89,2.89,0,0,1,.15-.26l.32-.51A1.61,1.61,0,0,0,25,46.31l-.31-.2a1.52,1.52,0,0,0-1.17-.21,1.54,1.54,0,0,0-1,.7l-.13.21a1.61,1.61,0,0,0-.21,1.2,1.58,1.58,0,0,0,.68,1l.31.2A1.51,1.51,0,0,0,24.33,49.41Zm5.06,2,1.34-2.16a1.62,1.62,0,0,0-.47-2.2l-.31-.2a1.51,1.51,0,0,0-.83-.25,1.6,1.6,0,0,0-.34,0,1.55,1.55,0,0,0-1,.7l-1,1.53a3.13,3.13,0,0,1-.23.45l-.13.21-.16.22a1.61,1.61,0,0,0,.59,2l.31.2h0a1.51,1.51,0,0,0,1.17.21A1.54,1.54,0,0,0,29.39,51.38Zm4.12,2.69.13-.2h0l1.93-3.1a1.62,1.62,0,0,0-.47-2.2l-.31-.2a1.52,1.52,0,0,0-.83-.25,1.54,1.54,0,0,0-1.31.74L31.92,50h0l-1.35,2.16h0a1.62,1.62,0,0,0-.21,1.2,1.58,1.58,0,0,0,.68,1l.31.2a1.51,1.51,0,0,0,1.17.21A1.54,1.54,0,0,0,33.51,54.07Zm3.77.29-.31-.2a1.52,1.52,0,0,0-.83-.25,1.54,1.54,0,0,0-1.31.74l-.13.21a1.62,1.62,0,0,0,.47,2.2l.31.2a1.52,1.52,0,0,0,1.17.21,1.54,1.54,0,0,0,1-.7l.13-.2A1.62,1.62,0,0,0,37.28,54.36ZM58,46l-8.2-5.24H44.87c-3,0-5-1.53-5.32-3.95H34.72v1.54a2.79,2.79,0,0,1-2.05,2.71l-3.27.86-.17,0a.69.69,0,0,1-.43-.15.72.72,0,0,1-.27-.57V34.66a.73.73,0,0,1,.34-.62l3.86-2.36H28.13l-6.8,10.37,1,.58a.72.72,0,0,1,.29.32l.71,1.51a2.89,2.89,0,0,1,2.08.43l.31.2a3,3,0,0,1,1.06,1.21,2.92,2.92,0,0,1,1.7-1.1,2.87,2.87,0,0,1,2.23.4l.31.2a3,3,0,0,1,1.16,1.46,2.9,2.9,0,0,1,3.36-.12l.31.2a3.08,3.08,0,0,1,.9,4.19l-.58.93a2.89,2.89,0,0,1,1.55.47l.31.2a3.07,3.07,0,0,1,1.27,3.32l1.29.84a1.06,1.06,0,0,0,.82.15A1.08,1.08,0,0,0,42.1,57l.76-1.23a1.13,1.13,0,0,0-.34-1.54l-2.1-1.37a.73.73,0,0,1-.28-.86.74.74,0,0,1,.06-.13.71.71,0,0,1,.57-.34.69.69,0,0,1,.4.11l4.57,3a1.06,1.06,0,0,0,.82.15,1.08,1.08,0,0,0,.68-.49L48,53a1.14,1.14,0,0,0-.34-1.54l-4.57-3a.73.73,0,0,1-.28-.86.65.65,0,0,1,.06-.13.68.68,0,0,1,.86-.28l.11.06,2.89,1.88,4.14,2.69a1.08,1.08,0,0,0,1.51-.34l.76-1.23a1.14,1.14,0,0,0,.14-.84,1.11,1.11,0,0,0-.48-.7l-7-4.57a.73.73,0,0,1-.22-1,.69.69,0,0,1,1-.22l7,4.57h0L56,49.12a1.06,1.06,0,0,0,.82.15,1.09,1.09,0,0,0,.68-.49l.76-1.23A1.14,1.14,0,0,0,58,46Zm.82-3.83L51.9,31.68H35.46l-5.54,3.39v5.22l2.39-.63a1.36,1.36,0,0,0,1-1.32V36.09a.71.71,0,0,1,.7-.72H40.2a.71.71,0,0,1,.7.72c0,3,3,3.23,4,3.23h5.2a.7.7,0,0,1,.58.31l6.62,4.23.43-.91a.71.71,0,0,1,.29-.32Zm10.5-2.42-9.16-14-7.14,5,9.16,14Z"/></svg>