<svg xmlns="http://www.w3.org/2000/svg" viewBox="0 0 79 79"><defs><style>.a{fill:#555464;fill-rule:evenodd;}</style></defs><title>beneficios_socios_Artboard 1 copy 9</title><path class="a" d="M64.55,71.82a.67.67,0,0,1-.25,1A43.72,43.72,0,0,1,42.53,78.5a44.87,44.87,0,0,1-10.39-1.21.7.7,0,0,1-.54-.85.75.75,0,0,1,.91-.5,43.16,43.16,0,0,0,10,1.17,42.16,42.16,0,0,0,21-5.52.79.79,0,0,1,.39-.1A.75.75,0,0,1,64.55,71.82ZM4.13,22.62a.62.62,0,0,0-.57.41A42.43,42.43,0,0,0,.5,39c0,1.44.07,2.89.21,4.32a.65.65,0,0,0,.62.62H1.4a.68.68,0,0,0,.55-.77c-.13-1.37-.2-2.78-.2-4.16a40.93,40.93,0,0,1,3-15.43.73.73,0,0,0-.31-.92A.56.56,0,0,0,4.13,22.62Zm5.35,4.44a.82.82,0,0,0,.27,0,.76.76,0,0,0,.7-.44,31.2,31.2,0,0,1,7.92-11.06A36.38,36.38,0,0,1,42.93,6.38a38.68,38.68,0,0,1,5.31.36.75.75,0,0,0,.86-.58.7.7,0,0,0-.63-.78A40.84,40.84,0,0,0,42.93,5,38,38,0,0,0,17.3,14.64,32.56,32.56,0,0,0,9,26.18.67.67,0,0,0,9.48,27.06ZM31.07,68.44a34.86,34.86,0,0,1-14.17-7.78A30,30,0,0,1,7.37,43.71a.72.72,0,0,0-.73-.57H6.52a.69.69,0,0,0-.61.78,31.31,31.31,0,0,0,10,17.69,36.38,36.38,0,0,0,14.78,8.12.81.81,0,0,0,.22,0,.74.74,0,0,0,.71-.48A.67.67,0,0,0,31.07,68.44ZM72.26,19.26a.72.72,0,0,0-1.18.83A33.27,33.27,0,0,1,67.36,62.6a33.44,33.44,0,0,1-6.56,5.12A.72.72,0,1,0,61.53,69a34.86,34.86,0,0,0,6.85-5.34,34.71,34.71,0,0,0,3.89-44.36ZM48.06,1.9A41.9,41.9,0,0,1,68.44,9.58a39.69,39.69,0,0,1,7.23,6.7.78.78,0,0,0,1.05.12.67.67,0,0,0,.13-1,41.26,41.26,0,0,0-7.49-6.95A43.48,43.48,0,0,0,48.22.5h-.08a.73.73,0,0,0-.75.63A.72.72,0,0,0,48.06,1.9ZM38.84,53.76V51.68l-15-14.13a.67.67,0,0,1-.21-.49V20.45a.71.71,0,0,1,.73-.69,5.92,5.92,0,0,1,5.08,2.79A11.23,11.23,0,0,1,40.2,15c6.21,0,11.27,4.76,11.27,10.61,0,.22,0,.45,0,.67a5.71,5.71,0,0,1,3.36-1.08.71.71,0,0,1,.73.69V53.76h.78a.71.71,0,0,1,.73.69v7.4a.71.71,0,0,1-.73.69h-19a.71.71,0,0,1-.73-.69v-7.4a.71.71,0,0,1,.73-.69ZM30.4,25.64c0,5.09,4.4,9.23,9.8,9.23S50,30.73,50,25.64s-4.4-9.23-9.8-9.23S30.4,20.55,30.4,25.64ZM45.4,35l2.06,2.26,1.83-4.63V31.9A11.18,11.18,0,0,1,45.4,35ZM40.09,50.91a.67.67,0,0,1,.21.49v2.36H54.07V26.67a3.88,3.88,0,0,0-3.31,3.75V32.8a.66.66,0,0,1,0,.24l-1.89,4.78a5.93,5.93,0,0,1-5.53,3.62H40.4a.69.69,0,1,1,0-1.38h2.89a4.57,4.57,0,0,0,3.39-1.5L44,35.63a11.85,11.85,0,0,1-3.79.62,11.38,11.38,0,0,1-10-5.75v3l5.76,5.42a.66.66,0,0,1,0,1,.77.77,0,0,1-1,0l-6-5.63a.67.67,0,0,1-.21-.49V25.27a4.21,4.21,0,0,0-3.65-4.07V36.77Zm-2,4.23v6H55.58v-6H38.09ZM36,23.69v-.92a2.25,2.25,0,0,1,2.31-2.17h1.1V19h1.36V20.6h1.36a1.78,1.78,0,0,1,1.83,1.72H42.57a.45.45,0,0,0-.47-.44H40.74v2.7h1.1a2.25,2.25,0,0,1,2.31,2.17v.92a2.25,2.25,0,0,1-2.31,2.17h-1.1v1.77H39.38V29.87H38.24a2.06,2.06,0,0,1-2.11-2H37.5a.74.74,0,0,0,.74.72h1.15V25.87h-1.1A2.25,2.25,0,0,1,36,23.69Zm4.77,4.88h1.09a.92.92,0,0,0,1-.89v-.92a.92.92,0,0,0-.95-.89h-1.1Zm-3.4-4.88a.92.92,0,0,0,.95.89h1.1v-2.7h-1.1a.92.92,0,0,0-.95.89Z"/></svg>