<svg xmlns="http://www.w3.org/2000/svg" viewBox="0 0 79 79"><defs><style>.a{fill:#555464;fill-rule:evenodd;}</style></defs><title>beneficios_socios_Artboard 1 copy 12</title><path class="a" d="M22.46,11.17a.63.63,0,0,1,.24-.9A35.65,35.65,0,0,1,40.07,5.81a36.46,36.46,0,0,1,7.23.72.65.65,0,0,1,.53.77.69.69,0,0,1-.82.5,35,35,0,0,0-6.93-.69A34.2,34.2,0,0,0,23.41,11.4a.73.73,0,0,1-.35.09A.7.7,0,0,1,22.46,11.17Zm-7.07,5.46a.66.66,0,0,0,.94,0c.56-.56,1.14-1.1,1.74-1.62a.67.67,0,1,0-.87-1c-.62.54-1.23,1.1-1.81,1.68A.67.67,0,0,0,15.39,16.63ZM6.78,40.14c0-1.05.05-2.12.15-3.16a.68.68,0,0,0-.62-.75H6.25a.69.69,0,0,0-.68.62c-.1,1.09-.15,2.19-.15,3.29A33.77,33.77,0,0,0,13.6,62.2a.69.69,0,0,0,.52.24.68.68,0,0,0,.45-.17.69.69,0,0,0,.07-1A32.41,32.41,0,0,1,6.78,40.14Zm12,25.66a.65.65,0,0,0,.52-.28.8.8,0,0,0-.1-1c-.43-.39-.86-.8-1.28-1.22a.62.62,0,0,0-.94.06.8.8,0,0,0,0,1c.43.43.88.86,1.33,1.27A.62.62,0,0,0,18.76,65.8Zm46.85-6a.68.68,0,0,0-.53.25,32.49,32.49,0,0,1-13.8,9.91.66.66,0,0,0-.39.86.69.69,0,0,0,.88.39,33.51,33.51,0,0,0,11.81-7.52,34.1,34.1,0,0,0,2.56-2.81.66.66,0,0,0-.11-.94A.69.69,0,0,0,65.61,59.78ZM68,54.27a.54.54,0,0,0-.28-.08.58.58,0,0,0-.52.35c-.2.4-.4.81-.62,1.2a.72.72,0,0,0,.2.92.53.53,0,0,0,.31.1.59.59,0,0,0,.51-.32c.22-.41.44-.83.64-1.25A.71.71,0,0,0,68,54.27Zm4.76-11.45c.09-1,.13-1.94.13-2.9a32.38,32.38,0,0,0-7.08-20.25.75.75,0,0,0-1-.14.66.66,0,0,0-.14,1,31.07,31.07,0,0,1,6.79,19.43c0,.93,0,1.86-.12,2.78a.7.7,0,0,0,.66.74h.06A.71.71,0,0,0,72.79,42.82ZM58.46,12.24a.65.65,0,0,0-.53.28.74.74,0,0,0,.13,1,33.13,33.13,0,0,1,3.29,3.07.63.63,0,0,0,.94,0,.75.75,0,0,0,0-1,34.19,34.19,0,0,0-3.43-3.2A.63.63,0,0,0,58.46,12.24ZM19.53,72.51l-.18-.1-.19-.12L19,72.18a.74.74,0,0,0-.8,1.25l.17.11.24.15.17.1a.74.74,0,0,0,.76-1.28ZM53,74.81a38.68,38.68,0,0,1-30-1.45.69.69,0,0,0-.91.3.66.66,0,0,0,.31.89,40.06,40.06,0,0,0,31.09,1.5.66.66,0,0,0,.4-.86A.68.68,0,0,0,53,74.81ZM74.18,54.93a.81.81,0,0,0-.32-.07.75.75,0,0,0-.67.38c-.22.42-.46.84-.71,1.25a.63.63,0,0,0,.3.9.78.78,0,0,0,.35.08.75.75,0,0,0,.65-.35c.25-.43.5-.86.73-1.29A.64.64,0,0,0,74.18,54.93Zm3.7-15.88a.65.65,0,0,0-.62.68A40.73,40.73,0,0,1,75.05,53a.7.7,0,0,0,.36.87.57.57,0,0,0,.22,0,.63.63,0,0,0,.58-.44A42.23,42.23,0,0,0,78.5,39.73.65.65,0,0,0,77.88,39.05ZM65.23,11.62a.84.84,0,0,0,.51.16.83.83,0,0,0,.54-.19.51.51,0,0,0,0-.84c-.37-.28-.76-.57-1.15-.84a.85.85,0,0,0-.49-.15.83.83,0,0,0-.56.2.52.52,0,0,0,.07.84ZM43.46,1.91A36.33,36.33,0,0,1,61.78,9.45a.65.65,0,0,0,.4.14.66.66,0,0,0,.54-.28.73.73,0,0,0-.14-1A37.64,37.64,0,0,0,43.61.5h-.08a.69.69,0,0,0-.67.63A.7.7,0,0,0,43.46,1.91ZM14.23,11.5a.62.62,0,0,0,.43-.18c.55-.53,1.13-1,1.71-1.53a.8.8,0,0,0,.13-1,.64.64,0,0,0-.53-.3.62.62,0,0,0-.4.15c-.6.5-1.19,1-1.77,1.58a.8.8,0,0,0-.07,1A.64.64,0,0,0,14.23,11.5Zm-2.06.63a.66.66,0,0,0-.95,0A39.45,39.45,0,0,0,.5,35a.68.68,0,0,0,.58.76h.08a.68.68,0,0,0,.66-.6,38.06,38.06,0,0,1,10.34-22A.7.7,0,0,0,12.17,12.13ZM10.79,39.65A28.39,28.39,0,1,1,39.18,68.27,28.53,28.53,0,0,1,10.79,39.65Zm1.34,0a27.05,27.05,0,1,0,27-27.26A27.19,27.19,0,0,0,12.13,39.65Zm5.61-.19a3.6,3.6,0,0,1,7.14-.68h2.69A11.69,11.69,0,0,1,30,32.28l-3.68-3.74a3.54,3.54,0,0,1-2,.64,3.67,3.67,0,1,1,3.61-3.67,3.69,3.69,0,0,1-.63,2.07l3.61,3.68a11.32,11.32,0,0,1,7.44-3.4V24.13a3.61,3.61,0,1,1,1.33,0v3.73a11.32,11.32,0,0,1,7.43,3.39.64.64,0,0,1,.07-.11l3.53-3.59a3.69,3.69,0,0,1-.61-2,3.61,3.61,0,1,1,3.6,3.67,3.54,3.54,0,0,1-2.06-.66L48.09,32.1a.64.64,0,0,1-.18.12,11.69,11.69,0,0,1,2.47,6.57h2.68a3.66,3.66,0,0,1,1-1.92,3.55,3.55,0,0,1,2.55-1.07,3.67,3.67,0,1,1-3.54,4.35H50.39a11.69,11.69,0,0,1-2.45,6.54.64.64,0,0,1,.15.1l3.55,3.61a3.54,3.54,0,0,1,2-.64,3.67,3.67,0,1,1-3.6,3.67,3.69,3.69,0,0,1,.63-2.07l-3.55-3.61a.65.65,0,0,1-.06-.09,11.32,11.32,0,0,1-7.45,3.41V55.8a3.61,3.61,0,1,1-1.33,0V51.07a11.32,11.32,0,0,1-7.5-3.47L27.2,51.27a3.59,3.59,0,1,1-2.91-1.53,3.53,3.53,0,0,1,1.95.59l3.7-3.77a11.68,11.68,0,0,1-2.37-6.43H24.88a3.6,3.6,0,0,1-7.14-.68Zm8.82,14a2.27,2.27,0,1,0-2.27,2.31A2.3,2.3,0,0,0,26.56,53.42ZM53.67,51.1a2.31,2.31,0,1,0,2.27,2.31A2.29,2.29,0,0,0,53.67,51.1ZM51.4,25.51a2.27,2.27,0,1,0,2.27-2.31A2.3,2.3,0,0,0,51.4,25.51ZM24.28,27.82A2.31,2.31,0,1,0,22,25.51,2.3,2.3,0,0,0,24.28,27.82ZM39,40.78a3.18,3.18,0,0,0,3.25-2.91V36.08a3.27,3.27,0,0,0-6.5,0v1.79A3.18,3.18,0,0,0,39,40.78ZM33.77,45v3.26A9.9,9.9,0,0,0,39,49.75h0a9.9,9.9,0,0,0,5.21-1.49V45c0-.86-2.73-2.87-5.21-2.87S33.77,44.14,33.77,45ZM39,57.08a2.31,2.31,0,1,0,2.27,2.31A2.3,2.3,0,0,0,39,57.08ZM54.34,39.46a2.27,2.27,0,1,0,2.27-2.31,2.24,2.24,0,0,0-1.61.68A2.32,2.32,0,0,0,54.34,39.46ZM39,22.84h0a2.31,2.31,0,1,0-2.27-2.31A2.3,2.3,0,0,0,39,22.84ZM28.87,39.46a10.33,10.33,0,0,0,3.57,7.83V45c0-1.42,1.87-2.9,3.92-3.67a4.22,4.22,0,0,1-2-3.46V36.08a4.6,4.6,0,0,1,9.17,0v1.79a4.22,4.22,0,0,1-2,3.46c2,.77,3.92,2.25,3.92,3.67v2.29a10.33,10.33,0,0,0,3.57-7.83,10.11,10.11,0,1,0-20.22,0Zm-9.8,0a2.27,2.27,0,1,0,2.27-2.31A2.3,2.3,0,0,0,19.07,39.46Z"/></svg>