<svg xmlns="http://www.w3.org/2000/svg" viewBox="0 0 79 79"><defs><style>.a{fill:#555464;fill-rule:evenodd;}</style></defs><title>beneficios_socios_Artboard 1 copy 13</title><path class="a" d="M39.29,5.86a34.27,34.27,0,0,1,7.18.76A.69.69,0,0,1,46.18,8a32.93,32.93,0,0,0-6.89-.73,32.51,32.51,0,0,0-16.56,4.5.69.69,0,0,1-.7-1.19A33.9,33.9,0,0,1,39.29,5.86ZM17.69,14.54c-.67.58-1.32,1.19-1.94,1.82a.73.73,0,0,0,0,1,.71.71,0,0,0,1,0c.6-.6,1.23-1.19,1.87-1.75a.73.73,0,0,0,.08-1,.71.71,0,0,0-1-.08ZM5.89,36.24c-.1,1.09-.15,2.2-.15,3.3a34.33,34.33,0,0,0,8,22.11.66.66,0,0,0,.94.07.7.7,0,0,0,.07-1A33,33,0,0,1,7.07,39.53c0-1.06.05-2.12.15-3.17a.68.68,0,0,0-.6-.75H6.56A.68.68,0,0,0,5.89,36.24ZM16.71,64.17a.6.6,0,0,0,.05.91c.46.38.95.74,1.43,1.1a.77.77,0,0,0,.45.14.75.75,0,0,0,.56-.24.6.6,0,0,0-.11-.9c-.47-.34-.93-.69-1.38-1.05a.77.77,0,0,0-.48-.17A.75.75,0,0,0,16.71,64.17Zm47.49-4.23a32.56,32.56,0,0,1-2.42,2.76,31.41,31.41,0,0,1-11.13,7.38.69.69,0,0,0-.39.88.67.67,0,0,0,.63.44.65.65,0,0,0,.24,0,32.76,32.76,0,0,0,11.6-7.69,34.57,34.57,0,0,0,2.52-2.87.7.7,0,0,0-.11-1,.66.66,0,0,0-.94.11Zm3.64-4.44c-.21.44-.43.88-.66,1.3a.78.78,0,0,0,.21,1,.57.57,0,0,0,.33.1.63.63,0,0,0,.54-.35c.24-.44.47-.9.69-1.36a.78.78,0,0,0-.25-1,.58.58,0,0,0-.31-.09A.63.63,0,0,0,67.84,55.5ZM65.19,19.69a.7.7,0,0,0-.13,1A32.87,32.87,0,0,1,71.24,40c0,.92,0,1.86-.11,2.77a.68.68,0,0,0,.6.74h.06a.67.67,0,0,0,.65-.63c.08-1,.12-1.93.12-2.89a34.25,34.25,0,0,0-6.44-20.18.65.65,0,0,0-.53-.27A.64.64,0,0,0,65.19,19.69Zm-6.63-6.84a.65.65,0,0,0,.14.94,34.28,34.28,0,0,1,3.54,2.91.75.75,0,0,0,1,0,.65.65,0,0,0,0-1,35.5,35.5,0,0,0-3.68-3,.75.75,0,0,0-1,.13ZM18.28,72.34a.65.65,0,0,0,.19.89l.14.09.2.13.15.09a.62.62,0,0,0,.33.09.64.64,0,0,0,.55-.31.65.65,0,0,0-.22-.88l-.15-.09-.16-.1-.15-.09a.63.63,0,0,0-.34-.1A.64.64,0,0,0,18.28,72.34Zm3.15,1.51a.63.63,0,0,0,.31.86A39.79,39.79,0,0,0,38.86,78.5a40.21,40.21,0,0,0,13.63-2.35.63.63,0,0,0,.39-.83.68.68,0,0,0-.87-.38,38.82,38.82,0,0,1-13.15,2.27,38.39,38.39,0,0,1-16.53-3.66.69.69,0,0,0-.3-.07A.68.68,0,0,0,21.43,73.84Zm51.8-17.59c-.19.45-.4.91-.61,1.35a.77.77,0,0,0,.26,1,.56.56,0,0,0,.3.09.63.63,0,0,0,.56-.38c.22-.46.43-.93.63-1.4a.77.77,0,0,0-.29-1,.57.57,0,0,0-.28-.07A.63.63,0,0,0,73.24,56.26Zm3.93-16.17a39.7,39.7,0,0,1-2.37,13.6.7.7,0,0,0,.39.89.62.62,0,0,0,.24,0,.67.67,0,0,0,.63-.45A41.13,41.13,0,0,0,78.5,40.09a.67.67,0,1,0-1.34,0ZM64.35,10.19a.65.65,0,0,0,.06.91l1,.87a.63.63,0,0,0,.9,0,.65.65,0,0,0,0-.91c-.32-.31-.65-.61-1-.9a.63.63,0,0,0-.9.06ZM43,1.1a.68.68,0,0,0,.61.74A38,38,0,0,1,62.14,9.05a.69.69,0,0,0,1-.14A.67.67,0,0,0,63,8,39.34,39.34,0,0,0,43.75.5h-.07A.68.68,0,0,0,43,1.1ZM15.93,8.67c-.64.44-1.28.9-1.9,1.37a.6.6,0,0,0-.08.91A.77.77,0,0,0,15,11c.6-.45,1.21-.9,1.84-1.32a.6.6,0,0,0,.14-.9.74.74,0,0,0-.57-.26A.77.77,0,0,0,15.93,8.67Zm-4.57,3.74A39,39,0,0,0,.5,35.15a.68.68,0,0,0,.59.76h.08a.68.68,0,0,0,.67-.6A37.69,37.69,0,0,1,12.33,13.36a.69.69,0,0,0,0-1,.67.67,0,0,0-1,0ZM39.51,67.28A27.68,27.68,0,1,0,12.07,39.61,27.59,27.59,0,0,0,39.51,67.28Zm0-56.72a29,29,0,1,1-28.79,29A29,29,0,0,1,39.51,10.56Zm.16,40.54c11.52,0,20.6-9.45,21-9.85a1.62,1.62,0,0,0,0-2.23c-.38-.4-9.49-9.85-21-9.85s-20.6,9.45-21,9.85a1.62,1.62,0,0,0,0,2.23c.38.4,9.48,9.85,21,9.85m0-20.59c10.92,0,19.63,9,20,9.43a.28.28,0,0,1,0,.38c-.36.38-9.06,9.43-20,9.43s-19.63-9-20-9.43a.28.28,0,0,1,0-.38c.36-.39,9.07-9.43,20-9.43m0,18.55a8.92,8.92,0,1,0-9-8.92,9,9,0,0,0,9,8.92m0-16.49a7.57,7.57,0,1,1-7.61,7.57,7.6,7.6,0,0,1,7.61-7.57m0,13.07a5.51,5.51,0,1,0-5.54-5.5,5.53,5.53,0,0,0,5.54,5.5m0-9.66a4.15,4.15,0,1,1-4.18,4.16A4.17,4.17,0,0,1,39.71,36"/></svg>