<svg xmlns="http://www.w3.org/2000/svg" width="419" height="391" viewBox="0 0 419 391">
    <g fill="none" fill-rule="evenodd">
        <path fill="#DDEBEF" d="M242.45 113.645l-.764 4.708-.063-.006c.989.078 1.953.492 2.87.949 1.913.952 3.571 2.487 4.568 4.424 1.998 3.883 1.317 9.07-1.646 12.36-2.288 2.54-5.764 3.786-9.134 3.253-.705 4.346-1.276 7.863-1.48 9.108l-.053.326c0 1.037-3.326 1.878-7.423 1.878-4.098 0-7.424-.841-7.424-1.878l-5.701-35.122h26.25zm-1.322 8.133l-.035.23-2.253 13.885-.056-.009.123.02c2.921.417 5.992-1.283 7.274-4.048 1.382-2.987.623-6.96-2.243-8.896-.806-.544-1.71-.954-2.643-1.145-.067-.014-.122-.026-.167-.037z" transform="translate(-79)"/>
        <path fill="#97B2B8" d="M229.2 111.645c7.175 0 13 1.12 13 2.5s-5.825 2.5-13 2.5-13-1.12-13-2.5 5.825-2.5 13-2.5z" transform="translate(-79)"/>
        <g>
            <path fill="#DDEBEF" d="M34.748 154.789v-24.702c0-7.716-1.395-15.368-4.118-22.587L-.758 24.286C-4.266 14.985.43 4.6 9.732 1.092c2.071-.782 4.27-1.174 6.483-1.158l44.266.323C72.434.345 83.014 8.01 86.819 19.342l29.786 88.683c2.31 6.879 3.433 14.1 3.322 21.355l-.709 46.383c0 .014-.012.026-.026.026H55.748c-11.598 0-21-9.402-21-21z" transform="translate(-79) translate(.2 61.645)"/>
            <path fill="#C2D5DA" d="M45.173 161.789v-30.852c0-7.807-1.429-15.548-4.215-22.84L6.933 19.034C4.173 11.812 7.793 3.72 15.015.96 16.642.34 18.371.026 20.112.04l60.094.433c5.954.043 11.23 3.847 13.15 9.483l33.628 98.649c2.374 6.964 3.529 14.284 3.415 21.64l-.705 45.519c0 .014-.012.026-.027.026H59.172c-7.731 0-14-6.268-14-14z" transform="translate(-79) translate(.2 61.645)"/>
            <g>
                <path fill="#6D8388" d="M74.108 15.618c0-.597-.289-1.08-.644-1.08h-5.155c-.356 0-.644.483-.644 1.08V59.35c0 .596.288 1.08.644 1.08h5.155c.355 0 .644-.484.644-1.08V15.618z" transform="translate(-79) translate(.2 61.645) translate(44.294 174.986)"/>
                <path fill="#C2D5DA" d="M59.157 0h95.907c5.985 0 10.837 4.852 10.837 10.836 0 5.985-4.852 10.837-10.837 10.837H59.157c-5.985 0-10.836-4.852-10.836-10.837C48.32 4.852 53.172 0 59.157 0z" transform="translate(-79) translate(.2 61.645) translate(44.294 174.986)"/>
                <path fill="#97B2B8" d="M132.034 126.406L132.034 132.302 70.886 119.25 9.738 132.302 9.738 126.406 70.886 107.674z" transform="translate(-79) translate(.2 61.645) translate(44.294 174.986)"/>
                <path fill="#6D8388" d="M132.034 119.812c-5.334 0-9.664 4.317-9.664 9.633 0 5.316 4.33 9.632 9.664 9.632s9.665-4.316 9.665-9.632-4.33-9.633-9.665-9.633z" transform="translate(-79) translate(.2 61.645) translate(44.294 174.986)"/>
                <path fill="#97B2B8" d="M75.718 60.138c0-1.32-.577-2.39-1.288-2.39h-7.087c-.711 0-1.289 1.07-1.289 2.39v51.625c0 1.319.578 2.39 1.289 2.39h7.087s1.288-1.071 1.288-2.39V60.138z" transform="translate(-79) translate(.2 61.645) translate(44.294 174.986)"/>
                <path fill="#DDEBEF" d="M11.642 0h77.384c5.985 0 10.837 4.852 10.837 10.836 0 5.985-4.852 10.837-10.837 10.837H11.642C5.657 21.673.805 16.82.805 10.836.805 4.852 5.657 0 11.642 0z" transform="translate(-79) translate(.2 61.645) translate(44.294 174.986)"/>
            </g>
        </g>
        <g>
            <path fill="#FFC7C0" d="M126.029 364.028c11.921 7.085 22.412 9.84 44.221 8.503 0 0 4.313 6.393-3.19 9.114 0 0-27.797 5.946-47.64-11.187 0 0-1.515-11.794 2.351-20.21l6.642 1.421s-3.55 6.492-2.384 12.359zM264.205 355.325c12.492-3.662 23.073-9.938 35.993-25.35 0 0 3.997.525 1.59 8.808 0 0-6.109 21.029-35.758 23.391l-.014-.027c-4.749.235-10.696-4.655-14.086-12.371l5.204-3.58s2.256 6.333 7.071 9.129z" transform="translate(-79) translate(66.2 .645)"/>
            <path fill="#5C7594" d="M104.175 184.2s68.05 4.84 110.638 29.915c0 0 16.902 80.25 50.709 133.478 0 0-3.294 8.721-14.27 8.612 0 0-43.025-36.073-61.904-125.374 0 0-97.384-3.519-116.963-25.514 0 0 22.57-3.96 31.79-21.116z" transform="translate(-79) translate(66.2 .645)"/>
            <path fill="#405C80" d="M191.904 242.022l11.594-13.532s4.495 17.922-5.824 34.146c-2.051-6.494-3.988-13.362-5.77-20.614z" transform="translate(-79) translate(66.2 .645)"/>
            <path fill="#7C99BE" d="M83.939 188.078s97.605 7.917 116.045 29.913c0 0 7.463 13.637-7.465 37.832 0 0-61.026 93.7-64.539 102.058-9.94 2.747-16.435-.042-20.03-7.496 0 0 9.933-56.29 52.52-112.159 0 0-102.152 9.129-121.56-21.555l45.029-28.593z" transform="translate(-79) translate(66.2 .645)"/>
            <path fill="#67576A" d="M303.083 334.831s-6.667 17.734-31.035 30.93c0 0-2.14 2.31.988 2.145 0 0 22.38-6.598 33.252-30.6l-3.205-2.475zM169.387 377.718s-19.065 8.62-48.407-.189c0 0-3.476.125-.904 2.45 0 0 22.635 12.403 49.882 2.186l-.57-4.447z" transform="translate(-79) translate(66.2 .645)"/>
            <path fill="#FE5D60" d="M144.448 364.98s26.707 1.074 30.063 8.347c4.079 8.839-12.241 17.39-31.462 13.238-1.852-7.896-.87-14.934 1.399-21.584zM279.018 342.694s17.742-16.445 24.532-13.953c8.252 3.028 3.292 18.957-11.634 28.635-6.228-3.855-10.098-8.98-12.898-14.682z" transform="translate(-79) translate(66.2 .645)"/>
            <path fill="#F4B9B2" d="M85.597 31.032S66.5 52.23 58.048 84.122c0 0 12.952 13.28 32.05 4.538 0 0-3.513-19.85 8.835-36.678 0 0 .33-15.176-13.336-20.95z" transform="translate(-79) translate(66.2 .645)"/>
            <path fill="#F4B9B2" d="M50.891 71.915s36.174-8.302 51.677 19.741c0 0-10.89 13.547-34.34 4.674-19.095-7.225-17.337-24.415-17.337-24.415z" transform="translate(-79) translate(66.2 .645)"/>
            <path fill="#C2D5DA" d="M121.791 118.6s-6.777-17.211-22.857-34.477c-5.135 14.383-4.518 29.994.495 44.98 0 0 13.967 2.2 22.362-10.503z" transform="translate(-79) translate(66.2 .645)"/>
            <path fill="#F4B9B2" d="M184.762 130.4s-4.173-.455-6.83-2.698c-2.297-1.939-2.142-4.326-.238-5.68 0 0 5.134-.97 10.375-.735 6.736.3 9.083 2.045 9.13 2.177 1.417 15.541-10.89 65.973-54.948 66.633 0 0-22.89-1.87-39.683-62.906 0 0 8.452.77 15.915-5.169 0 0 13.35 40.801 29.128 49.929 0 0 24.801-3.959 36.984-29.363-.95-6.158.167-12.188.167-12.188z" transform="translate(-79) translate(66.2 .645)"/>
            <path fill="#FFC7C0" d="M86.902 21.842S78.097 50.785 91.9 65.228c13.928 14.572 28.815-1.941 28.815-1.941s-10.592-17.982-5.69-41.053l-28.123-.392z" transform="translate(-79) translate(66.2 .645)"/>
            <path fill="#FE5D60" d="M134.48 6.559s9.636 28.336-45.49 23.86c-1.566 7.579-2.388 18.718 3.194 27.206 0 0 1.07.425 2.82.927.108-.367.264-.822.478-1.345.518-1.267 1.225-2.532 2.154-3.72 2.456-3.138 5.996-5.158 10.662-5.462l.106-.004h.032c.2-.003.471.006.806.035.5.042 1.041.12 1.615.24 1.598.337 3.192.953 4.69 1.922 2.665 1.725 4.707 4.37 5.854 8.002.054.172.088.345.104.516l6.79 12.5s-2.589 6.887-14.575 9.17c-9.386 1.787-24.371-1.77-31.34-15.137-7.43-14.246-4.81-29.531-1.849-38.901.378-4.377 2.28-11.894 10.795-13.165 0 0 17.235 6.601 17.4-7.414 7.774-8.332 21.46-7.314 25.755.77zm-25.948 46.263c-3.205.228-5.491 1.54-7.124 3.628-.639.816-1.132 1.698-1.492 2.578-.093.229-.167.43-.224.596 4.878.833 11.249 1.018 16.322-1.947-.787-1.506-1.825-2.621-3.068-3.425-.97-.628-2.02-1.034-3.076-1.257-.375-.079-.722-.128-1.03-.154-.14-.012-.244-.017-.308-.019z" transform="translate(-79) translate(66.2 .645)"/>
            <path fill="#DDEBEF" d="M98.934 83.958s2.003 49.215 28.729 100.243c0 0-30.074 42.011-97.247 38.492 0 0-24.753-58.825 18.275-153.747 0 0 18.66 24.69 50.243 15.012z" transform="translate(-79) translate(66.2 .645)"/>
            <path fill="#FE5D60" d="M78.49 112.723c11.284 0 20.444 9.535 20.444 21.281 0 11.744-9.16 21.28-20.443 21.28-11.283 0-20.443-9.536-20.443-21.28 0-11.746 9.16-21.28 20.443-21.28z" transform="translate(-79) translate(66.2 .645)"/>
            <path fill="#405C80" d="M103.993 33.395c.892 0 1.678.561 2.13 1.41h4.531c.421-.792 1.134-1.334 1.953-1.403l.177-.007h12.54c.54 0 .984.495 1.041 1.131l.006.139v2.54c0 .653-.409 1.193-.933 1.262l-.114.007h-.551v4.132c0 1.632-1.053 2.969-2.378 3.066l-.154.005h-9.457c-1.346 0-2.448-1.276-2.528-2.884l-.004-.187-.001-4.032h-3.727v4.032c0 1.695-1.134 3.071-2.531 3.071h-9.458c-1.397 0-2.532-1.376-2.532-3.07v-4.133h-.55c-.578 0-1.048-.569-1.048-1.27l-.001-.942-14.796 4.584c-.632.196-1.303-.159-1.498-.792-.196-.634.158-1.306.79-1.502l15.763-4.884c.063-.02.125-.034.188-.042.17-.146.377-.231.601-.231h12.54z" transform="translate(-79) translate(66.2 .645)"/>
            <path fill="#95AAC9" d="M102.926 34.986c1.267 0 2.297 1.032 2.297 2.301v4.601c0 1.27-1.03 2.3-2.297 2.3h-7.282c-1.267 0-2.296-1.03-2.296-2.3v-4.6c0-1.27 1.03-2.302 2.296-2.302zm18.205 0c1.267 0 2.296 1.032 2.296 2.301v4.601c0 1.27-1.029 2.3-2.296 2.3h-7.281c-1.268 0-2.296-1.03-2.296-2.3v-4.6c0-1.27 1.028-2.302 2.296-2.302h7.281z" transform="translate(-79) translate(66.2 .645)"/>
            <path fill="#F4B9B2" d="M76.49 34.625c2.569-1.103 5.774.62 7.154 3.845 1.38 3.226.415 6.739-2.152 7.843-2.568 1.102-5.774-.621-7.154-3.847-1.38-3.224-.415-6.738 2.153-7.841z" transform="translate(-79) translate(66.2 .645)"/>
            <path fill="#FFC7C0" d="M16.037 113.267l15.367 7.038s-10.712 32.663-6.838 48.06c0 0 44.134 8.672 99.95 4.778v-.01l24.17-5.355s11.636 5.457 18.58 11.137c0 0 1.15 2.446-1.71 1.832-2.86-.614-16.87-2.446-16.87-2.446-6.63 3.124-14.264 5.32-22.412 5.896-10.196 2.358-74.143 16.57-108.7 10.452-6.614-1.17-17.996-9.035-17.562-31.453v-.027c.024-.88.751-23.173 16.025-49.902z" transform="translate(-79) translate(66.2 .645)"/>
            <path fill="#F2F8F9" d="M7.585 113.267S28.55 76.424 48.691 68.946c4.602 29.398-3.551 54.135-13.006 62.994 0 0-21.733-.198-28.1-18.673z" transform="translate(-79) translate(66.2 .645)"/>
        </g>
        <g transform="translate(-79) matrix(-1 0 0 1 379.2 111.645)">
            <path fill="#97B2B8" d="M100 69.3h55.2c0-.895-.726-1.621-1.621-1.621H101.62c-.895 0-1.621.726-1.621 1.621z"/>
            <path fill="#DDEBEF" d="M101.09 69.222L85.674 3.94c-.356-2.038-2.22-3.535-4.408-3.535H6.068c-2.75 0-4.848 2.327-4.41 4.893l15.58 67.748c.349 2.046 2.217 3.549 4.409 3.549H164.53c1.916 0 3.47-1.59 3.47-3.553 0-1.963-1.554-3.82-3.47-3.82h-63.44z"/>
            <path fill="#97B2B8" d="M120.368 74.163h-3.137c-.68 0-1.231-.53-1.231-1.182v-.068c0-.652.551-1.181 1.231-1.181h3.137c.68 0 1.232.529 1.232 1.181v.068c0 .653-.552 1.182-1.232 1.182M110.768 74.163h-3.137c-.68 0-1.231-.53-1.231-1.182v-.068c0-.652.551-1.181 1.231-1.181h3.137c.68 0 1.232.529 1.232 1.181v.068c0 .653-.552 1.182-1.232 1.182"/>
            <path fill="#C2D5DA" d="M73.155.405H4.476C1.72.405-.38 2.732.058 5.298l15.608 67.748c.35 2.045 2.222 3.549 4.418 3.549H96.8L79.965 5.786c-.75-3.154-3.568-5.38-6.81-5.38z"/>
            <ellipse cx="46.4" cy="40.121" fill="#97B2B8" rx="6.4" ry="6.484"/>
        </g>
        <g transform="translate(-79) translate(185.2 189.645)">
            <path fill="#C2D5DA" d="M117.677 0H307.08c3.095 0 5.605 2.51 5.605 5.606 0 3.095-2.51 5.605-5.605 5.605H117.677c-3.096 0-5.605-2.51-5.605-5.605 0-3.096 2.51-5.606 5.605-5.606z"/>
            <rect width="140.89" height="11.211" fill="#F2F8F9" rx="5.606"/>
            <path fill="#6D8388" d="M109.67 200.931L116.074 200.931 116.074 11.142 109.67 11.142zM286.583 200.931L292.987 200.931 292.987 11.142 286.583 11.142zM23.215 200.931L29.619 200.931 29.619 11.142 23.215 11.142zM208.934 200.931L215.338 200.931 215.338 11.142 208.934 11.142z"/>
        </g>
        <path fill="#97B2B8" d="M34.987 201.686c-1.443.541-3.056-.176-3.604-1.602-.548-1.426.177-3.02 1.62-3.563 15.785-5.926 35.321-8.873 58.598-8.873 20.059-.108 37.472 3.342 52.214 10.378 2.794 1.334 4.095 4.557 2.996 7.426l-16.161 39.409c-.547 1.426-2.16 2.145-3.603 1.605s-2.17-2.135-1.624-3.561l16.162-39.409c.073-.191-.014-.406-.2-.495-13.93-6.648-30.505-9.933-49.769-9.829-22.66 0-41.538 2.848-56.63 8.514z" transform="translate(-79)"/>
        <g>
            <g>
                <path fill="#F2F8F9" d="M1.344 13.01L71.294 13.01 71.294 0.875 1.344 0.875z" transform="translate(-79) translate(384.2 151.645) translate(0 22.63)"/>
                <path fill="#F85843" d="M.786 12.135h71.526c.434 0 .784.347.784.776v.199c0 .428-.35.776-.784.776H.786c-.434 0-.786-.348-.786-.776v-.199c0-.429.352-.776.786-.776z" transform="translate(-79) translate(384.2 151.645) translate(0 22.63)"/>
                <path fill="#DDEBEF" d="M1.344 10.529L50.757 10.529 50.757 9.659 1.344 9.659zM43.077 6.943L71.295 6.943 71.295 6.305 43.077 6.305z" transform="translate(-79) translate(384.2 151.645) translate(0 22.63)"/>
                <path fill="#F85843" d="M.786 0h71.526c.434 0 .784.348.784.776v.2c0 .427-.35.775-.784.775H.786C.352 1.75 0 1.403 0 .975V.776C0 .348.352 0 .786 0z" transform="translate(-79) translate(384.2 151.645) translate(0 22.63)"/>
                <path fill="#DDEBEF" d="M1.344 4.516L36.928 4.516 36.928 3.645 1.344 3.645z" transform="translate(-79) translate(384.2 151.645) translate(0 22.63)"/>
            </g>
            <g>
                <path fill="#049AC6" d="M74.43 8.556c.342 0 .619.274.619.612v.521c0 .338-.277.612-.619.612H.62c-.343 0-.62-.274-.62-.612v-.521c0-.338.277-.612.62-.612h73.81zm0-8.52c.342 0 .619.274.619.613v.52c0 .339-.277.613-.619.613H.62c-.343 0-.62-.274-.62-.613V.65C0 .309.277.036.62.036h73.81z" transform="translate(-79) translate(384.2 151.645) translate(4.925 12.329)"/>
                <path fill="#DDEBEF" d="M0.62 8.556L10.438 8.556 10.438 1.781 0.62 1.781z" transform="translate(-79) translate(384.2 151.645) translate(4.925 12.329)"/>
                <path fill="#0EC8D6" d="M11.61 0h63.273c.649 0 1.173.519 1.173 1.16v7.982c0 .64-.524 1.16-1.173 1.16H11.61c-.648 0-1.172-.52-1.172-1.16V1.16c0-.641.524-1.16 1.172-1.16z" transform="translate(-79) translate(384.2 151.645) translate(4.925 12.329)"/>
            </g>
            <path fill="#7C99BE" d="M1.263 0h86.902c.647 0 1.173.519 1.173 1.16v10.225c0 .64-.526 1.16-1.173 1.16H1.263c-.647 0-1.173-.52-1.173-1.16V1.16C.09.519.616 0 1.263 0z" transform="translate(-79) translate(384.2 151.645)"/>
        </g>
    </g>
</svg>
