<?xml version="1.0" encoding="UTF-8"?>
<svg width="320px" height="251px" viewBox="0 0 320 251" version="1.1" xmlns="http://www.w3.org/2000/svg" xmlns:xlink="http://www.w3.org/1999/xlink">
    <title>footer-worker</title>
    <g id="Main" stroke="none" stroke-width="1" fill="none" fill-rule="evenodd">
        <g id="ASL.landing-2" transform="translate(30.000000, -4651.000000)">
            <g id="Group-20" transform="translate(0.000000, 4282.000000)">
                <g id="footer-worker" transform="translate(-30.000000, 369.000000)">
                    <path d="M155.01872,72.6632929 C155.01872,72.6632929 154.826623,73.847592 154.530421,75.6734822 L154.49071,75.6695137 C155.122624,75.7194181 155.739052,75.9840154 156.326007,76.2761642 C157.548373,76.884894 158.608889,77.8663473 159.246297,79.1046005 C160.523612,81.5873448 160.088016,84.9039087 158.193774,87.0071716 C156.730716,88.6319849 154.508509,89.4284117 152.354194,89.0876324 C151.902627,91.8667999 151.537439,94.1150904 151.407571,94.9113022 L151.373603,95.119757 C151.373603,95.78255 149.246576,96.3205819 146.627007,96.3205819 C144.006938,96.3205819 141.880412,95.78255 141.880412,95.119757 L138.235294,72.6632929 L155.01872,72.6632929 Z M154.172629,77.8625865 L154.163119,77.9375806 C153.731145,80.6002394 153.196876,83.8931142 152.710799,86.8880589 L152.674895,86.8824106 C152.701371,86.8865693 152.727846,86.890728 152.753822,86.8948867 C154.621589,87.1615633 156.585267,86.0751028 157.404506,84.3066153 C158.288186,82.3972518 157.803136,79.8573253 155.970837,78.6190722 C155.455315,78.2713008 154.877351,78.0087828 154.280905,77.886621 C154.237108,77.8778877 154.201916,77.8700142 154.172629,77.8625865 Z" id="Cup" fill="#DDEBEF"></path>
                    <path d="M146.547315,71.3845205 C151.135031,71.3845205 154.859335,72.1008478 154.859335,72.982986 C154.859335,73.8651242 151.135031,74.5814515 146.547315,74.5814515 C141.959598,74.5814515 138.235294,73.8651242 138.235294,72.982986 C138.235294,72.1008478 141.959598,71.3845205 146.547315,71.3845205 Z" id="Shape" fill="#97B2B8"></path>
                    <g id="Armchair" transform="translate(0.127877, 39.415211)">
                        <path d="M22.2173759,94.0558739 L22.2173759,87.3838292 C22.2173759,79.6681949 20.8222096,72.0161418 18.0992117,64.7969803 L2.85390398,24.3789026 C-0.6545132,15.0774519 4.04166835,4.69300223 13.343119,1.18458505 C15.4148634,0.403143126 17.6130074,0.0106556622 19.8271697,0.0268317028 L31.4664654,0.111865092 C43.4195681,0.199191066 53.9991006,7.86501969 57.8048582,19.1964141 L73.2965973,65.3220537 C75.6068145,72.2005743 76.7304734,79.4218747 76.6195209,86.6771375 L76.2264519,112.380197 C76.2263113,112.389389 76.2188196,112.396767 76.2096264,112.396767 L76.1930543,112.396767 L40.5582688,112.396767 C30.4288733,112.396767 22.2173759,104.185269 22.2173759,94.0558739 Z" id="Shape" fill="#DDEBEF"></path>
                        <path d="M28.8828133,98.3967667 L28.8828133,87.977625 C28.8828133,80.1708234 27.4544862,72.4298955 24.6683791,65.1371759 L7.07042321,19.0739945 C4.31101627,11.8511634 7.92933643,3.75896064 15.1521675,0.999553705 C16.7791532,0.377980846 18.5078368,0.0654512592 20.2494676,0.0780102145 L47.6971558,0.275936376 C53.6510221,0.318869897 58.9263877,4.12287304 60.8474572,9.7584617 L79.8980509,65.6446814 C82.2718774,72.6084637 83.4271893,79.9294148 83.3132133,87.2857948 L82.9244136,112.380187 C82.9242711,112.389385 82.9167739,112.396767 82.9075746,112.396767 L82.8909926,112.396767 L42.8828133,112.396767 C35.1508268,112.396767 28.8828133,106.128753 28.8828133,98.3967667 Z" id="Shape" fill="#C2D5DA"></path>
                        <g transform="translate(28.320904, 111.883539)" id="Chair">
                            <g>
                                <g>
                                    <path d="M47.3834469,9.98586251 C47.3834469,9.60453467 47.1989823,9.29505864 46.9716901,9.29505864 L43.6761056,9.29505864 C43.4485074,9.29505864 43.2640428,9.60453467 43.2640428,9.98586251 L43.2640428,37.9480225 C43.2640428,38.3293504 43.4485074,38.6388264 43.6761056,38.6388264 L46.9716901,38.6388264 C47.1989823,38.6388264 47.3834469,38.3293504 47.3834469,37.9480225 L47.3834469,9.98586251 Z" id="Shape" fill="#6D8388"></path>
                                    <path d="M37.8240989,0 L99.1460891,0 C102.972631,6.40250293e-15 106.074657,3.10202547 106.074657,6.92856781 C106.074657,10.7551102 102.972631,13.8571356 99.1460891,13.8571356 L37.8240989,13.8571356 C33.9975566,13.8571356 30.8955311,10.7551102 30.8955311,6.92856781 C30.8955311,3.10202547 33.9975566,7.02924424e-16 37.8240989,0 Z" id="Rectangle" fill="#C2D5DA"></path>
                                    <polygon id="Path" fill="#97B2B8" points="84.4210097 80.822462 84.4210097 84.5917569 45.3237453 76.2470641 6.22663454 84.5917569 6.22663454 80.822462 45.3237453 68.8451009"></polygon>
                                    <path d="M6.22663454,76.841153 C9.50722502,76.841153 12.1705228,79.495667 12.1705228,82.7650272 C12.1705228,86.0347979 9.50722502,88.6889013 6.22663454,88.6889013 C2.94640451,88.6889013 0.283158233,86.0347979 0.283158233,82.7650272 C0.283158233,79.495667 2.94640451,76.841153 6.22663454,76.841153 Z" id="Shape" fill="#6D8388"></path>
                                    <path d="M84.4210097,76.6063002 C81.010537,76.6063002 78.2419034,79.3660527 78.2419034,82.7650272 C78.2419034,86.1644284 81.010537,88.9237541 84.4210097,88.9237541 C87.8314823,88.9237541 90.6001159,86.1644284 90.6001159,82.7650272 C90.6001159,79.3660527 87.8314823,76.6063002 84.4210097,76.6063002 Z" id="Shape" fill="#6D8388"></path>
                                    <path d="M48.413298,38.451197 C48.413298,37.6076305 48.0441746,36.9230051 47.5896594,36.9230051 L43.0581331,36.9230051 C42.6033151,36.9230051 42.2341917,37.6076305 42.2341917,38.451197 L42.2341917,71.4594505 C42.2341917,72.3028485 42.6033151,72.9875301 43.0581331,72.9875301 L47.5896594,72.9875301 C47.5896594,72.9875301 48.413298,72.3028485 48.413298,71.4594505 L48.413298,38.451197 Z" id="Shape" fill="#97B2B8"></path>
                                    <path d="M7.44349333,0 L56.9221965,0 C60.7487389,3.0038506e-15 63.8507643,3.10202547 63.8507643,6.92856781 C63.8507643,10.7551102 60.7487389,13.8571356 56.9221965,13.8571356 L7.44349333,13.8571356 C3.61695099,13.8571356 0.514925519,10.7551102 0.514925519,6.92856781 C0.514925519,3.10202547 3.61695099,7.02924424e-16 7.44349333,0 Z" id="Rectangle" fill="#DDEBEF"></path>
                                </g>
                            </g>
                        </g>
                    </g>
                    <g id="Character" transform="translate(42.327366, 0.412653)">
                        <path d="M80.5809785,232.754396 C88.2033705,237.284755 94.9110755,239.046351 108.855584,238.191113 C108.855584,238.191113 111.613435,242.27909 106.815286,244.018631 C106.815286,244.018631 89.0429828,247.820455 76.3553388,236.865656 C76.3553388,236.865656 75.3865162,229.324746 77.858878,223.944113 L82.1054569,224.852518 C82.1054569,224.852518 79.8353374,229.003283 80.5809785,232.754396 Z" id="Shape" fill="#FFC7C0"></path>
                        <path d="M168.929226,227.189799 C176.916268,224.848373 183.681683,220.835567 191.942466,210.981478 C191.942466,210.981478 194.498074,211.317116 192.959296,216.613366 C192.959296,216.613366 189.053363,230.058706 170.095695,231.569354 L170.087013,231.551495 C167.050824,231.702299 163.248055,228.575434 161.080588,223.641737 L164.407884,221.35353 C164.407884,221.35353 165.850138,225.402054 168.929226,227.189799 Z" id="Shape" fill="#FFC7C0"></path>
                        <path d="M66.6078698,117.775421 C66.6078698,117.775421 110.118578,120.869792 137.348264,136.90249 C137.348264,136.90249 148.155463,188.212652 169.770881,222.246124 C169.770881,222.246124 167.665212,227.822387 160.647504,227.752837 C160.647504,227.752837 133.137435,204.688295 121.066733,147.590274 C121.066733,147.590274 58.8005997,145.340241 46.2820018,131.276641 C46.2820018,131.276641 60.7127093,128.745162 66.6078698,117.775421 Z" id="Shape" fill="#5C7594"></path>
                        <path d="M122.700504,154.745654 L130.114014,146.093493 C130.114014,146.093493 132.987797,157.552438 126.389895,167.926025 C125.078384,163.773418 123.839905,159.382349 122.700504,154.745654 Z" id="Shape" fill="#405C80"></path>
                        <path d="M53.6694658,120.254193 C53.6694658,120.254193 116.076556,125.316639 127.866877,139.38075 C127.866877,139.38075 132.638469,148.099947 123.094264,163.569753 C123.094264,163.569753 84.0747663,223.480034 81.8286504,228.824079 C75.4733374,230.580251 71.320219,228.797111 69.0220104,224.031617 C69.0220104,224.031617 75.3727269,188.040202 102.602414,152.318566 C102.602414,152.318566 37.2878345,158.155244 24.8790399,138.536412 L53.6694658,120.254193 Z" id="Shape" fill="#7C99BE"></path>
                        <path d="M193.787162,214.086339 C193.787162,214.086339 189.52424,225.424928 173.943918,233.862986 C173.943918,233.862986 172.575717,235.339605 174.57567,235.234139 C174.57567,235.234139 188.885338,231.015264 195.836143,215.668424 L193.787162,214.086339 Z" id="Shape" fill="#67576A"></path>
                        <path d="M108.304014,241.507366 C108.304014,241.507366 96.1138047,247.018794 77.3527614,241.386907 C77.3527614,241.386907 75.1301383,241.466633 76.7746342,242.95364 C76.7746342,242.95364 91.2472202,250.883764 108.668663,244.350942 L108.304014,241.507366 Z" id="Shape" fill="#67576A"></path>
                        <path d="M92.3580211,233.363752 C92.3580211,233.363752 109.434222,234.049917 111.579728,238.699916 C114.187939,244.351352 103.75305,249.818773 91.4632518,247.164174 C90.279419,242.115852 90.9070853,237.615428 92.3580211,233.363752 Z" id="Shape" fill="#FE5D60"></path>
                        <path d="M178.4004,219.113886 C178.4004,219.113886 189.744358,208.598961 194.085929,210.192304 C199.361595,212.128294 196.190577,222.313415 186.646883,228.501491 C182.664853,226.03674 180.190449,222.759942 178.4004,219.113886 Z" id="Shape" fill="#FE5D60"></path>
                        <path d="M54.7297061,19.8414301 C54.7297061,19.8414301 42.5190681,33.3948452 37.1152135,53.786886 C37.1152135,53.786886 45.3964254,62.2778555 57.6070633,56.6878266 C57.6070633,56.6878266 55.3614581,43.9956361 63.2565709,33.2367238 C63.2565709,33.2367238 63.4674954,23.532978 54.7297061,19.8414301 Z" id="Shape" fill="#F4B9B2"></path>
                        <path d="M32.5392247,45.9816213 C32.5392247,45.9816213 55.6683966,40.6730384 65.5808259,58.6037061 C65.5808259,58.6037061 58.6172537,67.2655901 43.6242511,61.5921507 C31.4151453,56.9723429 32.5392247,45.9816213 32.5392247,45.9816213 Z" id="Shape" fill="#F4B9B2"></path>
                        <path d="M77.8716458,75.8312706 C77.8716458,75.8312706 73.5382457,64.8267327 63.2570816,53.786886 C59.9737075,62.9835173 60.3684887,72.9646154 63.5737237,82.5465718 C63.5737237,82.5465718 72.5035411,83.9527783 77.8716458,75.8312706 Z" id="Shape" fill="#C2D5DA"></path>
                        <path d="M118.134219,83.3760699 C118.134219,83.3760699 115.466254,83.0849012 113.767622,81.6510618 C112.298812,80.4111644 112.39789,78.8847037 113.614919,78.0193852 C113.614919,78.0193852 116.897782,77.3991806 120.248571,77.5491146 C124.555414,77.7415213 126.056399,78.8565591 126.086021,78.9409929 C126.992026,88.878083 119.12347,121.123605 90.9530495,121.545262 C90.9530495,121.545262 76.3180568,120.349885 65.5808259,81.3240728 C65.5808259,81.3240728 70.9846805,81.8163474 75.7562724,78.0193852 C75.7562724,78.0193852 84.2923301,104.106869 94.3804447,109.943036 C94.3804447,109.943036 110.238084,107.412069 118.02748,91.1685416 C117.420242,87.2313681 118.134219,83.3760699 118.134219,83.3760699 Z" id="Shape" fill="#F4B9B2"></path>
                        <path d="M55.5642112,13.9653497 C55.5642112,13.9653497 49.9341107,32.4711907 58.7597426,41.7056893 C67.6650458,51.0230865 77.1832047,40.4647683 77.1832047,40.4647683 C77.1832047,40.4647683 70.4111498,28.9674441 73.5459064,14.2160925 L55.5642112,13.9653497 Z" id="Shape" fill="#FFC7C0"></path>
                        <path d="M85.98522,4.19354779 L85.9929102,4.21709268 C86.2254147,4.94424267 91.4068094,22.2511591 56.8993173,19.45012 C55.8975938,24.2951712 55.3719867,31.4175988 58.9410458,36.8443496 C58.9410458,36.8443496 59.6252018,37.1163816 60.7448038,37.4373925 C60.8130964,37.2037366 60.9129457,36.9121527 61.0497675,36.5776415 C61.3812778,35.7671432 61.8328819,34.9583969 62.4273048,34.198722 C63.997209,32.192378 66.2611646,30.90114 69.2440656,30.7066084 L69.311752,30.7036982 L69.3324442,30.7033819 C69.4597567,30.7020364 69.6336778,30.7079318 69.8480246,30.7260662 C70.1672687,30.7530753 70.5133973,30.8025591 70.880176,30.8798955 C71.9022802,31.0954093 72.9212498,31.4891128 73.8786334,32.1085425 C75.5833105,33.2114731 76.8888903,34.9026082 77.6223555,37.2252275 C77.6567974,37.3342926 77.6784537,37.444346 77.6881659,37.5537639 L82.0298714,45.5476828 C82.0298714,45.5476828 80.3746504,49.9510331 72.7108906,51.4099468 C66.7100124,52.5531292 57.1285252,50.2785339 52.6720433,41.731787 C47.9224502,32.623605 49.5971996,22.8513644 51.4903097,16.86015 C51.7314695,14.0625216 52.9478927,9.25480569 58.3924162,8.44184698 C58.3924162,8.44184698 69.412582,12.6625133 69.5177889,3.70127318 C74.4885589,-1.62573171 83.2396267,-0.974823908 85.98522,4.19354779 Z M69.3939199,33.7737922 C67.3448192,33.9191325 65.8828105,34.7588326 64.8387949,36.0930888 C64.4304287,36.6149825 64.1152884,37.1793452 63.8851692,37.741956 C63.825419,37.8880372 63.7779861,38.0164592 63.7417724,38.1229549 C66.8606885,38.6553055 70.9333644,38.7736569 74.1770391,36.8785311 L74.1197323,36.7685858 C73.6242832,35.8612763 72.9805716,35.1822925 72.2163732,34.6878541 C71.5954897,34.2861408 70.9240461,34.0267124 70.2491557,33.8844097 C70.0098936,33.8339606 69.7879227,33.8022268 69.5902043,33.7854992 C69.5014081,33.7779867 69.4348922,33.7747186 69.3939199,33.7737922 Z" id="Combined-Shape" fill="#FE5D60"></path>
                        <path d="M63.2570816,53.6814717 C63.2570816,53.6814717 64.5379499,85.1486678 81.6258973,117.775421 C81.6258973,117.775421 62.3970409,144.637138 19.4476068,142.386593 C19.4476068,142.386593 3.62096731,104.774664 31.1322103,44.0831403 C31.1322103,44.0831403 43.0634882,59.8691896 63.2570816,53.6814717 Z" id="Shape" fill="#DDEBEF"></path>
                        <path d="M50.1858922,72.0737109 C57.4002245,72.0737109 63.2570816,78.1703426 63.2570816,85.6803449 C63.2570816,93.1893237 57.4002245,99.2864672 50.1858922,99.2864672 C42.9720706,99.2864672 37.1152135,93.1893237 37.1152135,85.6803449 C37.1152135,78.1703426 42.9720706,72.0737109 50.1858922,72.0737109 Z" id="Shape" fill="#FE5D60"></path>
                        <path d="M66.4914273,21.3520275 C67.0620271,21.3520275 67.5642704,21.7109809 67.8526473,22.2528113 L70.7511149,22.2528113 C71.0154604,21.7561334 71.459513,21.413123 71.9711933,21.3594038 L72.1123349,21.3520275 L80.1305296,21.3520275 C80.4690046,21.3520275 80.7495457,21.6577482 80.793952,22.0539811 L80.8000744,22.1641271 L80.8000744,23.7878145 C80.8000744,24.1987257 80.5477396,24.538689 80.2212707,24.592496 L80.1305296,24.5999141 L79.7781376,24.5999141 L79.7781376,27.2419243 C79.7781376,28.2710699 79.1231724,29.1168701 78.2918367,29.1988773 L78.1591773,29.2053938 L72.1123349,29.2053938 C71.2637597,29.2053938 70.5663657,28.4110509 70.4987478,27.4028127 L70.4933746,27.2419243 L70.4926878,24.6630275 L68.1096878,24.6630275 L68.1103876,27.2419243 C68.1103876,28.3252355 67.3846644,29.2053938 66.4914273,29.2053938 L60.4445849,29.2053938 C59.5508371,29.2053938 58.8256246,28.3252355 58.8256246,27.2419243 L58.8256246,24.5999141 L58.4732326,24.5999141 C58.1039871,24.5999141 57.8036878,24.2360812 57.8036878,23.7878145 L57.8034134,23.1840275 L48.3430272,26.1163623 C47.938827,26.2416131 47.5098219,26.0148337 47.3848177,25.6098366 C47.2598134,25.2048394 47.4861465,24.7749885 47.8903467,24.6497378 L57.9687578,21.5267108 C58.0091111,21.5142064 58.0497116,21.5052107 58.0902323,21.4995507 C58.1980544,21.4063985 58.3304919,21.3520275 58.4732326,21.3520275 L66.4914273,21.3520275 Z" id="Combined-Shape" fill="#405C80"></path>
                        <path d="M65.8096254,22.3698385 C66.6196162,22.3698385 67.2779253,23.0294455 67.2779253,23.8410334 L67.2779253,23.8410334 L67.2779253,26.7829115 C67.2779253,27.5944994 66.6196162,28.2535947 65.8096254,28.2535947 L65.8096254,28.2535947 L61.1534546,28.2535947 C60.3434638,28.2535947 59.6856654,27.5944994 59.6856654,26.7829115 L59.6856654,26.7829115 L59.6856654,23.8410334 C59.6856654,23.0294455 60.3434638,22.3698385 61.1534546,22.3698385 L61.1534546,22.3698385 Z M77.4497969,22.3698385 C78.2597877,22.3698385 78.9175861,23.0294455 78.9175861,23.8410334 L78.9175861,26.7829115 C78.9175861,27.5944994 78.2597877,28.2535947 77.4497969,28.2535947 L72.7941368,28.2535947 C71.9836352,28.2535947 71.3258369,27.5944994 71.3258369,26.7829115 L71.3258369,23.8410334 C71.3258369,23.0294455 71.9836352,22.3698385 72.7941368,22.3698385 L77.4497969,22.3698385 Z" id="Combined-Shape" fill="#95AAC9"></path>
                        <path d="M48.9070668,22.1385411 C50.5490092,21.4333909 52.5985006,22.535124 53.480502,24.5973555 C54.3630141,26.659587 53.7460728,28.9060377 52.1046411,29.6116995 C50.4626987,30.3163379 48.4132073,29.2146048 47.5306951,27.1523733 C46.6486937,25.0906536 47.2656351,22.8436912 48.9070668,22.1385411 Z" id="Shape" fill="#F4B9B2"></path>
                        <path d="M10.2540571,72.4211687 L20.0793588,76.9212342 L20.0712691,76.9460399 C19.8091184,77.7521908 13.2796304,98.002439 15.7073999,107.650018 C15.7073999,107.650018 43.9263174,113.194822 79.6144448,110.704917 L79.613688,110.698846 L95.0678644,107.274928 C95.0678644,107.274928 102.507421,110.764346 106.94756,114.396023 C106.94756,114.396023 107.682476,115.959839 105.854634,115.56735 C104.025771,115.174861 95.0678644,114.003022 95.0678644,114.003022 C90.8294773,116.000768 85.9487003,117.404802 80.739218,117.773165 C74.2262321,119.279077 33.3336386,128.36761 11.2365158,124.455926 C7.0077608,123.707279 -0.270002093,118.679119 0.00772365575,104.345331 C0.00772365575,104.345331 0.288769039,89.8600736 10.2540571,72.4211687 Z" id="Combined-Shape" fill="#FFC7C0"></path>
                        <path d="M4.8500493,72.4211687 C4.8500493,72.4211687 18.2545811,48.8646517 31.1322103,44.0831403 C34.0749388,62.8796382 28.8615801,78.6963907 22.8162699,84.3606191 C22.8162699,84.3606191 8.92048326,84.2342243 4.8500493,72.4211687 Z" id="Shape" fill="#F2F8F9"></path>
                    </g>
                    <g id="Laptop" transform="translate(188.746803, 96.000889) scale(-1, 1) translate(-188.746803, -96.000889) translate(135.038363, 71.384521)">
                        <path d="M63.9386189,44.3094629 L99.2327366,44.3094629 C99.2327366,43.7370316 98.7686893,43.2729843 98.1962579,43.2729843 L64.9750976,43.2729843 C64.4026662,43.2729843 63.9386189,43.7370316 63.9386189,44.3094629 L63.9386189,44.3094629 L63.9386189,44.3094629 Z" id="Shape" fill="#97B2B8"></path>
                        <path d="M64.6358279,44.2593107 L54.7785801,2.51933419 C54.5513587,1.21591517 53.3589898,0.259119666 51.9605363,0.259119666 L3.87972167,0.259119666 C2.12100864,0.259119666 0.780059892,1.74683164 1.0601236,3.38764362 L11.0211907,46.7048084 C11.2446822,48.0126836 12.4392269,48.9736169 13.8407888,48.9736169 L105.198129,48.9736169 C106.423135,48.9736169 107.41688,47.9566636 107.41688,46.7019438 C107.41688,45.4472239 106.423135,44.2593107 105.198129,44.2593107 L64.6358279,44.2593107 Z" id="Shape" fill="#DDEBEF"></path>
                        <path d="M76.9618586,47.4188989 L74.955992,47.4188989 C74.5211258,47.4188989 74.168798,47.0804026 74.168798,46.6632687 L74.168798,46.6198111 C74.168798,46.2026772 74.5211258,45.8641809 74.955992,45.8641809 L76.9618586,45.8641809 C77.3967248,45.8641809 77.7493606,46.2026772 77.7493606,46.6198111 L77.7493606,46.6632687 C77.7493606,47.0804026 77.3967248,47.4188989 76.9618586,47.4188989" id="Shape" fill="#97B2B8"></path>
                        <path d="M70.8237512,47.4188989 L68.8178846,47.4188989 C68.3830184,47.4188989 68.0306905,47.0804026 68.0306905,46.6632687 L68.0306905,46.6198111 C68.0306905,46.2023816 68.3830184,45.8641809 68.8178846,45.8641809 L70.8237512,45.8641809 C71.2586174,45.8641809 71.6112532,46.2023816 71.6112532,46.6198111 L71.6112532,46.6632687 C71.6112532,47.0804026 71.2586174,47.4188989 70.8237512,47.4188989" id="Shape" fill="#97B2B8"></path>
                        <path d="M44.7798344,0.259119666 L2.86199419,0.259119666 L2.86199419,0.259119666 C1.10002414,0.259119666 -0.243407953,1.74683164 0.0371744109,3.38732532 L10.0166887,46.7048084 C10.2402827,48.0123653 11.4370396,48.9736169 12.8415085,48.9736169 L61.8925831,48.9736169 L51.590007,5.63999978 C50.8400592,2.48564751 48.0221114,0.259119666 44.7798344,0.259119666 Z" id="Shape" fill="#C2D5DA"></path>
                        <ellipse id="Oval" fill="#97B2B8" cx="29.6675192" cy="25.652847" rx="4.09207161" ry="4.14591466"></ellipse>
                    </g>
                    <g id="Table" transform="translate(118.414322, 121.256643)">
                        <path d="M75.2411694,0 L196.341813,0 C198.321273,-7.02495901e-15 199.925942,1.60466919 199.925942,3.58412896 C199.925942,5.56358872 198.321273,7.16825791 196.341813,7.16825791 L75.2411694,7.16825791 C73.2617096,7.16825791 71.6570404,5.56358872 71.6570404,3.58412896 C71.6570404,1.60466919 73.2617096,3.6362086e-16 75.2411694,0 Z" id="Rectangle" fill="#C2D5DA"></path>
                        <rect id="Rectangle" fill="#F2F8F9" x="0" y="0" width="90.0831366" height="7.16825791" rx="3.58412896"></rect>
                        <polygon id="Shape" fill="#6D8388" points="70.1215324 128.472232 74.2162205 128.472232 74.2162205 7.12386592 70.1215324 7.12386592"></polygon>
                        <polygon id="Shape" fill="#6D8388" points="183.237289 128.472232 187.331977 128.472232 187.331977 7.12386592 183.237289 7.12386592"></polygon>
                        <polygon id="Shape" fill="#6D8388" points="14.8432441 128.472232 18.9379321 128.472232 18.9379321 7.12386592 14.8432441 7.12386592"></polygon>
                        <polygon id="Shape" fill="#6D8388" points="133.589197 128.472232 137.683885 128.472232 137.683885 7.12386592 133.589197 7.12386592"></polygon>
                    </g>
                    <path d="M22.3701277,128.955137 C21.4477316,129.301419 20.4160106,128.842955 20.0657143,127.931129 C19.715418,127.019302 20.1791965,125.999404 21.1015926,125.653122 C31.1946847,121.864014 43.6855667,119.979421 58.5682698,119.979448 C71.393671,119.910277 82.5272533,122.116654 91.9530866,126.615189 C93.7398666,127.467948 94.5714568,129.528889 93.8689072,131.363202 L83.5355742,156.560458 C83.1862075,157.472633 82.1549543,157.932124 81.2322058,157.586761 C80.3094572,157.241397 79.8446393,156.221962 80.1940061,155.309787 L90.527339,130.112531 C90.5741754,129.990244 90.5187355,129.852847 90.3996206,129.795998 C81.4934962,125.545498 70.8948558,123.445132 58.5780166,123.511533 C44.0897897,123.511533 32.019234,125.332708 22.3701277,128.955137 Z" id="Path" fill="#97B2B8"></path>
                    <g id="Books" transform="translate(245.652174, 96.959968)">
                        <g id="Book" transform="translate(0.000000, 14.469335)">
                            <polygon id="Shape" fill="#F2F8F9" points="0.859061016 8.31827945 45.5846958 8.31827945 45.5846958 0.559514814 0.859061016 0.559514814"></polygon>
                            <path d="M0.502489039,7.75881545 L46.2351571,7.75881545 C46.512605,7.75881545 46.7366186,7.98087337 46.7366186,8.25526988 L46.7366186,8.3823053 C46.7366186,8.65619367 46.512605,8.87875973 46.2351571,8.87875973 L0.502489039,8.87875973 C0.225041103,8.87875973 -1.86916613e-12,8.65619367 -1.86916613e-12,8.3823053 L-1.86916613e-12,8.25526988 C-1.86916613e-12,7.98087337 0.225041103,7.75881545 0.502489039,7.75881545 Z" id="Shape" fill="#F85843"></path>
                            <polygon id="Shape" fill="#DDEBEF" points="0.859061016 6.73236924 32.4531878 6.73236924 32.4531878 6.17554757 0.859061016 6.17554757"></polygon>
                            <polygon id="Shape" fill="#DDEBEF" points="27.5428731 4.43912579 45.5851069 4.43912579 45.5851069 4.03159616 27.5428731 4.03159616"></polygon>
                            <path d="M0.502489039,3.32284705e-13 L46.2351571,3.32284705e-13 C46.512605,3.32284705e-13 46.7366186,0.22256606 46.7366186,0.49645443 L46.7366186,0.623489852 C46.7366186,0.897378223 46.512605,1.11943614 46.2351571,1.11943614 L0.502489039,1.11943614 C0.225041103,1.11943614 -1.86916613e-12,0.897378223 -1.86916613e-12,0.623489852 L-1.86916613e-12,0.49645443 C-1.86916613e-12,0.22256606 0.225041103,3.32284705e-13 0.502489039,3.32284705e-13 Z" id="Shape" fill="#F85843"></path>
                            <polygon id="Shape" fill="#DDEBEF" points="0.859574808 2.88776922 23.6114873 2.88776922 23.6114873 2.33054104 0.859574808 2.33054104"></polygon>
                        </g>
                        <g id="Book" transform="translate(3.149034, 7.882802)">
                            <path d="M47.5895141,5.47065342 C47.8083897,5.47065342 47.9851343,5.64596231 47.9851343,5.86192252 L47.9851343,6.19526347 C47.9851343,6.41122369 47.8083897,6.58653257 47.5895141,6.58653257 L0.396133997,6.58653257 C0.177258403,6.58653257 -3.32970719e-12,6.41122369 -3.32970719e-12,6.19526347 L-3.32970719e-12,5.86192252 C-3.32970719e-12,5.64596231 0.177258403,5.47065342 0.396133997,5.47065342 L47.5895141,5.47065342 Z M47.5895141,0.022866376 C47.8083897,0.022866376 47.9851343,0.198175259 47.9851343,0.414643618 L47.9851343,0.747476424 C47.9851343,0.963944784 47.8083897,1.13925367 47.5895141,1.13925367 L0.396133997,1.13925367 C0.177258403,1.13925367 -3.32970719e-12,0.963944784 -3.32970719e-12,0.747476424 L-3.32970719e-12,0.414643618 C-3.32970719e-12,0.198175259 0.177258403,0.022866376 0.396133997,0.022866376 L47.5895141,0.022866376 Z" id="Combined-Shape" fill="#049AC6"></path>
                            <polygon id="Shape" fill="#DDEBEF" points="0.396133997 5.47065342 6.67395871 5.47065342 6.67395871 1.1389996 0.396133997 1.1389996"></polygon>
                            <path d="M7.42327366,-1.15989364e-13 L47.879293,-1.15989364e-13 C48.2939235,-1.15989364e-13 48.62943,0.331816523 48.62943,0.741378724 L48.62943,5.84515385 C48.62943,6.25471605 48.2939235,6.58653257 47.879293,6.58653257 L7.42327366,6.58653257 C7.00915692,6.58653257 6.67365044,6.25471605 6.67365044,5.84515385 L6.67365044,0.741378724 C6.67365044,0.331816523 7.00915692,-1.15989364e-13 7.42327366,-1.15989364e-13 Z" id="Shape" fill="#0EC8D6"></path>
                        </g>
                        <path d="M0.807681768,0 L56.371255,0 C56.7853718,0 57.121392,0.331816523 57.121392,0.741378724 L57.121392,7.27912969 C57.121392,7.6886919 56.7853718,8.02050842 56.371255,8.02050842 L0.807681768,8.02050842 C0.393565035,8.02050842 0.057544757,7.6886919 0.057544757,7.27912969 L0.057544757,0.741378724 C0.057544757,0.331816523 0.393565035,0 0.807681768,0 Z" id="Shape" fill="#7C99BE"></path>
                    </g>
                </g>
            </g>
        </g>
    </g>
</svg>