<svg xmlns="http://www.w3.org/2000/svg" width="428" height="449" viewBox="0 0 428 449">
    <g fill="none" fill-rule="evenodd">
        <g>
            <g>
                <path fill="#343839" d="M82.886 42.49c0 23.272-18.413 42.138-41.126 42.138C19.046 84.628.634 65.762.634 42.489.634 19.217 19.046.351 41.76.351c22.713 0 41.126 18.866 41.126 42.138" transform="translate(1) translate(28.59 235.396) translate(90.738 127.514)"/>
                <path fill="#C2D5DA" d="M68.18 42.49c0 14.95-11.83 27.07-26.42 27.07-14.591 0-26.42-12.12-26.42-27.07 0-14.951 11.829-27.07 26.42-27.07 14.59 0 26.42 12.119 26.42 27.07" transform="translate(1) translate(28.59 235.396) translate(90.738 127.514)"/>
                <path fill="#97B2B8" d="M60.531 42.49c0 10.62-8.403 19.232-18.77 19.232-10.367 0-18.772-8.611-18.772-19.233s8.405-19.232 18.771-19.232c10.368 0 18.771 8.61 18.771 19.232" transform="translate(1) translate(28.59 235.396) translate(90.738 127.514)"/>
                <path fill="#343839" d="M48.952 42.49c0 4.069-3.22 7.368-7.192 7.368s-7.192-3.3-7.192-7.369c0-4.07 3.22-7.368 7.192-7.368s7.192 3.298 7.192 7.368" transform="translate(1) translate(28.59 235.396) translate(90.738 127.514)"/>
            </g>
            <g>
                <path fill="#343839" d="M82.19 42.49c0 23.272-18.259 42.138-40.78 42.138C18.885 84.628.628 65.762.628 42.489.629 19.217 18.886.351 41.409.351c22.522 0 40.78 18.866 40.78 42.138" transform="translate(1) translate(28.59 235.396) translate(314.094 127.514)"/>
                <path fill="#C2D5DA" d="M67.607 42.49c0 14.95-11.73 27.07-26.198 27.07-14.469 0-26.197-12.12-26.197-27.07 0-14.951 11.728-27.07 26.197-27.07 14.468 0 26.198 12.119 26.198 27.07" transform="translate(1) translate(28.59 235.396) translate(314.094 127.514)"/>
                <path fill="#97B2B8" d="M60.022 42.49c0 10.62-8.332 19.232-18.613 19.232-10.28 0-18.613-8.611-18.613-19.233S31.13 23.257 41.41 23.257c10.28 0 18.613 8.61 18.613 19.232" transform="translate(1) translate(28.59 235.396) translate(314.094 127.514)"/>
                <path fill="#343839" d="M48.54 42.49c0 4.069-3.192 7.368-7.13 7.368-3.94 0-7.132-3.3-7.132-7.369 0-4.07 3.193-7.368 7.131-7.368 3.939 0 7.132 3.298 7.132 7.368" transform="translate(1) translate(28.59 235.396) translate(314.094 127.514)"/>
            </g>
            <g>
                <path fill="#F85843" d="M315.76.583c7.612 0 13.783 6.155 13.783 13.748v8.775c0 7.593-6.17 13.749-13.783 13.749h-.767c51.148 90.335-22.843 138.132-22.843 138.132h-99.502l.017-.01c-2.016-.097-10.207-1.122-12.467-11.266v-11.92H50.047s-4.054-34.664 22.69-64.768h137.815c-4.391 4.326-20.026 34.21-5.486 58.52h54.492c33.623-26.216 31.72-82.87 27.865-113.201-2.223-2.437-3.577-5.679-3.577-9.236v-8.775c0-7.593 6.17-13.748 13.783-13.748h18.13z" transform="translate(1) translate(28.59 235.396) translate(0 9.755)"/>
                <path fill="#F85843" d="M390.42 124.56c3.56-2.888 4.001-8.19.903-11.564-13.715-14.942-36.062-19.993-55.422-10.94-23.59 11.028-33.888 38.852-23.31 62.483h14.14c2.588-14.764 12.103-28.078 26.743-34.923 9.793-4.58 20.35-5.545 30.167-3.45 2.391.509 4.883-.067 6.78-1.606" transform="translate(1) translate(28.59 235.396) translate(0 9.755)"/>
                <path fill="#E8361F" d="M366.156 114.622c-23.547 0-44.467 12.274-57.704 31.281.098 6.252 1.43 12.582 4.14 18.636h14.14c2.587-14.764 12.101-28.078 26.741-34.923 9.794-4.58 20.35-5.545 30.168-3.45 2.39.51 4.883-.067 6.779-1.606 1.4-1.136 2.31-2.645 2.719-4.264-8.34-3.657-17.446-5.674-26.983-5.674" transform="translate(1) translate(28.59 235.396) translate(0 9.755)"/>
                <path fill="#FF9783" d="M270.227 31.688c-3.182.636-6.306-1.442-6.943-4.616l-.013-.063c-.637-3.174 1.445-6.29 4.627-6.926l35.31-7.05c3.181-.635 6.307 1.443 6.944 4.617l.012.062c.636 3.175-1.445 6.29-4.628 6.926l-35.31 7.05z" transform="translate(1) translate(28.59 235.396) translate(0 9.755)"/>
                <path fill="#FF6554" d="M275.275 25.855c0 3.34-2.714 6.048-6.062 6.048-3.349 0-6.063-2.707-6.063-6.048 0-3.34 2.714-6.047 6.063-6.047 3.348 0 6.062 2.707 6.062 6.047" transform="translate(1) translate(28.59 235.396) translate(0 9.755)"/>
                <path fill="#E8361F" d="M78.784 159.644c0-30.511 23.938-55.243 53.468-55.243 29.53 0 53.468 24.732 53.468 55.243H78.784zM0 86.998V75.824h100.816v-5.651c.739-3.536 3.719-6.195 7.1-6.317l.243-.004h95.123c3.48 0 6.585 2.7 7.341 6.321v16.825H0z" transform="translate(1) translate(28.59 235.396) translate(0 9.755)"/>
            </g>
            <path fill="#FFEB8F" d="M318.98 46.685c6.342-1.142 11.168-6.824 11.168-13.68v-8.873c0-6.855-4.826-12.538-11.168-13.68v36.233z" transform="translate(1) translate(28.59 235.396)"/>
            <g>
                <path fill="#FFEB8F" d="M0.419 85.717L91.351 85.717 91.351 0.414 0.419 0.414z" transform="translate(1) translate(28.59 235.396) translate(4.188)"/>
                <path fill="#FF9E14" d="M90.334 1.59c.264.28.25.72-.03.984L46.867 43.343l43.398 40.422c.282.263.297.704.034.985-.263.282-.704.297-.986.034L45.848 44.3 2.513 84.974c-.281.263-.723.25-.987-.03s-.25-.722.03-.986l43.269-40.612L1.29 2.796c-.281-.262-.297-.703-.034-.984s.705-.297.987-.034L45.845 42.39 89.347 1.559c.281-.264.723-.25.987.03z" transform="translate(1) translate(28.59 235.396) translate(4.188)"/>
            </g>
        </g>
        <g>
            <path fill="#F2F8F9" d="M23.129 73.56s17.417-21.039 43.341-2.427c0 0 3.834 28.147 22.273 61.167 7.043 12.615 14.003 11.623 14.946 16.182 1.659 8.008 5.774 8.44 11.63 13.21 0 0 2.654 65.997-62.199 61.952 0 0-61.586-66.33-29.991-150.084z" transform="translate(1) rotate(10 25.393 350.175)"/>
            <path fill="#5C7594" d="M60.837 65.97l7.623 4.331s14.72 57.484 42.624 76.943c14.846-18.027 20.034-50.087 20.034-50.087 7.22 3.32 14.25.264 14.25.264 9.895 56.011-13.326 68.062-13.326 68.062-1.84.69-3.533 1.155-5.091 1.43-2.079 4.128-6.472 6.023-11.617 6.788-32.778-9.306-59.453-60.92-54.497-107.73z" transform="translate(1) rotate(10 25.393 350.175)"/>
            <path fill="#FFC7C0" d="M265.149 188.567s6.962 7.415 14.654 8.684c0 0-1.915 7.853-10.29 7.08 0 0-4.018-1.811-10.585-7.666l6.22-8.098z" transform="translate(1) rotate(10 25.393 350.175)"/>
            <path fill="#405C80" d="M91.77 197.23s45.004-102.732 74.75-99.797c33.007 3.257 103.894 93.529 103.894 93.529s-.822 10.3-8.543 9.42c0 0-58.453-27.165-90.293-71.286L111.7 220.702s-19.857-1.287-19.93-23.473z" transform="translate(1) rotate(10 25.393 350.175)"/>
            <path fill="#FFC7C0" d="M69.704 25.868s-11.908 20.52-9.968 46.943c0 0 1.114 15.164-9.518 11.22 0 0-10.966-3.607-8.81-20.585 2.93-23.09 14.739-45.94 14.739-45.94l13.557 8.362z" transform="translate(1) rotate(10 25.393 350.175)"/>
            <path fill="#FFC7C0" d="M61.557 10.65S73.973 22.92 91.83 20.755c0 0-8.769 22.89 2.173 46.857-22.139 10.084-43.971-8.053-32.445-56.964zM177.602 291.283s-2.375 9.885.792 17.002c0 0-7.62 2.717-11.578-4.695 0 0-.693-4.35.594-13.048l10.192.741z" transform="translate(1) rotate(10 25.393 350.175)"/>
            <path fill="#F2F8F9" d="M265.664 205.803c6.294-3.08 10.6-7.884 11.045-16.033l35.783-16.986c2.61-1.63 7.916 2.202 5.24 6.998l-38.251 40.865s-10.359-.566-13.817-14.844z" transform="translate(1) rotate(10 25.393 350.175)"/>
            <path fill="#405C80" d="M279.369 219.888c-.558.64-.493 1.611.147 2.168l2.317 2.024c.64.558 1.612.492 2.171-.147l38.805-44.365c.559-.638.493-1.61-.147-2.169l-2.316-2.022c-.64-.558-1.613-.492-2.172.146l-38.805 44.365z" transform="translate(1) rotate(10 25.393 350.175)"/>
            <path fill="#FF6554" d="M57.542 1.262C71.148-4.225 68.076 10.045 84.17 8.54c15.915-1.489 12.496 18.218 12.353 19.007l-.004.025c-7.03 5.112-22.848 6.134-32.465-3.138-3.3 8.208-3.611 14.256-3.611 14.256-5.306 1.872-9.567-.731-12.121-5.6-.661-20.296 9.132-31.828 9.132-31.828l.072.074zM58.373 40.475S68.676 63.614 91.52 56.223c0 0 4.915 11.858 14.261 19.83 0 0-13.252 13.18-32.907 2.42-8.071-4.42-16.99-15.652-14.5-37.998z" transform="translate(1) rotate(10 25.393 350.175)"/>
            <path fill="#7C99BE" d="M71.216 194.874c-4.26 15.97 2.504 24.573 10.649 29.054 0 0 51.275-8.305 81.052-47.911-7.907 47.646-8.62 69.96 1.767 122.349 0 0 7.16 6.85 15.072 0 0 0 21.65-90.474 11.328-148.624-.956-5.388-4.59-9.927-9.424-12.501-4.834-2.573-10.327-2.163-15.644-.845-26.136 6.48-94.8 58.478-94.8 58.478z" transform="translate(1) rotate(10 25.393 350.175)"/>
            <path fill="#5C7594" d="M23.11 72.395s-37.348 77.46 7.462 160.883c0 0 50.637 14.851 65.947-35.222 0 0-48.352-27.793-57.984-134.61-7.09 2.47-12.151 5.473-15.424 8.95z" transform="translate(1) rotate(10 25.393 350.175)"/>
            <g>
                <path fill="#C2D5DA" d="M.08 157.481h23.172c0 1.41-1.143 2.552-2.552 2.552H2.633c-1.41 0-2.553-1.142-2.553-2.552z" transform="translate(1) rotate(10 25.393 350.175) translate(115.786 4.178)"/>
                <path fill="#C2D5DA" d="M87.886 94.982l-64.69 64.392c-.71.707-1.859.705-2.566-.004-.34-.34-.53-.8-.53-1.28l64.007-63.935H81.83V0h5.839c.921 0 1.668.746 1.668 1.666V92.49c0 1.121-1.096 2.14-1.45 2.493z" transform="translate(1) rotate(10 25.393 350.175) translate(115.786 4.178)"/>
                <path fill="#DDEBEF" d="M83 0H69.145c-2.209 0-4 1.79-4 4v88.365H86V3c0-1.657-1.344-3-3-3z" transform="translate(1) rotate(10 25.393 350.175) translate(115.786 4.178)"/>
                <path fill="#F2F8F9" d="M81.497 2.5h-11.85c-1.104 0-2 .895-2 2v83.49c0 1.104.896 2 2 2h11.85c1.105 0 2-.896 2-2V4.5c0-1.105-.895-2-2-2z" transform="translate(1) rotate(10 25.393 350.175) translate(115.786 4.178)"/>
                <path fill="#DDEBEF" d="M18.86 158.09H1.24c-.553 0-1-.447-1-1 0-.266.106-.522.296-.71l64.61-64.015H86l-65.021 64.85c-.563.56-1.325.876-2.119.876z" transform="translate(1) rotate(10 25.393 350.175) translate(115.786 4.178)"/>
                <path fill="#97B2B8" d="M56.973 117.512c.412 0 .746.334.746.746 0 .197-.078.386-.217.526l-.82.823c-.286.287-.675.449-1.081.449H41.003c-.412 0-.745-.334-.745-.745 0-.198.078-.387.218-.527l.822-.824c.286-.287.675-.448 1.08-.448h14.595zm4.171-4.166c.412 0 .746.334.746.746 0 .197-.078.386-.217.526l-.82.822c-.286.288-.675.45-1.081.45H45.174c-.412 0-.745-.334-.745-.746 0-.197.078-.386.217-.526l.823-.824c.286-.287.675-.448 1.08-.448h14.595zm4.545-4.166c.412 0 .745.333.745.745 0 .198-.078.387-.217.527l-.82.822c-.286.288-.675.45-1.08.45H49.717c-.411 0-.745-.334-.745-.746 0-.197.078-.387.218-.526l.822-.824c.287-.287.675-.448 1.08-.448H65.69zm3.797-4.167c.412 0 .746.334.746.746 0 .197-.079.387-.218.526l-.819.823c-.286.288-.676.45-1.082.45H53.516c-.412 0-.746-.334-.746-.746 0-.197.079-.387.218-.527l.823-.824c.286-.286.675-.448 1.08-.448h14.595zm4.17-4.166c.413 0 .746.334.746.746 0 .197-.078.386-.217.526l-.819.823c-.286.288-.676.45-1.082.45H57.686c-.411 0-.745-.334-.745-.746 0-.198.078-.387.218-.527l.822-.824c.287-.287.675-.448 1.08-.448h14.596zm4.545-4.192c.412 0 .746.334.746.746 0 .197-.078.386-.217.526l-.82.823c-.286.287-.675.45-1.081.45H62.23c-.412 0-.746-.335-.746-.746 0-.198.079-.387.218-.527l.823-.824c.286-.287.675-.448 1.08-.448h14.595z" transform="translate(1) rotate(10 25.393 350.175) translate(115.786 4.178)"/>
            </g>
            <path fill="#FFC7C0" d="M105.781 170.507c2.314-3.886 11.142-15.438 16.828-19.208 0 0 16.602-.203 16.742-.178 1.69.3 1.045 1.965-.01 2.136l-14.763 1.486s-7.564 22.915-17.966 22.407l-.83-6.643z" transform="translate(1) rotate(10 25.393 350.175)"/>
            <path fill="#7C99BE" d="M23.42 72.198s13.952 19.71 11.898 92.197c0 0 27.98 5.517 70.437.89 0 0 5.91 8.509 1.648 17.546 0 0-59.715 20.429-101.117 7.178 0 0-22.311-76.146 17.133-117.811z" transform="translate(1) rotate(10 25.393 350.175)"/>
            <path fill="#FFF" d="M164.243 298.366c4.304 5.42 9.853 8.56 17.823 7.27l23.955 30.924c2.126 2.172-.46 8.098-5.657 6.527l-47.554-28.27s-1.636-10.107 11.433-16.451z" transform="translate(1) rotate(10 25.393 350.175)"/>
            <path fill="#405C80" d="M153.52 314.55c-.735-.404-1.66-.136-2.066.598l-1.465 2.66c-.405.735-.136 1.66.599 2.064l51.052 28.066c.735.404 1.661.136 2.066-.598l1.465-2.661c.405-.734.137-1.658-.598-2.062L153.52 314.55z" transform="translate(1) rotate(10 25.393 350.175)"/>
            <path fill="#FFC7C0" d="M60.354 45.696c-3.094.602-8.702-2.086-10.49-7.877-.466-1.511-.374-3.134.485-4.46.883-1.351 2.606-2.74 5.08-1.538 5.32 2.583 8.448 10.266 4.925 13.875z" transform="translate(1) rotate(10 25.393 350.175)"/>
            <g>
                <path fill="#DDEBEF" d="M1.582 6.435c-.019-.067-.029-.133-.029-.2C1.553 4.56 7.26 3.2 14.285 3.2c7.027 0 12.732 1.36 12.732 3.035 0 .176-.063.348-.184.515-2.894 21.286-4.34 31.941-4.34 31.965 0 1.405-3.737 2.547-8.34 2.547s-8.34-1.142-8.34-2.547c0-.097-1.41-10.857-4.231-32.28z" transform="translate(1) rotate(10 25.393 350.175) translate(110.147 63.178)"/>
                <path fill="#5C5EB7" d="M28.572 6.4c0 1.767-6.402 3.201-14.287 3.201C6.401 9.601 0 8.167 0 6.401V3.2h28.572v3.2z" transform="translate(1) rotate(10 25.393 350.175) translate(110.147 63.178)"/>
                <path fill="#8284D3" d="M14.285 0c7.885 0 14.287 1.434 14.287 3.2 0 1.767-6.402 3.2-14.287 3.2C6.401 6.4 0 4.968 0 3.2 0 1.434 6.4 0 14.285 0z" transform="translate(1) rotate(10 25.393 350.175) translate(110.147 63.178)"/>
                <path fill="#FFF" d="M14.285 13.982c4.559 0 8.26 3.696 8.26 8.249 0 4.553-3.701 8.25-8.26 8.25-4.557 0-8.258-3.697-8.258-8.25s3.701-8.25 8.258-8.25z" transform="translate(1) rotate(10 25.393 350.175) translate(110.147 63.178)"/>
            </g>
            <path fill="#FFC7C0" d="M128.653 71.436c-.851-1.608-.007-3.52 1.916-3.152 10.99 2.105 19.239 7.143 19.239 7.143.07.336.47 10.888-6.374 22.749 0 0-3.758 1.697-8.491.305 0 0 .858-6.663 1.069-14.538-5.233-2.799-12.862-5.46-12.862-5.46-1.5-1.51-1.01-3.828.748-3.943-1.47-1.722-.65-4.247 1.566-3.823 1.085.208 2.15.45 3.19.72z" transform="translate(1) rotate(10 25.393 350.175)"/>
        </g>
    </g>
</svg>
