<svg xmlns="http://www.w3.org/2000/svg" viewBox="0 0 79 79"><title>Icono_home_Artboard 1 copy 6</title><path d="M45.24,1.53a.81.81,0,0,0,.58.94,33.56,33.56,0,0,1,13.42,6,.64.64,0,0,0,.38.13.69.69,0,0,0,.6-.37A.89.89,0,0,0,60,7.1,34.89,34.89,0,0,0,46.06.87h-.12A.75.75,0,0,0,45.24,1.53Z" style="fill:#555464;fill-rule:evenodd"/><path d="M34.92.51a37.54,37.54,0,0,0-4.13.74.72.72,0,0,0,.16,1.41l.16,0a36.07,36.07,0,0,1,4-.71A.72.72,0,0,0,35,.5Z" style="fill:#555464;fill-rule:evenodd"/><path d="M26.53,2.15a37.49,37.49,0,0,0-12,6.68.72.72,0,0,0-.1,1,.7.7,0,0,0,1,.1A36,36,0,0,1,27,3.51a.72.72,0,0,0,.45-.9.71.71,0,0,0-.67-.49A.68.68,0,0,0,26.53,2.15Z" style="fill:#555464;fill-rule:evenodd"/><path d="M6.23,18.19a20.64,20.64,0,0,0-1.79,3.37.71.71,0,0,0,.36.95.69.69,0,0,0,.29.06.71.71,0,0,0,.65-.42,19.51,19.51,0,0,1,1.7-3.2.71.71,0,0,0-.6-1.09A.71.71,0,0,0,6.23,18.19Z" style="fill:#555464;fill-rule:evenodd"/><path d="M2.68,26.65A38.16,38.16,0,0,0,.5,39.4a38.74,38.74,0,0,0,.26,4.47.71.71,0,0,0,.71.63h.08a.71.71,0,0,0,.62-.79,37.57,37.57,0,0,1-.25-4.3A36.72,36.72,0,0,1,4,27.13a.72.72,0,0,0-.43-.91.7.7,0,0,0-.24,0A.71.71,0,0,0,2.68,26.65Z" style="fill:#555464;fill-rule:evenodd"/><path d="M5.56,57a.72.72,0,0,0-.28,1c.45.8.93,1.6,1.43,2.37a.71.71,0,0,0,1,.21.72.72,0,0,0,.2-1C7.42,58.77,7,58,6.53,57.23a.71.71,0,0,0-.62-.37A.7.7,0,0,0,5.56,57Z" style="fill:#555464;fill-rule:evenodd"/><path d="M10.64,64.1a.72.72,0,0,0-.08,1,38,38,0,0,0,11.08,9,.7.7,0,0,0,.33.09.72.72,0,0,0,.34-1.35,36.56,36.56,0,0,1-10.67-8.64.71.71,0,0,0-1-.08Z" style="fill:#555464;fill-rule:evenodd"/><path d="M43.49,76.92c-.59.06-1.19.11-1.79.15a.72.72,0,0,0,0,1.43h0c.62,0,1.24-.09,1.86-.16a.72.72,0,0,0-.07-1.43Z" style="fill:#555464;fill-rule:evenodd"/><path d="M61.7,69.37a34.37,34.37,0,0,1-11.82,6.34.84.84,0,0,0-.51,1,.74.74,0,0,0,.69.61l.18,0A35.77,35.77,0,0,0,62.52,70.7a.89.89,0,0,0,.17-1.14.69.69,0,0,0-.58-.34A.65.65,0,0,0,61.7,69.37Z" style="fill:#555464;fill-rule:evenodd"/><path d="M69.38,63c-.27.34-.54.68-.82,1a.72.72,0,0,0,.09,1,.7.7,0,0,0,.46.17.71.71,0,0,0,.55-.25c.29-.34.57-.7.85-1.06a.72.72,0,0,0-.12-1,.7.7,0,0,0-.44-.15A.71.71,0,0,0,69.38,63Z" style="fill:#555464;fill-rule:evenodd"/><path d="M74.75,49.15a36.58,36.58,0,0,1-4.58,10.22.71.71,0,1,0,1.19.78,38,38,0,0,0,4.76-10.62.72.72,0,0,0-.5-.88l-.19,0A.71.71,0,0,0,74.75,49.15Z" style="fill:#555464;fill-rule:evenodd"/><path d="M77.64,34.61a.72.72,0,0,0-.65.77c0,.49.07,1,.09,1.47a.71.71,0,0,0,.71.69h0a.72.72,0,0,0,.68-.74c0-.51-.05-1-.09-1.53a.71.71,0,0,0-.71-.66Z" style="fill:#555464;fill-rule:evenodd"/><path d="M70.95,18.07a.67.67,0,0,0-.26,1A34,34,0,0,1,76.08,31a.8.8,0,0,0,.8.57H77a.72.72,0,0,0,.64-.84,35.3,35.3,0,0,0-5.6-12.39.85.85,0,0,0-.69-.34A.9.9,0,0,0,70.95,18.07Z" style="fill:#555464;fill-rule:evenodd"/><path d="M62.5,8.1a.72.72,0,0,0,.14,1c.7.53,1.38,1.09,2,1.67a.71.71,0,1,0,.94-1.08C64.93,9.1,64.22,8.51,63.5,8a.71.71,0,0,0-1,.14Z" style="fill:#555464;fill-rule:evenodd"/><path d="M52.47,9.3a.72.72,0,0,0,.33,1,30.92,30.92,0,0,1,10.28,8.11.71.71,0,0,0,1,.1.72.72,0,0,0,.1-1A32.29,32.29,0,0,0,53.42,9a.71.71,0,0,0-.31-.07A.71.71,0,0,0,52.47,9.3Z" style="fill:#555464;fill-rule:evenodd"/><path d="M42.83,6.66a.74.74,0,0,0,.7.8,39.11,39.11,0,0,1,5.33,1l.23,0a.81.81,0,0,0,.78-.51.71.71,0,0,0-.55-.89,40.74,40.74,0,0,0-5.58-1h-.1A.79.79,0,0,0,42.83,6.66Z" style="fill:#555464;fill-rule:evenodd"/><path d="M34.37,6.1a30,30,0,0,0-15.5,7.28.87.87,0,0,0-.13,1.13.69.69,0,0,0,.56.31.65.65,0,0,0,.44-.17,28.73,28.73,0,0,1,14.81-7,.79.79,0,0,0,.62-.9.75.75,0,0,0-.7-.7Z" style="fill:#555464;fill-rule:evenodd"/><path d="M16.13,14.91a32.57,32.57,0,0,0-2.33,2.55.71.71,0,1,0,1.1.91,31.06,31.06,0,0,1,2.23-2.44.72.72,0,0,0,0-1,.71.71,0,0,0-1,0Z" style="fill:#555464;fill-rule:evenodd"/><path d="M15.29,60a.72.72,0,0,0,0,1,31.84,31.84,0,0,0,15.84,9.15l.16,0a.72.72,0,0,0,.16-1.41A30.41,30.41,0,0,1,16.3,60a.71.71,0,0,0-1,0Z" style="fill:#555464;fill-rule:evenodd"/><path d="M35.26,70a.71.71,0,0,0,.63.79,32.42,32.42,0,0,0,3.63.2.72.72,0,0,0,0-1.43,31.07,31.07,0,0,1-3.47-.2H36A.72.72,0,0,0,35.26,70Z" style="fill:#555464;fill-rule:evenodd"/><path d="M59.48,64.11A29.07,29.07,0,0,1,49,70.29a.84.84,0,0,0-.49,1,.73.73,0,0,0,.68.59.66.66,0,0,0,.2,0,30.48,30.48,0,0,0,11-6.46.9.9,0,0,0,.12-1.15.68.68,0,0,0-.56-.31A.65.65,0,0,0,59.48,64.11Z" style="fill:#555464;fill-rule:evenodd"/><path d="M63.73,58.91c-.66.77-1.37,1.52-2.11,2.23a.72.72,0,0,0,0,1,.71.71,0,0,0,1,0c.77-.74,1.51-1.52,2.21-2.33a.72.72,0,0,0-.54-1.18A.71.71,0,0,0,63.73,58.91Z" style="fill:#555464;fill-rule:evenodd"/><path d="M48.43,44.11a1.46,1.46,0,0,1-.66-.16l-8.49-4.3-8.5,4.26a1.44,1.44,0,0,1-1.54-.15,1.47,1.47,0,0,1-.55-1.45l1.74-9-7-7a1.47,1.47,0,0,1,.9-2.51L33.82,23l4.13-9.13a1.46,1.46,0,0,1,2.66,0L44.74,23l9.46.85a1.45,1.45,0,0,1,1.25,1,1.47,1.47,0,0,1-.35,1.55l-7,7,1.74,9.07a1.47,1.47,0,0,1-.55,1.45,1.45,1.45,0,0,1-.88.3M39.28,14.37l-4.36,9.54a.7.7,0,0,1-.57.41l-9.86.89,0,.11,7.24,7.25a.7.7,0,0,1,.19.63l-1.81,9.39.4.7-.31-.63L39,38.24a.69.69,0,0,1,.62,0L48.4,42.7l.78-.21-.68.13-1.81-9.43a.7.7,0,0,1,.19-.63l7.24-7.23,0-.11-9.86-.89a.7.7,0,0,1-.57-.41l-4.3-9.5a.06.06,0,0,0-.06,0" style="fill:#555464;fill-rule:evenodd"/><path d="M37.65,56.78a1.4,1.4,0,0,1-.63-.15l-7.83-4L21.36,56.6a1.38,1.38,0,0,1-1.48-.14,1.41,1.41,0,0,1-.53-1.4L21,46.75l-6.43-6.43a1.41,1.41,0,0,1-.33-1.48,1.39,1.39,0,0,1,1.19-.93l8.71-.78,1.81-4a.7.7,0,0,1,.92-.35.7.7,0,0,1,.35.93l-2,4.37a.7.7,0,0,1-.57.41l-9.11.82L22.21,46a.7.7,0,0,1,.19.63l-1.68,8.68,8.15-4.08a.69.69,0,0,1,.62,0l8.14,4.12L36,46.65a.71.71,0,0,1,.19-.63l3.31-3.3a.69.69,0,0,1,1,0,.71.71,0,0,1,0,1l-3,3L39,55.1a1.41,1.41,0,0,1-.53,1.4,1.39,1.39,0,0,1-.85.29" style="fill:#555464;fill-rule:evenodd"/><path d="M59.27,54.12a1.24,1.24,0,0,1-.57-.14l-6.16-3.12L46.38,54a1.25,1.25,0,0,1-1.32-.13,1.27,1.27,0,0,1-.47-1.25l1.2-6.19a.7.7,0,1,1,1.37.27L46,52.58l6.23-3.13a.69.69,0,0,1,.62,0l6.23,3.15L57.8,45.94a.71.71,0,0,1,.19-.63l5.12-5.11-7-.63a.7.7,0,0,1-.57-.41l-3.16-7a.7.7,0,0,1,.34-.93.69.69,0,0,1,.92.35l3,6.61,6.84.62a1.25,1.25,0,0,1,1.07.83A1.27,1.27,0,0,1,64.3,41L59.24,46l1.26,6.57A1.26,1.26,0,0,1,60,53.86,1.25,1.25,0,0,1,59.27,54.12Zm4.13-13.9h0Z" style="fill:#555464;fill-rule:evenodd"/></svg>