<svg xmlns="http://www.w3.org/2000/svg" viewBox="0 0 79 79"><title>Icono_home_Artboard 1 copy</title><path d="M71.89,59.37a.65.65,0,0,1-.32-.08.66.66,0,0,1-.26-.89,36,36,0,0,0,4.45-17c0-1,0-2-.1-3h0A35.79,35.79,0,0,0,69.31,20.5a.66.66,0,0,1,1.08-.75A37.1,37.1,0,0,1,77,38.24h0c.08,1,.11,2.1.1,3.15A37.28,37.28,0,0,1,72.47,59a.66.66,0,0,1-.58.34m-58.71,8.1a.66.66,0,0,1-.47-.2A37.11,37.11,0,0,1,1.92,40.6.66.66,0,0,1,2.58,40h0a.66.66,0,0,1,.65.66A35.81,35.81,0,0,0,13.65,66.35a.66.66,0,0,1-.47,1.12m26.32,11h-.23a37.54,37.54,0,0,1-12.4-2.17.66.66,0,1,1,.44-1.24,36.25,36.25,0,0,0,12,2.09h.22a36.2,36.2,0,0,0,18.62-5.13.66.66,0,1,1,.68,1.12A37.52,37.52,0,0,1,39.5,78.5M49.75,6.36l-.18,0A36.29,36.29,0,0,0,44,5.2a.66.66,0,1,1,.16-1.3,37.65,37.65,0,0,1,5.82,1.18.66.66,0,0,1-.18,1.29m4.89,1.79a.64.64,0,0,1-.27-.06l-1.24-.53a.66.66,0,1,1,.5-1.22l1.29.55a.66.66,0,0,1-.27,1.26M27.08,26.43h0Zm-8.8-7.86a.14.14,0,0,0-.1,0A30.92,30.92,0,0,0,39.31,72,31,31,0,0,0,70.52,41.33,31,31,0,0,0,39.73,10.15H38.8a.66.66,0,0,1-.67-.66V2A.13.13,0,0,0,38,1.83a.13.13,0,0,0-.15,0L21.79,15.7,37.89,29.55a.13.13,0,0,0,.15,0,.13.13,0,0,0,.08-.13V21.91a.66.66,0,0,1,.63-.66h.81a19.85,19.85,0,1,1-12.91,4.68.13.13,0,0,0,0-.1.14.14,0,0,0,0-.11L18.38,18.6A.14.14,0,0,0,18.28,18.56ZM39.5,73.27h-.2A32.35,32.35,0,0,1,7.16,40.66a32.06,32.06,0,0,1,10.12-23,1.46,1.46,0,0,1,2,0l8.28,7.12a1.45,1.45,0,0,1,0,2.21,18.58,18.58,0,1,0,12.06-4.37h-.12v6.89A1.46,1.46,0,0,1,37,30.55l-16.23-14a1.17,1.17,0,0,1,0-1.78L37,.86A1.46,1.46,0,0,1,39.45,2V8.84h.29a32.22,32.22,0,1,1-.24,64.43ZM37.08,49.63H28.68a1.43,1.43,0,0,1-1.43-1.43v-.35a1.43,1.43,0,0,1,.41-1l3.63-3.65q1.79-1.83,2.35-2.54a5.64,5.64,0,0,0,.79-1.31,3.34,3.34,0,0,0,.24-1.25,1.82,1.82,0,0,0-.53-1.44,2.08,2.08,0,0,0-1.43-.47,4.1,4.1,0,0,0-1.82.43,7.75,7.75,0,0,0-.84.48,1.42,1.42,0,0,1-1.86-.28l0,0a1.42,1.42,0,0,1,.26-2.08,7.39,7.39,0,0,1,.75-.47,7.28,7.28,0,0,1,1.71-.64A8.75,8.75,0,0,1,33,33.36a6.14,6.14,0,0,1,2.67.55,4.24,4.24,0,0,1,1.8,1.54,4.08,4.08,0,0,1,.64,2.26,5.51,5.51,0,0,1-.39,2.08,8,8,0,0,1-1.21,2,29.33,29.33,0,0,1-2.89,2.91l-2.07,1.94v.15h5.59a1.43,1.43,0,1,1,0,2.85m8.88-6a.53.53,0,0,0,.53-.53V41q0-.68.06-2t.09-1.5h-.09a12.24,12.24,0,0,1-1,1.76L43,43.08a.39.39,0,0,0,.32.6Zm4.47,2.63h-.09a.53.53,0,0,0-.53.53V48a1.66,1.66,0,0,1-3.33,0V46.83a.53.53,0,0,0-.53-.53H41.42a1.8,1.8,0,0,1-1.5-2.82l6.14-9a2.05,2.05,0,0,1,3.75,1.15v7.51a.53.53,0,0,0,.53.53h.09a1.32,1.32,0,1,1,0,2.63Z" style="fill:#555464"/></svg>