<svg xmlns="http://www.w3.org/2000/svg" viewBox="0 0 79 79"><title>Icono_home_Artboard 1 copy 2</title><path d="M35.87,33h-2a.74.74,0,0,1,0-1.47h2a.74.74,0,0,1,0,1.47m4.64,0h-2a.74.74,0,0,1,0-1.47h2a.74.74,0,0,1,0,1.47m4.64,0h-2a.74.74,0,0,1,0-1.47h2a.74.74,0,0,1,0,1.47m15-25.23a.73.73,0,0,1-.39-.12A37.07,37.07,0,0,0,46,2.25.74.74,0,0,1,46.25.8,38.51,38.51,0,0,1,60.57,6.41a.74.74,0,0,1-.4,1.35M30.71,2.71a.74.74,0,0,1-.17-1.45A38.63,38.63,0,0,1,34.79.51.74.74,0,0,1,35,2a37.32,37.32,0,0,0-4.09.73l-.17,0M15.29,10.37a.73.73,0,0,1-.57-.27.74.74,0,0,1,.1-1A38.79,38.79,0,0,1,27.25,2.2a.74.74,0,0,1,.46,1.4,37.3,37.3,0,0,0-12,6.61.73.73,0,0,1-.46.17M5.22,23.18a.71.71,0,0,1-.3-.07.73.73,0,0,1-.37-1,21.24,21.24,0,0,1,1.84-3.46.73.73,0,1,1,1.24.78,20,20,0,0,0-1.74,3.29.73.73,0,0,1-.67.43M1.49,44.64A.73.73,0,0,1,.77,44,39.83,39.83,0,0,1,.5,39.39a39.22,39.22,0,0,1,2.24-13.1.73.73,0,1,1,1.38.49A37.74,37.74,0,0,0,2,39.39a38.61,38.61,0,0,0,.26,4.42.73.73,0,0,1-.64.82H1.49m6,16.57a.73.73,0,0,1-.61-.33c-.52-.79-1-1.61-1.47-2.43a.74.74,0,0,1,.28-1,.73.73,0,0,1,1,.28c.44.79.92,1.58,1.41,2.34a.74.74,0,0,1-.21,1,.73.73,0,0,1-.4.12m14,12.85a.73.73,0,0,1-.34-.09A39,39,0,0,1,9.76,64.73a.74.74,0,0,1,.08-1,.73.73,0,0,1,1,.08,37.58,37.58,0,0,0,11,8.89.74.74,0,0,1-.35,1.38M41.8,78.5a.74.74,0,0,1,0-1.47c.61,0,1.23-.09,1.84-.15a.74.74,0,0,1,.16,1.46c-.63.07-1.27.12-1.91.16h0m7.47-1.19a.74.74,0,0,1-.19-1.45,37.2,37.2,0,0,0,12.15-5.71.73.73,0,0,1,.85,1.2,38.67,38.67,0,0,1-12.62,5.93l-.19,0M68.85,64.83a.73.73,0,0,1-.56-1.21c.28-.34.57-.69.84-1a.73.73,0,1,1,1.15.91c-.29.37-.58.73-.87,1.08a.73.73,0,0,1-.56.26m2.78-3.77A.73.73,0,0,1,71,59.92a37.58,37.58,0,0,0,4.7-10.5.73.73,0,1,1,1.41.39,39,39,0,0,1-4.89,10.91.73.73,0,0,1-.61.33m6.13-22.48a.73.73,0,0,1-.73-.71c0-.5-.05-1-.09-1.51a.73.73,0,1,1,1.46-.12c0,.52.07,1,.09,1.57a.74.74,0,0,1-.7.76h0M77,32.42a.73.73,0,0,1-.72-.59,37.48,37.48,0,0,0-4.85-12.26.73.73,0,1,1,1.25-.77,39,39,0,0,1,5,12.74.74.74,0,0,1-.57.87l-.15,0M64.77,11.24a.73.73,0,0,1-.48-.18c-.67-.59-1.38-1.17-2.09-1.72a.73.73,0,0,1,.89-1.17c.74.57,1.47,1.17,2.17,1.78a.74.74,0,0,1-.48,1.29m-.47,7.89a.72.72,0,0,1-.56-.27,31.75,31.75,0,0,0-10.57-8.34.73.73,0,0,1,.64-1.32,33.2,33.2,0,0,1,11.06,8.73.74.74,0,0,1-.1,1,.72.72,0,0,1-.47.17M48.53,8.68l-.2,0a31.24,31.24,0,0,0-4.79-1,.74.74,0,0,1,.19-1.46,32.67,32.67,0,0,1,5,1,.74.74,0,0,1-.2,1.44M19.83,14.16a.74.74,0,0,1-.45-1.32A32.69,32.69,0,0,1,35.31,6.19a.74.74,0,0,1,.19,1.46A31.24,31.24,0,0,0,20.28,14a.72.72,0,0,1-.45.16m-5.1,5a.73.73,0,0,1-.56-1.2,33.06,33.06,0,0,1,2.4-2.62.73.73,0,0,1,1,1.05,31.93,31.93,0,0,0-2.29,2.5.73.73,0,0,1-.56.27M32.13,71,32,71a32.71,32.71,0,0,1-16.28-9.41.74.74,0,0,1,0-1,.73.73,0,0,1,1,0,31.25,31.25,0,0,0,15.55,9A.74.74,0,0,1,32.13,71m7.39.86a33.32,33.32,0,0,1-3.73-.21A.74.74,0,0,1,36,70.23a31.93,31.93,0,0,0,3.57.2.74.74,0,0,1,0,1.47m8.86-1.24a.74.74,0,0,1-.2-1.44,31.09,31.09,0,0,0,10.78-5.55.73.73,0,1,1,.91,1.15,32.56,32.56,0,0,1-11.28,5.81l-.2,0M61.66,63a.73.73,0,0,1-.53-.23.74.74,0,0,1,0-1c.76-.72,1.49-1.49,2.17-2.29a.73.73,0,1,1,1.11,1c-.71.83-1.48,1.64-2.27,2.39a.73.73,0,0,1-.51.2m5.67-16.48h2.78V42.92H67.33Zm-1.47,0H34.16V42.92h31.7Zm-1,9.81H14.3V48H62v2.34H47.52a.74.74,0,0,0,0,1.47H62.71a.73.73,0,0,0,.73-.74V48h1.43Zm-52-10.29c-.87-.35-1.94-.84-2.91-1.33,1-.49,2-1,2.91-1.33a7.14,7.14,0,0,1,1.46-.46h4.14v3.61H14.3A7.16,7.16,0,0,1,12.83,46.06Zm7.07.47H32.7V42.92H19.9Zm-5.6-16.8a12.28,12.28,0,0,0,10.82,6.5h29a12.28,12.28,0,0,0,10.81-6.5V41.45H14.3Zm0-7.82H64.88v2A10.85,10.85,0,0,1,54.07,34.76h-29A10.85,10.85,0,0,1,14.3,23.9Zm31.27-1.47h-12A5.46,5.46,0,0,1,39,15.71h1.18A5.46,5.46,0,0,1,45.57,20.44ZM39,12.77h1.18a8.4,8.4,0,0,1,8.34,7.67H47a6.93,6.93,0,0,0-6.87-6.2H39a6.93,6.93,0,0,0-6.87,6.2H30.66A8.4,8.4,0,0,1,39,12.77ZM66.59,41.45a.72.72,0,0,0-.25,0V21.18a.73.73,0,0,0-.73-.74H50a9.87,9.87,0,0,0-9.81-9.14H39a9.87,9.87,0,0,0-9.81,9.14H13.56a.73.73,0,0,0-.73.74V41.82A40.82,40.82,0,0,0,8,44.08a.74.74,0,0,0,0,1.3,40.86,40.86,0,0,0,4.85,2.25v9.45a.73.73,0,0,0,.73.74h52a.73.73,0,0,0,.73-.74V48a1.14,1.14,0,0,1,.25,0h4.25a.73.73,0,0,0,.73-.74V42.18a.73.73,0,0,0-.73-.74Z" style="fill:#555464"/></svg>