<?xml version="1.0" encoding="UTF-8"?>
<svg width="33px" height="33px" viewBox="0 0 33 33" version="1.1" xmlns="http://www.w3.org/2000/svg" xmlns:xlink="http://www.w3.org/1999/xlink">
    <!-- Generator: Sketch 50.2 (55047) - http://www.bohemiancoding.com/sketch -->
    <title>Group 11</title>
    <desc>Created with Sketch.</desc>
    <defs></defs>
    <g id="Page-1" stroke="none" stroke-width="1" fill="none" fill-rule="evenodd">
        <g id="Asilinks_Ciente_Dashboard_Sin-Requerimientos_Tablet-Copy" transform="translate(-233.000000, -572.000000)">
            <g id="Group-11" transform="translate(233.000000, 572.000000)">
                <path d="M16.4996628,2.02317454 C8.51689044,2.02317454 2.02317454,8.51756483 2.02317454,16.4996628 C2.02317454,24.4824352 8.51689044,30.9768255 16.4996628,30.9768255 C24.4824352,30.9768255 30.9768255,24.4824352 30.9768255,16.4996628 C30.9768255,8.51756483 24.4824352,2.02317454 16.4996628,2.02317454 M16.4996628,33 C7.40144688,33 0,25.5985531 0,16.4996628 C0,7.40212127 7.40144688,0 16.4996628,0 C25.5978787,0 33,7.40212127 33,16.4996628 C33,25.5985531 25.5978787,33 16.4996628,33" id="Fill-3" fill="#FF5D60"></path>
                <g id="Group-9" transform="translate(12.000000, 10.000000)" stroke="#FF5D60" stroke-linecap="round" stroke-linejoin="round" stroke-width="1.98">
                    <path d="M1.5,0.466666667 L1.5,13.5666243" id="Line-2"></path>
                    <path d="M7.5,0.466666667 L7.5,13.5666243" id="Line-2-Copy"></path>
                </g>
            </g>
        </g>
    </g>
</svg>