<svg xmlns="http://www.w3.org/2000/svg" viewBox="0 0 79 79"><title>Icono_home_Artboard 1</title><path d="M9,27.57A34.88,34.88,0,0,0,6.11,38.38,36.13,36.13,0,0,0,6,44c0,.61.44,1.91,0,2.43-.6.74-1.12-.16-1.19-.7a33.18,33.18,0,0,1,.52-10.86A36,36,0,0,1,6.76,29.7,10.77,10.77,0,0,1,7.84,27C8.3,26.42,9.39,26.74,9,27.57ZM32.16,72a.66.66,0,0,0,.42-1.15,4.58,4.58,0,0,0-1.49-.54,29.54,29.54,0,0,1-3.36-1.43A30.19,30.19,0,0,1,13.4,53.54a29.54,29.54,0,0,1-1.11-3.17c-.32-1.1-.36-2.42-.77-3.46-.18-.45-.65-.77-1.08-.36s-.12,1.07,0,1.54a30.92,30.92,0,0,0,8.11,15.59,31.42,31.42,0,0,0,9.73,6.89q.91.41,1.84.76A6.91,6.91,0,0,0,32.16,72ZM12.24,31.75c1,.37,1.7-2.44,2-3.11A29.53,29.53,0,0,1,16.47,25a30.48,30.48,0,0,1,5.95-6.34A29.85,29.85,0,0,1,37.55,12.3a30.48,30.48,0,0,1,4.3-.19q1.25,0,2.49.16c.53.06,1.62.45,2-.13.8-1.3-2.77-1.25-3.38-1.29a31.89,31.89,0,0,0-4.59.06,31.14,31.14,0,0,0-15.44,5.7,31.81,31.81,0,0,0-6.82,6.66C15.39,24.2,10.65,31.15,12.24,31.75ZM74,27.89c-.9.4-1.33-1.33-1.61-1.88q-.75-1.46-1.63-2.84T69,20.64c-.24-.32-2-2.08-1.86-2.34l-.08,0c.19.2-.85,2.06-1,2.35Q65.4,22,64.74,23.32t-1.32,2.56a8.1,8.1,0,0,0-.65,1.21c-.15.48.1.68.38,1.11a25.92,25.92,0,0,1,2.32,4.67,26.05,26.05,0,1,1-49.7,15.34A26.06,26.06,0,0,1,47,16.68a22.71,22.71,0,0,1,3.19,1c-1-2.28-2.08-4.82-1.91-7.35a10.5,10.5,0,0,1,.28-1.82c.2-.83.35-.71-.53-.89A35.88,35.88,0,0,0,43.68,7c-.65,0-3.25.28-3.25-.75s3-.58,3.67-.52a37.2,37.2,0,0,1,4.09.57,4.17,4.17,0,0,0,1.1.23c.13-.06-.15,0,.17-.3s.65-1.14,1-1.63A10.55,10.55,0,0,1,64,1.91,10.3,10.3,0,0,1,69,13a23,23,0,0,1-.68,2.26c-.13.38-.75,1.43-.67,1.8s1.08,1.2,1.39,1.57q.67.79,1.29,1.62a36.23,36.23,0,0,1,2.54,3.88C73.2,24.76,75.07,27.41,74,27.89ZM36.48,63.32a3.52,3.52,0,1,0-1-6.7c-.86.39-1.69,1-2.5,0s.1-1.85.62-2.71a4.81,4.81,0,1,0-8.66-4.11c-.41,1.13,0,2.28-.36,3.37s-1.47,1.43-2.38,2.07c-.25.18-1.26.82-1.27,1.1s.77,1,1,1.29a25.07,25.07,0,0,0,4.3,4.13,24.77,24.77,0,0,0,5.18,3q.87.37,1.77.68c.48.16.57.31.89,0s.37-1.11.78-1.54A2,2,0,0,1,36.48,63.32Zm23.38-5.18a6.24,6.24,0,0,1-5.67-5.47,6.62,6.62,0,0,0-.14-2c-.32-.71-1.24-1-1.84-1.38A8.29,8.29,0,0,1,50.77,37c.92-1,2.89-1.68,2.37-3.33a12.08,12.08,0,0,1-.66-2.81c-.07-1-.43-1-1.31-1.34s-.81-.88-1-1.61a5.31,5.31,0,0,0-8.6-3C40.28,26,40,27.58,39.23,29.06a10.55,10.55,0,0,1-2.75,3.43,9.94,9.94,0,0,1-2,1.23c-.24.11-.91.27-1.06.48s-.11,1-.18,1.34a6.38,6.38,0,0,1-1,2.31c-.47.71-1.25,1.23-1.38,2.12a7.07,7.07,0,0,1-.42,2.29,4.14,4.14,0,0,1-7.75-.77c-.23-.88.07-1.79-.38-2.62a16.13,16.13,0,0,1-1.49-2.48,6.42,6.42,0,0,1-.3-2.92,16.9,16.9,0,0,1,.93-2.71c.32-1.07-.37-1.94-.69-2.92a24.88,24.88,0,0,0-.66,27.47,9.48,9.48,0,0,1,2-1.56c1-.56,1.17-.85,1.12-2a6.11,6.11,0,1,1,12.22,0A6.1,6.1,0,0,1,35,54.09c-.13.27-1.18,1.61-1,1.76s2-.77,2.39-.81a4.79,4.79,0,0,1,2.43.35,4.89,4.89,0,0,1,2.84,3.4,4.83,4.83,0,0,1-4.71,5.86c-.41,0-.85-.15-1.17.18a5.71,5.71,0,0,0-.57,1.25A25,25,0,0,0,59.86,58.14Zm3.77-20.5A8.32,8.32,0,0,1,65.19,43a8.22,8.22,0,0,1-.65,2.75c-.09.22-.67,1-.63,1.18s1,.89,1.18,1.1a24.92,24.92,0,0,0,.15-11.4A8,8,0,0,1,63.62,37.64Zm-1.72-9c-.78,1.4-1.71,2.84-3.56,2.45-1.66-.35-2.34-2.25-3.08-3.58-.93-1.66-1.84-3.34-2.71-5q-.63-1.23-1.23-2.48A1.77,1.77,0,0,0,50,19,24.72,24.72,0,0,0,24.7,23.51,12,12,0,0,0,22,26.29c-.29.57.1,1.29.35,1.88a4.2,4.2,0,0,1,.48,2.68c-.17.81-.69,1.48-.87,2.29a5.14,5.14,0,0,0,.1,2.64c.51,1.66,1.89,2.54,1.88,4.4a2.91,2.91,0,0,0,2.35,3.08,2.87,2.87,0,0,0,3.3-2.65,4.41,4.41,0,0,1,.42-2c.43-.77,1.14-1.3,1.54-2.1a6.59,6.59,0,0,0,.52-2.24c.11-.92.61-1.2,1.4-1.53a8.8,8.8,0,0,0,3.8-3,36.37,36.37,0,0,0,1.92-3.95,6.62,6.62,0,0,1,10.94-1,6.58,6.58,0,0,1,1.34,2.89c.1.54.1.53.61.69C54,29,53.6,30.47,54,32s1.11,2.84-.18,4.17c-.5.52-1.18.84-1.7,1.34a6.94,6.94,0,0,0-1.9,6.75A7.08,7.08,0,0,0,52.67,48c1.25,1,2.76,1.36,2.81,3.24a5.62,5.62,0,0,0,1.14,3.88,4.91,4.91,0,0,0,3.71,1.71c.82,0,1.1-.72,1.52-1.37s.83-1.35,1.2-2.05q.3-.58.57-1.18a8.08,8.08,0,0,0,.95-2.42c0-.6-.66-1.23-1.12-1.61-.83-.69-1.4-.82-.69-1.89a7,7,0,0,0,1-5.13A6.93,6.93,0,0,0,62.94,39c-.3-.5-1.35-1.33-.93-2,.32-.49,1.46-.7,2-1s.82-.5.85-.89a5.36,5.36,0,0,0-.54-1.63A24.58,24.58,0,0,0,61.9,28.67Zm4.49-12.06c.82-2,1.74-4.29,1.52-6.54A9.18,9.18,0,0,0,52,4.77a9,9,0,0,0-2.4,6.61,14.51,14.51,0,0,0,1.05,3.9,62.65,62.65,0,0,0,2.74,6.09q.9,1.79,1.87,3.56a38.66,38.66,0,0,0,2.4,4.26c.84,1.16,2,.71,2.64-.36.89-1.5,1.69-3.05,2.49-4.6C64.11,21.73,65.35,19.21,66.39,16.62ZM62.18,7.53a4.84,4.84,0,1,1-6.84.05A4.88,4.88,0,0,1,62.18,7.53Zm.14,3.42c0-4.26-6.42-4.67-7-.5a3.54,3.54,0,1,0,7,.5Zm3.46,13c-.72.51.2,1.43.51,1.9q.78,1.21,1.44,2.49a29.53,29.53,0,0,1,2,4.83A30,30,0,0,1,60,65.28q-1,.85-2.15,1.61c-.49.33-1.92.86-1.82,1.6.22,1.59,3.55-1.23,4.07-1.63a31.83,31.83,0,0,0,4-3.65,31.23,31.23,0,0,0,8.07-17.78,31.64,31.64,0,0,0-.92-11.66C70.89,32.51,67.39,22.85,65.79,24ZM59.42,72.05A35.39,35.39,0,0,1,35.7,76.79c-1-.15-2-.39-3-.59-.37-.08-.77-.22-1,.14s0,.83.36,1A11.24,11.24,0,0,0,35,78q1.7.28,3.41.41a36.78,36.78,0,0,0,11.93-1.08,36.25,36.25,0,0,0,6.14-2.2q1.56-.73,3-1.6c.38-.22,1-.46.9-1A.66.66,0,0,0,59.42,72.05Z" style="fill:#555464"/></svg>