<?xml version="1.0" encoding="UTF-8"?>
<svg width="33px" height="33px" viewBox="0 0 33 33" version="1.1" xmlns="http://www.w3.org/2000/svg" xmlns:xlink="http://www.w3.org/1999/xlink">
    <!-- Generator: Sketch 50.2 (55047) - http://www.bohemiancoding.com/sketch -->
    <title>Page 1</title>
    <desc>Created with Sketch.</desc>
    <defs>
        <polygon id="path-1" points="0.000134693878 0.045122449 32.9548776 0.045122449 32.9548776 32.9999327 0.000134693878 32.9999327"></polygon>
    </defs>
    <g id="Page-1" stroke="none" stroke-width="1" fill="none" fill-rule="evenodd">
        <g id="Asilinks_Ciente_Dashboard_Sin-Requerimientos_Tablet-Copy" transform="translate(-78.000000, -572.000000)">
            <g id="Page-1" transform="translate(78.000000, 572.000000)">
                <path d="M15.1074078,17.8378378 C14.8506842,17.8378378 14.5939605,17.7419893 14.398075,17.5496358 L10.1046391,13.33427 C9.71286806,12.9495629 9.71286806,12.325891 10.1046391,11.9418404 C10.4957415,11.5571333 11.1308652,11.5571333 11.5226362,11.9418404 L15.1074078,15.4606631 L21.4773638,9.20687487 C21.8691348,8.82282426 22.5035899,8.82282426 22.8953609,9.20753136 C23.2871319,9.59158197 23.2871319,10.2152539 22.8953609,10.599961 L15.8167407,17.5496358 C15.6208552,17.7419893 15.3641315,17.8378378 15.1074078,17.8378378" id="Fill-1" fill="#AD3481"></path>
                <g id="Group-5">
                    <mask id="mask-2" fill="white">
                        <use xlink:href="#path-1"></use>
                    </mask>
                    <g id="Clip-4"></g>
                    <path d="M16.4772367,2.06546327 C8.50537959,2.06546327 2.02054286,8.55097347 2.02054286,16.5221571 C2.02054286,24.4940143 8.50537959,30.9795245 16.4772367,30.9795245 C24.4490939,30.9795245 30.9346041,24.4940143 30.9346041,16.5221571 C30.9346041,8.55097347 24.4490939,2.06546327 16.4772367,2.06546327 M16.4772367,32.9999327 C7.39146122,32.9999327 0.000134693878,25.6086061 0.000134693878,16.5221571 C0.000134693878,7.4370551 7.39146122,0.045055102 16.4772367,0.045055102 C25.5630122,0.045055102 32.9550122,7.4370551 32.9550122,16.5221571 C32.9550122,25.6086061 25.5630122,32.9999327 16.4772367,32.9999327" id="Fill-3" fill="#AD3481" mask="url(#mask-2)"></path>
                </g>
            </g>
        </g>
    </g>
</svg>