<svg xmlns="http://www.w3.org/2000/svg" viewBox="0 0 79 79"><title>Icono_home_Artboard 1 copy 4</title><path d="M11.29,63.78a.74.74,0,0,1-.11,1.1.88.88,0,0,1-1.18-.1L8.38,63a.74.74,0,0,1,.11-1.1.88.88,0,0,1,1.18.1Zm52.77,4.84L62.3,70.27a.93.93,0,0,0-.1,1.21.74.74,0,0,0,.59.31.72.72,0,0,0,.49-.2L65,69.93a.93.93,0,0,0,.1-1.21A.71.71,0,0,0,64.06,68.62ZM14.45,11.31a.72.72,0,0,0,.49-.2L16.7,9.46a.93.93,0,0,0,.1-1.21.71.71,0,0,0-1.08-.11L14,9.79a.93.93,0,0,0-.1,1.21A.74.74,0,0,0,14.45,11.31Zm54.87,5.32a.87.87,0,0,0,.65.28.88.88,0,0,0,.54-.18.74.74,0,0,0,.11-1.1L69,13.83a.89.89,0,0,0-1.18-.1.74.74,0,0,0-.11,1.1Zm9.18,23a.73.73,0,0,1,0,.23.79.79,0,0,1,0,.24A39.57,39.57,0,0,1,66.73,68.18a.83.83,0,0,1-.58.24.83.83,0,0,1-.59-.24.81.81,0,0,1,0-1.15A38,38,0,0,0,76.85,40.12a.8.8,0,0,1,.07-.32.72.72,0,0,1,0-.15V31.28a1.68,1.68,0,0,0-3.36,0v3.59a2.55,2.55,0,0,1-1.33,1.08.82.82,0,0,1-.81-.84V24.8a1.71,1.71,0,0,0-1.68-1.74,1.63,1.63,0,0,0-1.1.43V35.12a.81.81,0,0,1-.81.82.79.79,0,0,1-.29-.06.78.78,0,0,1-.29.06.82.82,0,0,1-.81-.84V24.8A3.48,3.48,0,0,1,67,22.87v-.38a1.68,1.68,0,1,0-3.36,0V35.12a.81.81,0,0,1-.81.82.78.78,0,0,1-.26-.05.77.77,0,0,1-.26.05.82.82,0,0,1-.81-.84V24.8a1.68,1.68,0,1,0-3.36,0v8.45a3.33,3.33,0,0,1,.37,1.5v5a.78.78,0,1,1-1.56,0V35.83c0-.37,0-.91,0-1.36a1.34,1.34,0,0,0-.42-.83,1.6,1.6,0,0,0-1.2-.56,1.65,1.65,0,0,0-1.63,1.68v5.93A6.77,6.77,0,0,0,55.25,45l5.48,6.6a.82.82,0,0,1,.19.53A7,7,0,0,1,59,56.95l-1.85,1.91a3.3,3.3,0,0,1-.4,4,3.36,3.36,0,0,1,.64,6.57A3.35,3.35,0,0,1,54.28,74h-3.8a2.88,2.88,0,0,1,.38,1.4,3.2,3.2,0,0,1-3.29,3.08h-8.7l-.14,0A38.56,38.56,0,0,1,12.23,66.75a.84.84,0,0,1,0-1.16.79.79,0,0,1,1.13,0A36.93,36.93,0,0,0,39.72,76.85h0a.76.76,0,0,1,.42.14h7.37a1.63,1.63,0,0,0,1.68-1.57A1.56,1.56,0,0,0,48.3,74H44.17a.81.81,0,0,1-.52-.2A.76.76,0,0,1,43,73.1a.78.78,0,0,1,.81-.76h3.73l.29,0h6.43a1.7,1.7,0,0,0,1.28-2.83H44.15a.82.82,0,0,1-.81-.82.83.83,0,0,1,.06-.3.81.81,0,0,1,.76-1.12H54.28a3.32,3.32,0,0,1,1.89.59h.37a1.71,1.71,0,0,0,0-3.42H44.15a.82.82,0,0,1-.81-.82.83.83,0,0,1,.05-.27.81.81,0,0,1-.05-.26.82.82,0,0,1,.82-.83H54.28a1.71,1.71,0,0,0,0-3.42H45.95a3.29,3.29,0,0,1-1.51.38h-5a.8.8,0,1,1,0-1.6h4a.81.81,0,0,1,.71-.43h1.39A1.64,1.64,0,0,0,46.12,56a1.67,1.67,0,0,0-1.68-1.66H38.5a6.72,6.72,0,0,0-4.33,1.58l-6.61,5.59a.81.81,0,0,1-.53.19,6.82,6.82,0,0,1-4.82-2l-2.14-2.11a3.13,3.13,0,0,1-3.22.47,3.27,3.27,0,0,1-6.45-.66,3.21,3.21,0,0,1-2.22.9,3.36,3.36,0,0,1-3.3-3.41v-3.5a3.37,3.37,0,0,1-1.1.19A3.24,3.24,0,0,1,.5,48.45V40.08a.75.75,0,0,1,.07-.31.82.82,0,0,1-.07-.33A40,40,0,0,1,12,11.37a.81.81,0,0,1,1.14,0,.82.82,0,0,1,0,1.15,38.38,38.38,0,0,0-11,26.92.82.82,0,0,1-.07.33.75.75,0,0,1,.07.31v8.37A1.65,1.65,0,0,0,3.8,50.07a1.7,1.7,0,0,0,1.1-.4v-5a.82.82,0,0,1,.81-.84.78.78,0,0,1,.61.31.79.79,0,0,1,.77.77v3.59a3.07,3.07,0,0,1-.58,1.79v4.69a1.68,1.68,0,1,0,3.36,0V44.62a.82.82,0,0,1,.81-.84.77.77,0,0,1,.26.05.78.78,0,0,1,.26-.05.82.82,0,0,1,.81.82V57.24a1.68,1.68,0,1,0,3.36,0v-.38a3.48,3.48,0,0,1-.58-1.93V44.62a.82.82,0,0,1,.81-.84.77.77,0,0,1,.29.06.79.79,0,0,1,.29-.06.82.82,0,0,1,.81.82V56.23a1.61,1.61,0,0,0,2.24,0,.59.59,0,0,1,.33-.45,1.76,1.76,0,0,0,.21-.82V44.62a.82.82,0,0,1,.73-.82V39a.78.78,0,1,1,1.57,0v4.9a1.63,1.63,0,1,0,3.25,0V38a6.63,6.63,0,0,0-1.55-4.27l-5.48-6.51a.81.81,0,0,1-.19-.52A6.83,6.83,0,0,1,20,22l2-2a3.32,3.32,0,0,1-.38-3.18,3.36,3.36,0,0,1,0-6.47,3.35,3.35,0,0,1,3.1-4.61h4.05a3,3,0,0,1-.92-2.13A3.18,3.18,0,0,1,31.13.5h8.64a.84.84,0,0,1,.32.06A38.69,38.69,0,0,1,66.39,12.2a.83.83,0,0,1,0,1.16.79.79,0,0,1-1.13,0A37.06,37.06,0,0,0,38.9,2.17s0,0,0,0A.77.77,0,0,1,38.4,2H31.13a1.62,1.62,0,0,0-1.67,1.57,1.62,1.62,0,0,0,1.67,1.57h3.7a.78.78,0,0,1,.8.75.71.71,0,0,1-.06.28.81.81,0,0,1,.08.35.82.82,0,0,1-.82.82H24.72a1.7,1.7,0,0,0-1.28,2.83H34.85a.82.82,0,0,1,.81.82v.16c0,.46-.43.66-.88.66H22.46a1.71,1.71,0,0,0,0,3.42H34.94a.82.82,0,0,1,.82.82h0a.92.92,0,0,1-.91.83H23.44a1.7,1.7,0,0,0,1.28,2.83H34.83a.81.81,0,0,1,.81.74h3.62a.8.8,0,0,1,0,1.6H34.45a1.66,1.66,0,0,0,0,3.31h5.75a6.36,6.36,0,0,0,4.19-1.58l6.39-5.59a.77.77,0,0,1,.51-.19,6.48,6.48,0,0,1,4.66,2l2,2a3.17,3.17,0,0,1,4.12.27,3.27,3.27,0,0,1,6.45-.66,3.17,3.17,0,0,1,1.22-.25A3.36,3.36,0,0,1,73,24.8v4.13a3.34,3.34,0,0,1,2.2-.83,3.24,3.24,0,0,1,3.3,3.17Zm-22-7.93V24.8a3.47,3.47,0,0,1,.38-1.56l-2.08-2.12a4.94,4.94,0,0,0-3.27-1.5L45.4,25a7.9,7.9,0,0,1-5.2,2H34.45a3.22,3.22,0,0,1-3.19-3.25,3.27,3.27,0,0,1,1-2.35H24.72A3.3,3.3,0,0,1,23.19,21l-2.08,2.12a5.21,5.21,0,0,0-1.46,3.34l5.29,6.28A8.25,8.25,0,0,1,26.87,38V43.9a3.22,3.22,0,0,1-3.19,3.25,3.15,3.15,0,0,1-2.3-1v8.8a3.48,3.48,0,0,1-.31,1.42l2.29,2.26a5.19,5.19,0,0,0,3.38,1.5l6.37-5.39a8.35,8.35,0,0,1,5.38-2h5.95A3.28,3.28,0,0,1,47.74,56a3.19,3.19,0,0,1-.25,1.23h6.79a3.31,3.31,0,0,1,1.74.5l1.86-1.92a5.3,5.3,0,0,0,1.46-3.38l-5.29-6.36a8.42,8.42,0,0,1-1.93-5.37V34.76a3.25,3.25,0,0,1,3.19-3.29A3.08,3.08,0,0,1,56.53,31.71Z" style="fill:#555464;fill-rule:evenodd"/></svg>