<?xml version="1.0" encoding="UTF-8"?>
<svg width="24px" height="22px" viewBox="0 0 24 22" version="1.1" xmlns="http://www.w3.org/2000/svg" xmlns:xlink="http://www.w3.org/1999/xlink">
    <!-- Generator: Sketch 50.2 (55047) - http://www.bohemiancoding.com/sketch -->
    <title>Page 1</title>
    <desc>Created with Sketch.</desc>
    <defs>
        <polygon id="path-1" points="0.536748387 0.3502 17.4687097 0.3502 17.4687097 16.87505 0.536748387 16.87505"></polygon>
    </defs>
    <g id="Page-1" stroke="none" stroke-width="1" fill="none" fill-rule="evenodd">
        <g id="Asilinks_Ciente_Dashboard_Sin-Requerimientos_Desktop" transform="translate(-203.000000, -265.000000)">
            <g id="Group" transform="translate(202.000000, 265.000000)">
                <g id="Page-1" transform="translate(1.000000, 0.000000)">
                    <path d="M4.99460666,22 C2.24065464,22 0,19.7857012 0,17.0641426 L0,5.93585738 C0,3.21429884 2.24065464,1 4.99460666,1 L12.6589176,1 C12.9975823,1 13.2726427,1.2723764 13.2726427,1.60650616 C13.2726427,1.94118728 12.9975823,2.21301231 12.6589176,2.21301231 L4.99460666,2.21301231 C2.91742607,2.21301231 1.22745025,3.88310972 1.22745025,5.93585738 L1.22745025,17.064694 C1.22745025,19.1174416 2.91742607,20.7880904 4.99460666,20.7880904 L16.0065092,20.7880904 C18.0836898,20.7880904 19.7731077,19.1174416 19.7731077,17.064694 L19.7731077,13.1036574 C19.7731077,12.7695277 20.0481681,12.4971513 20.3868328,12.4971513 C20.7249396,12.4971513 21,12.7695277 21,13.1036574 L21,17.064694 C21,19.7857012 18.7604612,22 16.0065092,22 L4.99460666,22 Z" id="Fill-1" fill="#FFFFFF"></path>
                    <g id="Group-5" transform="translate(6.000000, 0.000000)">
                        <mask id="mask-2" fill="white">
                            <use xlink:href="#path-1"></use>
                        </mask>
                        <g id="Clip-4"></g>
                        <path d="M12.185071,1.94848333 C12.1252645,1.94848333 12.0660387,1.97058333 12.0207484,2.01478333 L2.24268387,11.5580167 C2.15210323,11.6469833 2.15210323,11.79035 2.24268387,11.87875 L5.65571613,15.2101833 C5.69926452,15.2526833 5.75849032,15.2764833 5.82003871,15.2764833 C5.88216774,15.2764833 5.9408129,15.2526833 5.98436129,15.2101833 L15.7635871,5.66695 C15.8065548,5.62445 15.8315226,5.56665 15.8315226,5.50658333 C15.8315226,5.44651667 15.8065548,5.38871667 15.7635871,5.34678333 L12.3493935,2.01478333 C12.3041032,1.97058333 12.2448774,1.94848333 12.185071,1.94848333 Z M2.04642581,13.5436167 C2.01623226,13.5436167 1.98661935,13.5492833 1.9575871,13.5611833 C1.87049032,13.5963167 1.81416774,13.67905 1.81416774,13.7702833 L1.81416774,15.4017167 C1.81416774,15.5263833 1.91810323,15.6283833 2.04642581,15.6283833 L3.71752258,15.6283833 C3.8115871,15.6283833 3.89636129,15.57285 3.93236129,15.4884167 C3.96836129,15.4034167 3.94803871,15.30595 3.88184516,15.24135 L2.21074839,13.6104833 C2.16661935,13.56685 2.1068129,13.5436167 2.04642581,13.5436167 Z M1.17545806,16.87505 C0.823587097,16.87505 0.536748387,16.5951167 0.536748387,16.2517167 L0.536748387,11.7200833 C0.537329032,11.6418833 0.552425806,11.5670833 0.58203871,11.49285 C0.61803871,11.40445 0.664490323,11.3358833 0.723135484,11.2780833 L11.7339097,0.532383333 C11.8546839,0.415083333 12.0149419,0.349916667 12.185071,0.349916667 C12.3557806,0.349916667 12.5160387,0.415083333 12.6362323,0.532383333 L17.2813935,5.06571667 C17.4021677,5.18358333 17.4689419,5.33998333 17.4689419,5.50658333 C17.4689419,5.67318333 17.4021677,5.82958333 17.2813935,5.94745 L6.2712,16.6925833 C6.21197419,16.7503833 6.14171613,16.7957167 6.06274839,16.82745 C5.97565161,16.85975 5.89726452,16.87505 5.82061935,16.87505 L1.17545806,16.87505 Z" id="Fill-3" fill="#FFFFFF" mask="url(#mask-2)"></path>
                    </g>
                </g>
            </g>
        </g>
    </g>
</svg>