<?xml version="1.0" encoding="UTF-8"?>
<svg width="26px" height="20px" viewBox="0 0 26 20" version="1.1" xmlns="http://www.w3.org/2000/svg" xmlns:xlink="http://www.w3.org/1999/xlink">
    <!-- Generator: Sketch 50.2 (55047) - http://www.bohemiancoding.com/sketch -->
    <title>Page 1</title>
    <desc>Created with Sketch.</desc>
    <defs>
        <polygon id="path-1" points="0.455319833 0.37908 18.7517787 0.37908 18.7517787 12.780352 0.455319833 12.780352"></polygon>
    </defs>
    <g id="Page-1" stroke="none" stroke-width="1" fill="none" fill-rule="evenodd">
        <g id="Asilinks_Ciente_Dashboard_Sin-Requerimientos_Desktop" transform="translate(-202.000000, -294.000000)">
            <g id="Group" transform="translate(202.000000, 265.000000)">
                <g id="Page-1" transform="translate(0.000000, 29.000000)">
                    <path d="M12.2778341,20 C9.86068175,20 7.594048,19.0421944 5.89456458,17.3027431 C4.07948677,15.4455163 3.12472633,12.866538 3.2737693,10.2271622 C3.27721254,10.1692811 3.24769908,10.1144199 3.19801809,10.0862344 C3.17588299,10.0736515 3.15079655,10.0676118 3.12669389,10.0676118 C3.09619665,10.0676118 3.06668319,10.0766714 3.04110486,10.095294 L0.931876227,11.6263736 C0.831038571,11.6988508 0.713476621,11.7376059 0.59099576,11.7376059 C0.399650159,11.7376059 0.219126161,11.6424797 0.108942575,11.4829293 C0.0174508485,11.3510612 -0.0179653038,11.1915108 0.00859681044,11.0324637 C0.0346670337,10.8734167 0.120256069,10.7345021 0.248639621,10.6408858 L3.63530919,8.18270279 C3.76221707,8.0598943 3.90683303,8 4.05931924,8 C4.17737308,8 4.2909999,8.03623857 4.38888621,8.1046892 C4.46119419,8.14696754 4.51333463,8.18974918 4.55416159,8.23806728 L7.64766412,10.9700528 C7.76719363,11.0752454 7.83950161,11.2217096 7.8508151,11.3827699 C7.8621286,11.5433269 7.81195571,11.6993541 7.70915049,11.8211559 C7.59699935,11.954534 7.43418342,12.0310377 7.26202157,12.0310377 C7.12084885,12.0310377 6.98410315,11.9786931 6.8773628,11.8840701 L4.71402616,9.97550541 C4.68697216,9.95184968 4.65253979,9.93926684 4.61761553,9.93926684 C4.59892367,9.93926684 4.58023181,9.94279003 4.56203184,9.95033974 C4.51087518,9.9714789 4.47545903,10.0203003 4.47054012,10.0771747 C4.27132426,12.4528144 5.09425791,14.7751028 6.72930361,16.4481168 C8.20743608,17.9600705 10.1774596,18.7930543 12.2773423,18.7930543 C14.0230634,18.7930543 15.6733578,18.2187736 17.048685,17.1316165 C17.1529659,17.0495764 17.2779062,17.0057881 17.4087492,17.0057881 C17.5932083,17.0057881 17.7638945,17.0913514 17.8760457,17.2408355 C17.9729482,17.3681738 18.0152508,17.5267176 17.9950833,17.6867712 C17.9749158,17.8468249 17.8947375,17.9892626 17.7702891,18.0874088 C16.186892,19.3386461 14.2872089,20 12.2778341,20" id="Fill-1" fill="#FFFFFF"></path>
                    <g id="Group-5" transform="translate(7.000000, 0.000000)">
                        <mask id="mask-2" fill="white">
                            <use xlink:href="#path-1"></use>
                        </mask>
                        <g id="Clip-4"></g>
                        <path d="M14.6251,12.780352 C14.5441,12.780352 14.4561,12.754352 14.3561,12.700792 C14.2561,12.657112 14.1801,12.600952 14.1206,12.529712 L10.9781,9.708712 C10.8566,9.599512 10.7831,9.448192 10.7716,9.281792 C10.7601,9.115912 10.8106,8.955232 10.9156,8.828872 C11.0296,8.691072 11.1956,8.612032 11.3701,8.612032 C11.5136,8.612032 11.6526,8.665592 11.7611,8.763872 L13.9591,10.735192 C13.9871,10.760152 14.0221,10.773152 14.0571,10.773152 C14.0761,10.773152 14.0951,10.769512 14.1141,10.761712 C14.1661,10.739352 14.2016,10.688912 14.2066,10.630672 C14.4096,8.176272 13.5731,5.776992 11.9106,4.048512 C10.4086,2.485912 8.4061,1.625832 6.2716,1.625832 C4.4966,1.625832 2.8196,2.219152 1.4216,3.342872 C1.3156,3.428152 1.1891,3.472872 1.0556,3.472872 C0.8681,3.472872 0.6946,3.384472 0.5801,3.230032 C0.3781,2.957552 0.4266,2.564952 0.6876,2.354872 C2.2971,1.062152 4.2276,0.378872 6.2711,0.378872 C8.7271,0.378872 11.0316,1.368952 12.7596,3.166072 C14.6041,5.084352 15.5751,7.749352 15.4236,10.476752 C15.4206,10.536552 15.4501,10.592712 15.5006,10.621832 C15.5236,10.635352 15.5486,10.641592 15.5731,10.641592 C15.6036,10.641592 15.6346,10.631712 15.6601,10.612992 L17.8046,9.030632 C17.9061,8.955232 18.0266,8.915192 18.1511,8.915192 C18.3456,8.915192 18.5291,9.013472 18.6406,9.178312 C18.7336,9.314032 18.7701,9.479392 18.7431,9.643712 C18.7166,9.808552 18.6296,9.952072 18.4986,10.048272 L15.0526,12.591072 C14.9226,12.717952 14.7766,12.780352 14.6251,12.780352" id="Fill-3" fill="#FFFFFF" mask="url(#mask-2)"></path>
                    </g>
                </g>
            </g>
        </g>
    </g>
</svg>