<svg xmlns="http://www.w3.org/2000/svg" viewBox="0 0 79 79"><title>Icono_home_Artboard 1 copy 3</title><path d="M22.7,11.76a.68.68,0,0,1-.35-1.26,33.41,33.41,0,0,1,17-4.63,33.84,33.84,0,0,1,7.08.75.68.68,0,0,1-.28,1.33,32.52,32.52,0,0,0-6.79-.71A32,32,0,0,0,23,11.66a.68.68,0,0,1-.34.09m-6.54,5.09a.68.68,0,0,1-.48-1.16c.59-.59,1.21-1.17,1.84-1.71a.68.68,0,1,1,.89,1c-.6.52-1.2,1.08-1.77,1.64a.67.67,0,0,1-.48.2M14.49,61.5a.68.68,0,0,1-.51-.23A33.48,33.48,0,0,1,5.86,39.39c0-1.09.05-2.19.15-3.26a.68.68,0,1,1,1.35.13c-.1,1-.15,2.09-.15,3.13a32.12,32.12,0,0,0,7.78,21,.68.68,0,0,1-.51,1.12m4.27,4.14a.68.68,0,0,1-.43-.15c-.46-.37-.91-.76-1.35-1.16a.68.68,0,0,1,.91-1c.42.38.86.76,1.3,1.11a.68.68,0,0,1-.43,1.21M51,70.77a.68.68,0,0,1-.24-1.31,31.92,31.92,0,0,0,11.28-7.33,32.68,32.68,0,0,0,2.45-2.74.68.68,0,1,1,1.06.85A34.26,34.26,0,0,1,63,63.09a33.25,33.25,0,0,1-11.76,7.64.66.66,0,0,1-.24,0m16.4-13.68a.67.67,0,0,1-.35-.1.68.68,0,0,1-.23-.93c.24-.4.48-.81.71-1.22a.68.68,0,1,1,1.19.65c-.23.43-.48.86-.74,1.27a.68.68,0,0,1-.58.33m4.62-14.21H72a.68.68,0,0,1-.62-.73c.08-.91.12-1.84.12-2.76a31.84,31.84,0,0,0-6.38-19.24.68.68,0,1,1,1.09-.81,33.19,33.19,0,0,1,6.65,20.06c0,1,0,1.92-.12,2.87a.68.68,0,0,1-.67.62m-9.5-26a.67.67,0,0,1-.48-.2,32.84,32.84,0,0,0-3.35-2.92.68.68,0,1,1,.82-1.08,33.87,33.87,0,0,1,3.49,3,.68.68,0,0,1,0,1,.67.67,0,0,1-.48.2m-43.3,56a.67.67,0,0,1-.35-.1l-.16-.09-.22-.13-.15-.1a.68.68,0,0,1,.73-1.14l.16.1.17.11.16.09a.68.68,0,0,1-.35,1.26m20.1,5.67a38.69,38.69,0,0,1-17.28-4,.68.68,0,0,1,.6-1.22,38,38,0,0,0,30,1.47A.68.68,0,0,1,53.12,76,39,39,0,0,1,39.36,78.5M73.27,58.16a.66.66,0,0,1-.32-.08.68.68,0,0,1-.28-.92c.22-.42.44-.84.65-1.27a.68.68,0,1,1,1.22.59c-.21.44-.44.88-.67,1.31a.68.68,0,0,1-.6.36m2.06-4.54a.68.68,0,0,1-.63-.92,37.69,37.69,0,0,0,2.4-13.32.68.68,0,0,1,1.36,0A39.08,39.08,0,0,1,76,53.18a.68.68,0,0,1-.64.44M65.67,12.06a.68.68,0,0,1-.47-.18c-.33-.31-.67-.62-1-.92a.68.68,0,0,1,.89-1c.35.31.71.63,1.05,1a.68.68,0,0,1-.47,1.17M62.31,9.24a.67.67,0,0,1-.41-.14A37.47,37.47,0,0,0,43.49,1.85.68.68,0,1,1,43.63.5,38.81,38.81,0,0,1,62.72,8a.68.68,0,0,1-.41,1.22M14.49,10.77A.68.68,0,0,1,14,9.58c.58-.5,1.19-1,1.8-1.45a.68.68,0,0,1,.82,1.08c-.59.45-1.17.92-1.74,1.4a.67.67,0,0,1-.44.16M1.23,35.38H1.15a.68.68,0,0,1-.59-.76A38.68,38.68,0,0,1,11.43,12a.68.68,0,1,1,1,.95A37.32,37.32,0,0,0,1.9,34.78a.68.68,0,0,1-.67.6M39.36,12a27.42,27.42,0,1,0,27.4,27.42A27.44,27.44,0,0,0,39.36,12m0,56.2A28.78,28.78,0,1,1,68.12,39.39,28.8,28.8,0,0,1,39.36,68.16M16.93,39.39A22.42,22.42,0,1,1,33.3,61,22.48,22.48,0,0,1,16.93,39.39m22.43-23.8a23.8,23.8,0,1,0,23.78,23.8,23.82,23.82,0,0,0-23.78-23.8m6.11,29.89a3.41,3.41,0,0,0-1-2.52A10.27,10.27,0,0,0,40.78,41v8.42q4.69-.65,4.69-4M33.64,32a3.61,3.61,0,0,0,1,2.64A9.32,9.32,0,0,0,38,36.56V28.19a6.19,6.19,0,0,0-3.24,1.35,3.24,3.24,0,0,0-1.1,2.5M49.14,45.2a6.15,6.15,0,0,1-2.21,4.86,11.34,11.34,0,0,1-6.16,2.41v3.62a1.39,1.39,0,1,1-2.79,0V52.66a28.48,28.48,0,0,1-4.69-.38,17.73,17.73,0,0,1-2.63-.63,1.59,1.59,0,0,1,1-3q1,.3,2.08.54a20.35,20.35,0,0,0,4.27.51V40.16q-4.43-1.41-6.21-3.27A6.65,6.65,0,0,1,30,32.09a5.77,5.77,0,0,1,2.2-4.65A10.69,10.69,0,0,1,38,25.23V22.69a1.39,1.39,0,1,1,2.79,0v2.5a21.94,21.94,0,0,1,6.15,1,1.53,1.53,0,0,1-.94,2.9,21.72,21.72,0,0,0-5.21-1v9.39a24.67,24.67,0,0,1,5.08,2.11A7.15,7.15,0,0,1,48.34,42a6.17,6.17,0,0,1,.8,3.23" style="fill:#555464"/></svg>