<svg xmlns="http://www.w3.org/2000/svg" viewBox="0 0 79 79"><title>Icono_home_Artboard 1 copy 5</title><path d="M45.33,1.17A.72.72,0,0,1,46,.5h.07A37.88,37.88,0,0,1,65.89,9a41.1,41.1,0,0,1,7,7.41.78.78,0,0,1-.12,1.05.67.67,0,0,1-1-.13A39.57,39.57,0,0,0,65,10.18,36.54,36.54,0,0,0,46,2,.74.74,0,0,1,45.33,1.17Zm-39,21.49a.68.68,0,0,0-.29-.06.7.7,0,0,0-.64.41A39.07,39.07,0,0,0,2,39.22,40.07,40.07,0,0,0,2.2,43.6a.7.7,0,0,0,.7.63H3a.7.7,0,0,0,.62-.78,38.89,38.89,0,0,1-.23-4.22A37.68,37.68,0,0,1,6.71,23.59.7.7,0,0,0,6.36,22.66ZM31.69,71.55a.7.7,0,0,0,.2-1.37,32.38,32.38,0,0,1-13.44-8.09A32,32,0,0,1,9.4,44.48a.7.7,0,0,0-.69-.59H8.59A.7.7,0,0,0,8,44.7a33.44,33.44,0,0,0,9.44,18.38,33.78,33.78,0,0,0,14,8.44A.67.67,0,0,0,31.69,71.55Zm29.79-1a.65.65,0,0,0-.37.12,34.73,34.73,0,0,1-19.8,6.25,34.24,34.24,0,0,1-9.45-1.33.7.7,0,0,0-.86.57.8.8,0,0,0,.51,1,35.54,35.54,0,0,0,9.8,1.38A36,36,0,0,0,61.85,72a.85.85,0,0,0,.23-1.09A.69.69,0,0,0,61.49,70.55ZM69,19.87a.7.7,0,0,0-1.15.81,32.36,32.36,0,0,1-3.64,41.41,32.63,32.63,0,0,1-6.41,5,.7.7,0,0,0,.72,1.21,34.05,34.05,0,0,0,6.68-5.2A33.76,33.76,0,0,0,69,19.87ZM46.86,35H45a.72.72,0,0,0,0,1.43h1.87A1.53,1.53,0,0,1,48,37a1.85,1.85,0,0,1,.41,1.47L47.4,45a.7.7,0,0,0,0,.12,1.15,1.15,0,0,1-.88.88h-8A2,2,0,0,1,37,45.53a2.5,2.5,0,0,0-1.73-.63H32.73v-8.5H35c1.47,0,5.34-3.46,5.34-6.23v-.95a1.46,1.46,0,0,1,1,.19c.51.27,1.36,1,1.36,3a10.78,10.78,0,0,1-.36,2.48,3.78,3.78,0,0,0-.14.79v1.1a6,6,0,0,1-2.93,4.92.73.73,0,0,0-.19,1,.69.69,0,0,0,1,.2,7.43,7.43,0,0,0,3.55-6.11V35.71a4.42,4.42,0,0,1,.1-.47A12.17,12.17,0,0,0,44,32.43c0-3.42-2.11-4.65-3.53-4.65-.95,0-1.61.53-1.61,1.3v1.1c0,2-3.17,4.73-3.93,4.8H32a.71.71,0,0,0-.7.72v9.93a.71.71,0,0,0,.7.72h3.24a1.16,1.16,0,0,1,.88.34,3.33,3.33,0,0,0,2.37.77h8a2.5,2.5,0,0,0,2.28-2.25l1-6.49a3.29,3.29,0,0,0-.72-2.63A2.94,2.94,0,0,0,46.86,35Zm8.53,4.74a15.17,15.17,0,0,1-3.31,8.82l2.56,2.61a3.86,3.86,0,0,1,2.25-.72,4,4,0,1,1-3.95,4,4.06,4.06,0,0,1,.71-2.29L51.14,49.6A14.57,14.57,0,0,1,41.37,54v3.09a3.95,3.95,0,1,1-1.41,0V54A14.57,14.57,0,0,1,30.2,49.6l-2.51,2.56a4.06,4.06,0,0,1,.71,2.29,3.95,3.95,0,1,1-3.95-4,3.86,3.86,0,0,1,2.25.72l2.56-2.61A15.17,15.17,0,0,1,26,39.72h-3a4,4,0,1,1,0-1.43h3a15.16,15.16,0,0,1,3.31-8.82L26.7,26.86a3.86,3.86,0,0,1-2.24.72,4,4,0,1,1,3.95-4,4.06,4.06,0,0,1-.71,2.29L30.2,28.4A14.57,14.57,0,0,1,40,24V20.89a3.95,3.95,0,1,1,1.41,0V24a14.57,14.57,0,0,1,9.77,4.43l2.51-2.56a4.06,4.06,0,0,1-.71-2.29,3.95,3.95,0,1,1,3.95,4,3.86,3.86,0,0,1-2.24-.72l-2.56,2.61a15.16,15.16,0,0,1,3.31,8.82h3a4,4,0,1,1,0,1.43ZM59.75,39a2.54,2.54,0,1,0,2.54-2.59A2.57,2.57,0,0,0,59.75,39Zm-5.4-15.45A2.54,2.54,0,1,0,56.88,21,2.57,2.57,0,0,0,54.34,23.55ZM27,23.55a2.54,2.54,0,1,0-2.54,2.59A2.57,2.57,0,0,0,27,23.55ZM21.59,39a2.54,2.54,0,1,0-2.54,2.59A2.57,2.57,0,0,0,21.59,39ZM27,54.45A2.54,2.54,0,1,0,24.46,57,2.57,2.57,0,0,0,27,54.45Zm27.35,0a2.54,2.54,0,1,0,2.54-2.59A2.57,2.57,0,0,0,54.34,54.45ZM40.67,19.53a2.59,2.59,0,1,0-2.54-2.59A2.57,2.57,0,0,0,40.67,19.53Zm0,39a2.59,2.59,0,1,0,2.54,2.59A2.57,2.57,0,0,0,40.67,58.48ZM54,39A13.35,13.35,0,1,0,40.67,52.63,13.51,13.51,0,0,0,54,39ZM10.18,26a.73.73,0,0,0,.25,0,.7.7,0,0,0,.66-.43,30.56,30.56,0,0,1,7.37-10.83,32.92,32.92,0,0,1,22.87-9,34.4,34.4,0,0,1,4.94.36.7.7,0,0,0,.8-.56.68.68,0,0,0-.59-.76,36.17,36.17,0,0,0-5.15-.37,34.36,34.36,0,0,0-23.86,9.43,31.91,31.91,0,0,0-7.69,11.3A.66.66,0,0,0,10.18,26Z" style="fill:#555464"/></svg>