<svg xmlns="http://www.w3.org/2000/svg" width="52" height="52" viewBox="0 0 52 52">
    <g fill="#FE5D60">
        <path d="M37.638 17.195c-.239-.648-.62-1.235-1.116-1.717-.482-.496-1.068-.877-1.717-1.116-.526-.205-1.316-.448-2.772-.514-1.575-.072-2.047-.087-6.033-.087-3.987 0-4.459.015-6.033.086-1.456.067-2.246.31-2.772.515-.649.239-1.235.62-1.717 1.116-.496.482-.877 1.068-1.117 1.717-.204.526-.447 1.317-.514 2.772-.071 1.575-.087 2.047-.087 6.033 0 3.987.016 4.459.087 6.033.067 1.456.31 2.246.514 2.772.24.649.621 1.235 1.117 1.717.482.496 1.068.878 1.717 1.117.526.205 1.316.448 2.772.514 1.574.072 2.046.087 6.033.087 3.987 0 4.459-.015 6.033-.087 1.455-.066 2.246-.31 2.772-.514 1.302-.502 2.331-1.532 2.833-2.834.205-.526.448-1.316.515-2.772.071-1.574.086-2.046.086-6.033 0-3.986-.015-4.458-.086-6.033-.067-1.455-.31-2.246-.515-2.772zM26 33.666c-4.234 0-7.667-3.432-7.667-7.666s3.433-7.666 7.667-7.666 7.666 3.432 7.666 7.666-3.432 7.666-7.666 7.666zm7.97-13.844c-.99 0-1.792-.802-1.792-1.791 0-.99.802-1.792 1.791-1.792.99 0 1.792.802 1.792 1.792 0 .989-.802 1.791-1.792 1.791z"/>
        <path d="M30.977 26c0 2.749-2.228 4.977-4.977 4.977S21.023 28.749 21.023 26s2.228-4.977 4.977-4.977 4.977 2.228 4.977 4.977z"/>
        <path d="M48.25 0H3.75C1.68 0 0 1.679 0 3.75v44.5C0 50.32 1.679 52 3.75 52h44.5C50.32 52 52 50.321 52 48.25V3.75C52 1.68 50.321 0 48.25 0zm-7.41 32.155c-.073 1.59-.325 2.675-.694 3.624-.776 2.006-2.361 3.591-4.367 4.367-.949.369-2.034.621-3.623.694-1.592.072-2.101.09-6.156.09s-4.563-.018-6.155-.09c-1.59-.073-2.675-.325-3.624-.694-.997-.375-1.899-.963-2.645-1.722-.759-.746-1.346-1.648-1.721-2.645-.37-.949-.622-2.034-.694-3.623-.074-1.593-.09-2.101-.09-6.156s.016-4.563.09-6.155c.072-1.59.324-2.675.693-3.624.375-.997.963-1.9 1.722-2.645.746-.76 1.648-1.347 2.645-1.722.95-.369 2.034-.621 3.624-.694 1.592-.072 2.1-.09 6.155-.09s4.563.018 6.155.09c1.59.073 2.675.325 3.624.694.997.375 1.9.963 2.645 1.722.76.746 1.347 1.648 1.722 2.645.37.95.621 2.034.694 3.624.073 1.592.09 2.1.09 6.155s-.017 4.563-.09 6.155z"/>
    </g>
</svg>
