<svg xmlns="http://www.w3.org/2000/svg" width="282" height="341" viewBox="0 0 282 341">
    <g fill="none" fill-rule="evenodd" opacity=".5">
        <g>
            <g>
                <path fill="#343839" d="M64.74 33.244c0 18.208-14.382 32.968-32.123 32.968-17.74 0-32.122-14.76-32.122-32.968C.495 15.035 14.876.274 32.617.274c17.74 0 32.122 14.761 32.122 32.97" transform="translate(-50 -9) translate(22.39 183.723) translate(70.872 99.766)"/>
                <path fill="#C2D5DA" d="M53.253 33.244c0 11.697-9.24 21.179-20.636 21.179-11.397 0-20.635-9.482-20.635-21.18 0-11.697 9.238-21.179 20.635-21.179 11.397 0 20.636 9.482 20.636 21.18" transform="translate(-50 -9) translate(22.39 183.723) translate(70.872 99.766)"/>
                <path fill="#97B2B8" d="M47.279 33.244c0 8.31-6.564 15.047-14.662 15.047-8.097 0-14.66-6.737-14.66-15.047 0-8.311 6.563-15.048 14.66-15.048 8.098 0 14.662 6.737 14.662 15.048" transform="translate(-50 -9) translate(22.39 183.723) translate(70.872 99.766)"/>
                <path fill="#343839" d="M38.235 33.244c0 3.183-2.515 5.765-5.618 5.765-3.102 0-5.617-2.582-5.617-5.765 0-3.185 2.515-5.766 5.617-5.766 3.103 0 5.618 2.581 5.618 5.766" transform="translate(-50 -9) translate(22.39 183.723) translate(70.872 99.766)"/>
            </g>
            <g>
                <path fill="#343839" d="M64.195 33.244c0 18.208-14.26 32.968-31.852 32.968S.491 51.452.491 33.244c0-18.209 14.26-32.97 31.852-32.97 17.591 0 31.852 14.761 31.852 32.97" transform="translate(-50 -9) translate(22.39 183.723) translate(245.327 99.766)"/>
                <path fill="#C2D5DA" d="M52.805 33.244c0 11.697-9.161 21.179-20.462 21.179-11.3 0-20.462-9.482-20.462-21.18 0-11.697 9.161-21.179 20.462-21.179 11.3 0 20.462 9.482 20.462 21.18" transform="translate(-50 -9) translate(22.39 183.723) translate(245.327 99.766)"/>
                <path fill="#97B2B8" d="M46.881 33.244c0 8.31-6.508 15.047-14.538 15.047-8.029 0-14.538-6.737-14.538-15.047 0-8.311 6.51-15.048 14.538-15.048 8.03 0 14.538 6.737 14.538 15.048" transform="translate(-50 -9) translate(22.39 183.723) translate(245.327 99.766)"/>
                <path fill="#343839" d="M37.913 33.244c0 3.183-2.494 5.765-5.57 5.765s-5.57-2.582-5.57-5.765c0-3.185 2.494-5.766 5.57-5.766s5.57 2.581 5.57 5.766" transform="translate(-50 -9) translate(22.39 183.723) translate(245.327 99.766)"/>
            </g>
            <g>
                <path fill="#F85843" d="M246.628.456c5.946 0 10.766 4.816 10.766 10.756v6.866c0 5.941-4.82 10.757-10.766 10.757h-.6c39.952 70.678-17.84 108.074-17.84 108.074H150.47l.014-.008c-1.575-.076-7.973-.878-9.738-8.815v-9.326H39.09s-3.166-27.12 17.723-50.674h107.641c-3.43 3.385-15.642 26.766-4.284 45.786h42.561c26.261-20.51 24.775-64.837 21.764-88.567-1.736-1.907-2.794-4.444-2.794-7.227v-6.866c0-5.94 4.82-10.756 10.766-10.756h14.161z" transform="translate(-50 -9) translate(22.39 183.723) translate(0 7.632)"/>
                <path fill="#F85843" d="M304.943 97.455c2.78-2.26 3.125-6.407.705-9.048-10.712-11.69-28.167-15.642-43.289-8.56-18.425 8.63-26.468 30.399-18.206 48.887h11.044c2.022-11.551 9.454-21.968 20.888-27.323 7.65-3.583 15.895-4.339 23.563-2.7 1.867.398 3.814-.052 5.295-1.256" transform="translate(-50 -9) translate(22.39 183.723) translate(0 7.632)"/>
                <path fill="#E8361F" d="M285.99 89.68c-18.391 0-34.731 9.602-45.07 24.474.077 4.892 1.117 9.844 3.233 14.58h11.044c2.022-11.551 9.453-21.968 20.888-27.323 7.65-3.583 15.894-4.339 23.563-2.7 1.867.399 3.813-.052 5.294-1.256 1.093-.888 1.804-2.07 2.124-3.336-6.514-2.862-13.626-4.44-21.075-4.44" transform="translate(-50 -9) translate(22.39 183.723) translate(0 7.632)"/>
                <path fill="#FF9783" d="M211.064 24.793c-2.485.497-4.925-1.129-5.423-3.612l-.01-.049c-.497-2.483 1.129-4.922 3.614-5.42l27.58-5.514c2.484-.497 4.925 1.128 5.423 3.61l.01.05c.497 2.484-1.13 4.922-3.615 5.419l-27.579 5.516z" transform="translate(-50 -9) translate(22.39 183.723) translate(0 7.632)"/>
                <path fill="#FF6554" d="M215.007 20.229c0 2.613-2.12 4.732-4.735 4.732s-4.735-2.119-4.735-4.732 2.12-4.732 4.735-4.732 4.735 2.119 4.735 4.732" transform="translate(-50 -9) translate(22.39 183.723) translate(0 7.632)"/>
                <path fill="#E8361F" d="M61.535 124.904c0-23.871 18.698-43.222 41.762-43.222 23.065 0 41.762 19.35 41.762 43.222H61.535zM0 68.067v-8.742h78.744v-4.422c.574-2.751 2.879-4.824 5.502-4.94l.233-.005h74.297c2.719 0 5.143 2.113 5.734 4.945v13.164H0z" transform="translate(-50 -9) translate(22.39 183.723) translate(0 7.632)"/>
            </g>
            <path fill="#FFEB8F" d="M249.143 36.526c4.954-.893 8.723-5.34 8.723-10.703v-6.942c0-5.364-3.769-9.81-8.723-10.703v28.348z" transform="translate(-50 -9) translate(22.39 183.723)"/>
            <g>
                <path fill="#FFEB8F" d="M0.327 67.064L71.351 67.064 71.351 0.324 0.327 0.324z" transform="translate(-50 -9) translate(22.39 183.723) translate(3.271)"/>
                <path fill="#FF9E14" d="M70.556 1.243c.207.22.196.565-.023.771L36.606 33.911l33.898 31.627c.22.205.232.55.026.77-.205.22-.55.232-.77.027L35.81 34.659 1.963 66.483c-.22.206-.565.196-.771-.024-.206-.22-.196-.564.024-.77l33.796-31.775L1.008 2.188c-.22-.205-.232-.55-.027-.77.206-.22.55-.232.77-.027l34.056 31.775L69.786 1.22c.22-.207.564-.196.77.023z" transform="translate(-50 -9) translate(22.39 183.723) translate(3.271)"/>
            </g>
        </g>
        <g>
            <path fill="#F2F8F9" d="M18.052 57.48s13.595-16.44 33.83-1.897c0 0 2.992 21.993 17.383 47.795 5.498 9.857 10.93 9.082 11.666 12.644 1.295 6.258 4.506 6.595 9.078 10.322 0 0 2.07 51.57-48.548 48.41 0 0-48.069-51.83-23.409-117.275z" transform="translate(-50 -9) rotate(10 19.688 273.48)"/>
            <path fill="#5C7594" d="M47.485 51.549l5.95 3.384s11.489 44.917 33.268 60.123c11.588-14.088 15.637-39.138 15.637-39.138 5.635 2.593 11.122.206 11.122.206 7.57 42.891-9.687 52.793-10.38 53.172l-.021.011c-1.435.538-2.756.902-3.972 1.117-1.624 3.226-5.053 4.707-9.069 5.305-25.584-7.272-46.404-47.603-42.535-84.18z" transform="translate(-50 -9) rotate(10 19.688 273.48)"/>
            <path fill="#FFC7C0" d="M206.953 147.345s5.434 5.794 11.438 6.785c0 0-1.495 6.136-8.032 5.533 0 0-3.136-1.416-8.262-5.99l4.856-6.328z" transform="translate(-50 -9) rotate(10 19.688 273.48)"/>
            <path fill="#405C80" d="M71.627 154.113s35.127-80.273 58.345-77.98c25.762 2.545 81.09 73.083 81.09 73.083s-.641 8.048-6.668 7.36c0 0-45.623-21.226-70.475-55.702l-46.735 71.58s-15.499-1.005-15.557-18.34z" transform="translate(-50 -9) rotate(10 19.688 273.48)"/>
            <path fill="#FFC7C0" d="M54.405 20.213s-9.294 16.034-7.78 36.68c0 0 .87 11.85-7.43 8.768 0 0-8.558-2.819-6.876-16.085C34.607 31.534 43.824 13.68 43.824 13.68l10.58 6.533z" transform="translate(-50 -9) rotate(10 19.688 273.48)"/>
            <path fill="#FFC7C0" d="M48.046 8.321s9.691 9.588 23.628 7.897c0 0-6.844 17.886 1.696 36.614-17.28 7.88-34.32-6.292-25.324-44.51zM138.621 227.606s-1.853 7.724.618 13.285c0 0-5.947 2.123-9.036-3.669 0 0-.541-3.399.464-10.195l7.954.58z" transform="translate(-50 -9) rotate(10 19.688 273.48)"/>
            <path fill="#F2F8F9" d="M207.355 160.813c4.913-2.407 8.274-6.16 8.62-12.529l27.93-13.272c2.037-1.274 6.179 1.72 4.09 5.468l-29.856 31.932s-8.085-.443-10.784-11.6z" transform="translate(-50 -9) rotate(10 19.688 273.48)"/>
            <path fill="#405C80" d="M218.052 171.819c-.436.5-.385 1.258.115 1.694l1.808 1.58c.5.437 1.259.385 1.695-.114l30.288-34.666c.436-.499.384-1.259-.115-1.695l-1.808-1.58c-.5-.436-1.259-.385-1.695.114l-30.288 34.667z" transform="translate(-50 -9) rotate(10 19.688 273.48)"/>
            <path fill="#FF6554" d="M44.912.986C55.532-3.3 53.135 7.85 65.696 6.673c12.676-1.187 9.639 14.871 9.639 14.871-5.488 3.995-17.834 4.794-25.34-2.452-2.576 6.415-2.818 11.14-2.818 11.14-4.142 1.463-7.468-.572-9.461-4.376C37.2 9.997 44.844.986 44.844.986l.055.058zM45.561 31.627s8.042 18.08 25.872 12.305c0 0 3.836 9.266 11.131 15.495 0 0-10.344 10.299-25.685 1.89-6.3-3.452-13.26-12.23-11.318-29.69z" transform="translate(-50 -9) rotate(10 19.688 273.48)"/>
            <path fill="#7C99BE" d="M55.585 152.273c-3.325 12.479 1.955 19.2 8.312 22.702 0 0 40.021-6.49 63.262-37.437-6.171 37.23-6.728 54.667 1.38 95.602 0 0 5.587 5.353 11.764 0 0 0 16.898-70.696 8.841-116.133-.746-4.21-3.582-7.757-7.355-9.768-3.774-2.01-8.061-1.69-12.211-.66-20.4 5.062-73.993 45.694-73.993 45.694z" transform="translate(-50 -9) rotate(10 19.688 273.48)"/>
            <path fill="#5C7594" d="M18.038 56.569s-29.15 60.526 5.824 125.713c0 0 39.523 11.604 51.473-27.523 0 0-37.74-21.717-45.258-105.183-5.533 1.93-9.484 4.277-12.039 6.993z" transform="translate(-50 -9) rotate(10 19.688 273.48)"/>
            <g>
                <path fill="#C2D5DA" d="M.063 123.054h18.086c0 1.102-.893 1.994-1.995 1.994H2.057c-1.101 0-1.994-.892-1.994-1.994z" transform="translate(-50 -9) rotate(10 19.688 273.48) translate(90.373 3.264)"/>
                <path fill="#C2D5DA" d="M68.596 74.218l-50.491 50.316c-.554.552-1.451.55-2.003-.004-.265-.265-.413-.625-.413-1l49.958-49.958H63.87V0h4.557c.72 0 1.302.583 1.302 1.302V72.27c0 .876-.855 1.672-1.132 1.948z" transform="translate(-50 -9) rotate(10 19.688 273.48) translate(90.373 3.264)"/>
                <path fill="#DDEBEF" d="M64.124 0h-9.277c-2.21 0-4 1.79-4 4v68.173h16.277V3c0-1.657-1.343-3-3-3z" transform="translate(-50 -9) rotate(10 19.688 273.48) translate(90.373 3.264)"/>
                <path fill="#F2F8F9" d="M63.17 1.953H54.8c-1.104 0-2 .896-2 2v64.364c0 1.104.896 2 2 2h8.37c1.105 0 2-.896 2-2V3.953c0-1.104-.895-2-2-2z" transform="translate(-50 -9) rotate(10 19.688 273.48) translate(90.373 3.264)"/>
                <path fill="#DDEBEF" d="M14.447 123.53H1.498c-.552 0-1-.447-1-1 0-.266.107-.522.296-.71l50.053-49.647h16.277l-50.557 50.48c-.562.562-1.325.877-2.12.877z" transform="translate(-50 -9) rotate(10 19.688 273.48) translate(90.373 3.264)"/>
                <path fill="#97B2B8" d="M44.468 91.823c.322 0 .583.26.583.583 0 .154-.061.301-.17.41l-.54.545c-.287.288-.677.45-1.083.45H32.004c-.321 0-.582-.261-.582-.583 0-.154.061-.302.17-.411l.544-.546c.286-.287.675-.448 1.08-.448h11.252zm3.255-3.256c.322 0 .583.261.583.583 0 .154-.06.302-.17.411l-.54.544c-.287.288-.677.45-1.083.45H35.26c-.322 0-.583-.26-.583-.582 0-.155.061-.303.17-.412l.544-.545c.286-.287.675-.449 1.081-.449h11.251zm3.547-3.255c.322 0 .583.26.583.583 0 .154-.06.302-.17.41l-.54.545c-.287.288-.677.45-1.083.45H38.807c-.322 0-.583-.261-.583-.583 0-.154.061-.302.17-.411l.544-.545c.286-.288.675-.45 1.081-.45H51.27zm2.964-3.256c.322 0 .583.261.583.583 0 .154-.061.302-.17.411l-.54.544c-.287.288-.677.45-1.083.45H41.77c-.322 0-.583-.26-.583-.582 0-.154.061-.302.17-.412l.544-.545c.286-.287.675-.449 1.08-.449h11.252zm3.255-3.255c.322 0 .583.261.583.583 0 .154-.06.302-.17.411l-.54.544c-.287.288-.676.45-1.083.45H45.026c-.322 0-.583-.26-.583-.583 0-.154.062-.302.17-.411l.544-.545c.287-.287.676-.449 1.081-.449H57.49zm3.547-3.276c.322 0 .583.261.583.583 0 .154-.06.302-.17.411l-.54.544c-.287.288-.676.45-1.083.45H48.573c-.322 0-.583-.26-.583-.582 0-.155.062-.303.17-.412l.544-.545c.287-.287.676-.449 1.081-.449h11.251z" transform="translate(-50 -9) rotate(10 19.688 273.48) translate(90.373 3.264)"/>
            </g>
            <path fill="#FFC7C0" d="M82.564 133.232c1.806-3.036 8.696-12.063 13.134-15.008 0 0 12.958-.16 13.068-.14 1.32.235.815 1.536-.008 1.67l-11.523 1.16s-5.903 17.907-14.022 17.51l-.649-5.192z" transform="translate(-50 -9) rotate(10 19.688 273.48)"/>
            <path fill="#7C99BE" d="M18.279 56.415s10.89 15.402 9.287 72.042c0 0 21.84 4.31 54.977.695 0 0 4.614 6.649 1.287 13.71 0 0-46.61 15.963-78.924 5.609 0 0-17.414-59.5 13.373-92.056z" transform="translate(-50 -9) rotate(10 19.688 273.48)"/>
            <path fill="#FFF" d="M128.194 233.14c3.36 4.235 7.691 6.69 13.911 5.681l18.698 24.164c1.66 1.697-.359 6.327-4.415 5.1l-37.117-22.09s-1.277-7.898 8.923-12.855z" transform="translate(-50 -9) rotate(10 19.688 273.48)"/>
            <path fill="#405C80" d="M119.825 245.786c-.574-.315-1.296-.106-1.612.467l-1.144 2.08c-.316.573-.106 1.296.467 1.612l39.848 21.93c.573.316 1.296.106 1.612-.467l1.144-2.08c.315-.573.106-1.295-.467-1.61l-39.848-21.932z" transform="translate(-50 -9) rotate(10 19.688 273.48)"/>
            <path fill="#FFC7C0" d="M47.108 35.706c-2.415.471-6.792-1.63-8.188-6.155-.364-1.18-.292-2.449.379-3.484.688-1.057 2.033-2.141 3.965-1.202 4.152 2.018 6.593 8.022 3.844 10.841z" transform="translate(-50 -9) rotate(10 19.688 273.48)"/>
            <g>
                <path fill="#DDEBEF" d="M1.234 5.028c-.014-.052-.022-.104-.022-.156 0-1.309 4.454-2.371 9.938-2.371 5.484 0 9.937 1.062 9.937 2.371 0 .137-.049.272-.143.402-2.259 16.633-3.388 24.96-3.388 24.978 0 1.098-2.916 1.99-6.51 1.99-3.592 0-6.51-.892-6.51-1.99 0-.076-1.1-8.484-3.302-25.224z" transform="translate(-50 -9) rotate(10 19.688 273.48) translate(85.971 49.367)"/>
                <path fill="#5C5EB7" d="M22.3 5.002c0 1.38-4.996 2.5-11.15 2.5S0 6.382 0 5.002V2.5h22.3v2.502z" transform="translate(-50 -9) rotate(10 19.688 273.48) translate(85.971 49.367)"/>
                <path fill="#8284D3" d="M11.15 0C17.304 0 22.3 1.12 22.3 2.5c0 1.381-4.996 2.502-11.15 2.502S0 3.882 0 2.5C0 1.12 4.996 0 11.15 0z" transform="translate(-50 -9) rotate(10 19.688 273.48) translate(85.971 49.367)"/>
                <path fill="#FFF" d="M11.15 10.925c3.558 0 6.446 2.888 6.446 6.446s-2.888 6.446-6.446 6.446c-3.557 0-6.446-2.888-6.446-6.446s2.889-6.446 6.446-6.446z" transform="translate(-50 -9) rotate(10 19.688 273.48) translate(85.971 49.367)"/>
            </g>
            <path fill="#FFC7C0" d="M100.416 55.82c-.665-1.257-.006-2.751 1.496-2.463 8.577 1.644 15.015 5.58 15.015 5.58.055.264.368 8.509-4.974 17.776 0 0-2.934 1.327-6.628.239 0 0 .67-5.206.834-11.36-4.084-2.187-10.039-4.267-10.039-4.267-1.17-1.18-.788-2.99.584-3.08-1.148-1.346-.507-3.319 1.222-2.987.847.162 1.678.351 2.49.562z" transform="translate(-50 -9) rotate(10 19.688 273.48)"/>
        </g>
    </g>
</svg>
