<svg xmlns="http://www.w3.org/2000/svg" width="449" height="350" viewBox="0 0 449 350">
    <g fill="none" fill-rule="evenodd" opacity=".5">
        <g>
            <path fill="#FFC7C0" d="M258.408 314.197c-16.01 7.333-36.006 25.724-36.55 25.528l-4.657-2.022-3.655 8.044 10.52 4.146c.408.156.874.14 1.274-.037 25.89-11.523 34.85-23.202 38.62-30.473 1.807-3.481-1.968-6.829-5.552-5.186z" transform="matrix(-1 0 0 1 448.678 0)"/>
            <path fill="#FE5D60" d="M154.984 83.818c-16.77 26.507-51.243 32.986-74.314 10.36-11.014-10.803-17.808-32.42-18.948-47-.38-4.86-.875-9.697-1.75-14.412-.944-5.078-2.33-10.016-4.49-14.693C51.647 9.771 45.84 4.585 39.42 2 30.115-1.751 19.52-.037 11.774 5.563c-3.352 2.425-6.45 5.443-8.12 9.329-9.076 21.11 1.282 31.803 3.976 37.972 3.439 7.874 7.206 15.071 9.266 24.078 2.277 9.954 2.468 22.118-2.176 39.85-3.158 12.057-4.993 23.279-5.626 33.654-.682 11.188.033 21.39 1.994 30.592 3.433 16.105 16.81 34.659 28.92 42.15 46.933 29.029 103.692 15.903 138.15-21.835 6.163-6.75 11.956-14.272 17.287-22.53 7.83-12.121 13.06-23.884 16.142-34.904 2.54-9.086 3.62-17.668 3.49-25.531-.083-5.064-.668-9.83-1.688-14.24-1.703-7.362-4.617-13.732-8.43-18.845-2.648-3.553-5.733-6.498-9.145-8.747-4.494-2.961-9.558-4.713-14.953-5.053-6.547-.412-18.932 1.336-25.877 12.315z" transform="matrix(-1 0 0 1 448.678 0)"/>
            <path fill="#FFC7C0" d="M205.646 157.436s-21.214-10.287-17.626-37.694c.125-.957-.665-1.79-1.63-1.79h-11.884c-1.028 0-1.764.931-1.606 1.949 4.274 27.618-16.396 37.51-16.396 37.51s-12.078 131.105-13.878 154.068c-.053.684.317 1.318.939 1.604 7.56 3.466 21.193 8.47 38.82 8.393 17.132-.075 30.408-4.916 37.924-8.352.66-.3 1.035-1.001.929-1.722-2.915-19.73-15.592-153.966-15.592-153.966z" transform="matrix(-1 0 0 1 448.678 0)"/>
            <path fill="#FFC7C0" d="M200.25 113.376c1.192-1.336 2.823-2.68 4.691-2.925 1.954-.255 3.708 1.24 3.954 3.189.33 2.62-2.448 8.26-10.075 10.62-2.772 8.751-9.236 14.979-16.988 15.267-7.918.295-14.96-5.69-18.298-14.515-7.805-2.324-11.2-8.7-10.869-11.345.244-1.95 1.996-3.446 3.95-3.193 1.963.255 3.665 1.725 4.873 3.125-.02-13.497 8.054-24.546 18.441-24.932 10.697-.398 19.795 10.664 20.321 24.71z" transform="matrix(-1 0 0 1 448.678 0)"/>
            <path fill="#5C7594" d="M220.31 313.821c.66-.304 1.034-1.01.928-1.737-.602-4.112-1.509-12.351-2.592-22.987-27.126 6.757-62.944 2.838-74.253 1.323-.803 9.714-1.43 17.404-1.767 21.741-.054.69.316 1.33.938 1.618 7.561 3.497 21.193 8.545 38.82 8.467 17.132-.075 30.409-4.958 37.925-8.425z" transform="matrix(-1 0 0 1 448.678 0)"/>
            <path fill="#7C99BE" d="M218.168 333.975C165.795 288.51 91.253 256.089 58.485 268.72c-.085.034-.162.069-.241.114-1.29.73-12.494 7.536-2.442 18.367 27.803 29.958 124.662 55.95 155.995 59.702.347.042.681-.027.987-.197 1.208-.67 4.094-3.042 6.114-10.935.177-.691-.192-1.33-.73-1.797z" transform="matrix(-1 0 0 1 448.678 0)"/>
            <path fill="#FFC7C0" d="M164.383 331.58l-22.657 8.176c-.542.195-1.14.097-1.585-.268-3.853-3.154-22.535-18.283-34.724-25.184-3.409-1.93-7.31 1.7-5.516 5.17 3.745 7.25 12.646 18.894 38.364 30.382.399.177.86.192 1.268.037l27.482-10.497c.803-.306 1.228-1.18.973-1.994l-1.493-4.778c-.276-.883-1.238-1.359-2.112-1.043z" transform="matrix(-1 0 0 1 448.678 0)"/>
            <path fill="#FFC7C0" d="M164.383 331.58l-22.657 8.176c-.542.195-1.14.097-1.585-.268-3.853-3.154-22.535-18.283-34.724-25.184-3.409-1.93-7.31 1.7-5.516 5.17 3.745 7.25 12.646 18.894 38.364 30.382.399.177.86.192 1.268.037l27.482-10.497c.803-.306 1.228-1.18.973-1.994l-1.493-4.778c-.276-.883-1.238-1.359-2.112-1.043z" transform="matrix(-1 0 0 1 448.678 0)"/>
            <path fill="#7C99BE" d="M147.255 334.024c11.983-7.407 126.912-77.59 159.679-65.007.085.034.161.069.241.114 1.29.728 12.493 7.508 2.441 18.298-27.801 29.844-124.657 55.737-155.988 59.476-.348.041-.682-.028-.989-.197-1.207-.668-4.093-3.03-6.113-10.894-.177-.689.126-1.417.73-1.79z" transform="matrix(-1 0 0 1 448.678 0)"/>
            <path fill="#F4B9B2" d="M187.335 275.606c0 1.065-1.898 1.927-4.24 1.927-2.343 0-4.24-.862-4.24-1.927s1.897-1.928 4.24-1.928c2.342 0 4.24.863 4.24 1.928z" transform="matrix(-1 0 0 1 448.678 0)"/>
            <path fill="#FFC7C0" d="M206.608 160.352s62.735 96.38 63.379 96.125c7.238-2.868 49.17-19.367 57.277-19.935.143-.011.274-.003.416.023.466.084 1.635.354 3.327 1.15.204.096.422.15.647.154 2.254.049 5.89.547 10.147 2.708 3.808 1.935 7.082 2.766 9.316 3.12 1.695.27 1.883 2.65.246 3.163-.674.212-1.503.376-2.525.464-.829.072-1.695.034-2.568-.083-1.458-.195-2.432 1.426-1.538 2.59.083.107.166.217.248.326.189.248.445.452.737.562 3.701 1.386 7.9 1.445 13.777.198 0 0 2.527 1.176.532 2.703-.505.387-1.091.71-1.74.98.539.422.823 1.03-.163 1.786-.546.416-1.207.764-1.958 1.05-.547.209-1.04.638-1.113 1.22-.039.305-.267.663-.798 1.08-3.778 2.974-12.777 2.71-20.273.153-.286-.099-.533-.27-.727-.503-1.072-1.292-4.95-5.98-8.97-10.92-.514-.63-1.376-.745-2.103-.38l-57.112 28.676c-23.137-21.747-40.122-45.094-57.06-68.454l-1.401-47.956zM156.498 161.123s-64.63 94.094-65.248 93.783c-8.655-4.358-48.005-16.948-56.124-17.518-.144-.011-.275-.002-.417.023-.466.084-1.638.356-3.332 1.154-.205.097-.424.15-.649.155-2.257.048-5.9.55-10.164 2.72-3.813 1.94-7.092 2.774-9.33 3.13-1.698.27-1.887 2.66-.247 3.174.674.213 1.505.378 2.529.466.831.073 1.698.034 2.572-.083 1.461-.195 2.436 1.43 1.54 2.6l-.248.327c-.189.248-.445.453-.738.564-3.707 1.391-7.913 1.45-13.8.199 0 0-2.53 1.18-.533 2.712.506.389 1.094.713 1.743.984-.54.424-.824 1.034.164 1.793.546.418 1.209.767 1.96 1.054.55.21 1.043.64 1.116 1.224.038.306.268.667.799 1.085 3.785 2.985 12.799 2.72 20.306.153.287-.1.534-.27.728-.505 1.074-1.298 4.96-6.002 8.986-10.961.513-.632 1.405-.798 2.107-.382 8.095 4.797 35.817 20.865 52.899 26.308.691.22 1.453.982 2.02.607 22.953-15.22 60.446-63.686 59.646-68.085l1.715-46.68z" transform="matrix(-1 0 0 1 448.678 0)"/>
            <path fill="#DDEBEF" d="M205.732 156.671c-5.13 10.18-14.161 14.587-25.3 14.394-18.897-.327-25.267-14.567-25.267-14.567l-45.694 67.37c1.61 8.711 13.333 17.73 23.955 16.377l8.592-9.745-1.265 20.032c14.677 13.739 65.114 12.736 80.189.901l-2.218-22.532 8.162 11.2c7.735 1.335 20.531-4.763 23.665-15.213 0 0-44.818-68.217-44.82-68.217z" transform="matrix(-1 0 0 1 448.678 0)"/>
        </g>
        <g>
            <path fill="#FFEB8F" d="M86.553 65.97L5.52 65.833c-2.644 4.24-2.058 10.36-.044 14.577h81.078c-1.883-4.784-2.285-9.054 0-14.44z" transform="translate(0 266.74)"/>
            <path fill="#5C7594" d="M4.977 63.327c.052-.004.106-.005.16-.002l.02.002h81.59c.25 0 .49.142.665.395.177.253.275.596.275.954v.167c0 .358-.098.701-.275.954-.176.253-.415.395-.665.395H5.766c-1.014 2.03-1.451 4.367-1.462 6.654 0 0 .009 1.457.218 2.745.248 1.521.702 3.007 1.316 4.424h80.91c.25 0 .488.142.664.395.177.253.275.596.275.954v.167c0 .358-.098.701-.275.954-.176.253-.415.395-.665.395H5.177c-.252.035-.513.004-.748-.105-.392-.182-.62-.556-.83-1.002-1.865-3.965-2.672-8.632-1.531-13.33 0 0 .134-.547.273-1.007.363-1.2.835-2.382 1.485-3.447 0 0 .477-.58 1.11-.658v-.004h.04z" transform="translate(0 266.74)"/>
            <path fill="#FE5D60" d="M15.407 23.002c7.164 3.036 9.885 1.068 14.408-1.988 2.893-1.955 5.9-.564 8.084.76 1.53.926 2.876 2.283 4.18 3.868 1.194 1.459 2.852 4.814 3.291 7.46.418 2.517 1.123 7.755-.62 13.31-6.116 19.488-11.59 18.383-20.94 17.18-8.403 2.308-11.17 0-15.552-4.021C3.71 55.397 1.95 49.905.877 45.278c-2.472-10.651.739-17.174 3.983-20.427 1.286-1.289 2.878-2.313 4.82-2.663 1.65-.297 3.55-.109 5.727.814z" transform="translate(0 266.74)"/>
            <path fill="#7C99BE" d="M31.893 10.438s-2.077.133-3.94 1.265c-2.922 1.774-6.29 5.162-5.747 12.128l1.358-.049c.302-2.763 1.32-5.057 3.196-6.792 1.61-1.488 3.15-2.423 6.114-3.028l-.981-3.524" transform="translate(0 266.74)"/>
            <path fill="#D9F58A" d="M1.542.007S20.959-.995 22.157 21.503c0 0-19.15 1.02-20.615-21.496z" transform="translate(0 266.74)"/>
        </g>
    </g>
</svg>
