<?xml version="1.0" encoding="UTF-8" standalone="no"?>
<svg width="45px" height="45px" viewBox="0 0 45 45" version="1.1" xmlns="http://www.w3.org/2000/svg" xmlns:xlink="http://www.w3.org/1999/xlink">
    <!-- Generator: Sketch 50.2 (55047) - http://www.bohemiancoding.com/sketch -->
    <title>Stroke 5</title>
    <desc>Created with Sketch.</desc>
    <defs></defs>
    <g id="Symbols" stroke="none" stroke-width="1" fill="none" fill-rule="evenodd">
        <g id="Header-Desktop-Menu-Cerrado" transform="translate(-873.000000, -13.000000)" stroke="#FFFFFF" stroke-width="2">
            <g id="Page-1" transform="translate(874.000000, 14.000000)">
                <path d="M0,7.29852304 C0,3.23216211 3.30956667,0 7.37497778,0 L35.5987444,0 C39.6383556,0 43,3.20588437 43,7.29852304 L43,27.3173837 C42.9737222,31.3837446 39.6383556,34.6159067 35.5987444,34.6159067 L20.3796111,34.6159067 L8.46956667,42.6697954 C8.33913333,42.7481508 8.20917778,42.8260285 8.05246667,42.8781062 C7.97411111,42.9043839 7.86995556,42.9301839 7.79207778,42.9564616 C7.71372222,42.9827394 7.66164444,42.9827394 7.60956667,42.9827394 C7.40125556,43.0090171 7.19246667,43.0090171 6.98415556,42.9564616 C6.9058,42.9564616 6.80164444,42.9301839 6.72376667,42.8781062 C6.54125556,42.8260285 6.38502222,42.747673 6.22878889,42.6172399 C6.20251111,42.6172399 6.17671111,42.5909621 6.15043333,42.5651622 C5.9942,42.4610068 5.86376667,42.3042959 5.75961111,42.1480628 C5.65545556,42.0176296 5.60337778,41.8613965 5.5513,41.7051634 C5.52502222,41.6530857 5.49922222,41.5747302 5.49922222,41.4968526 C5.44714444,41.3664194 5.42086667,41.2359863 5.42086667,41.1060309 L5.42086667,41.0276754 L5.42086667,34.3550404 C2.29333333,33.5208416 0,30.6795012 0,27.3173837 L0,7.29852304 Z" id="Stroke-5"></path>
            </g>
        </g>
    </g>
</svg>