<svg xmlns="http://www.w3.org/2000/svg" xmlns:xlink="http://www.w3.org/1999/xlink" viewBox="0 0 30.84 29.88"><defs><style>.a,.b{fill:none;}.a{clip-rule:evenodd;}.c{clip-path:url(#a);}.d{isolation:isolate;}.e{clip-path:url(#b);}.f{clip-path:url(#d);}.g{fill:#9b9b9b;}</style><clipPath id="a" transform="translate(8.42 8.42)"><path class="a" d="M2.91,8.31a3.83,3.83,0,1,1,2.7,1.12A3.83,3.83,0,0,1,2.91,8.31ZM2,1.65a5.36,5.36,0,0,0,6.58,8.43.39.39,0,0,1,.49,0l3.48,3.51a.39.39,0,0,0,.55,0l.54-.54a.39.39,0,0,0,0-.55L10.14,9a.41.41,0,0,1,0-.5A5.36,5.36,0,0,0,2,1.65Z"/></clipPath><clipPath id="b" transform="translate(8.42 8.42)"><rect class="b" x="-3.6" y="-3.6" width="21.2" height="20.24"/></clipPath><clipPath id="d" transform="translate(8.42 8.42)"><rect class="b" x="0.25" y="0.25" width="13.49" height="13.49"/></clipPath></defs><title>search</title><g class="c"><g class="d"><g class="e"><g class="e"><g class="f"><rect class="g" width="30.84" height="29.88"/></g></g></g></g></g></svg>