<?xml version="1.0" encoding="UTF-8" standalone="no"?>
<svg width="87px" height="11px" viewBox="0 0 87 11" version="1.1" xmlns="http://www.w3.org/2000/svg" xmlns:xlink="http://www.w3.org/1999/xlink">
    <!-- Generator: Sketch 48.2 (47327) - http://www.bohemiancoding.com/sketch -->
    <title>separadr</title>
    <desc>Created with Sketch.</desc>
    <defs></defs>
    <g id="HOME-DESKTOP" stroke="none" stroke-width="1" fill="none" fill-rule="evenodd" transform="translate(-703.000000, -839.000000)">
        <g id="separadr" transform="translate(704.000000, 840.000000)" stroke="#555464">
            <path d="M9,4 L80,4" id="Stroke-26" stroke-linecap="round" stroke-linejoin="round" stroke-dasharray="4,5"></path>
            <path d="M85,4.50052823 C85,6.98532692 82.9855634,9 80.5,9 C78.015493,9 76,6.98532692 76,4.50052823 C76,2.01467308 78.015493,0 80.5,0 C82.9855634,0 85,2.01467308 85,4.50052823 Z" id="Stroke-28"></path>
            <path d="M9,4.50052823 C9,6.98532692 6.98556338,9 4.5,9 C2.01549296,9 0,6.98532692 0,4.50052823 C0,2.01467308 2.01549296,0 4.5,0 C6.98556338,0 9,2.01467308 9,4.50052823 Z" id="Stroke-30"></path>
        </g>
    </g>
</svg>