<svg xmlns="http://www.w3.org/2000/svg" width="52" height="52" viewBox="0 0 52 52">
    <path fill="#FE5D60" d="M48.25 0H3.75C1.68 0 0 1.679 0 3.75v44.5C0 50.32 1.679 52 3.75 52h44.5C50.32 52 52 50.321 52 48.25V3.75C52 1.68 50.321 0 48.25 0zM37.87 20.272c.012.256.017.513.017.771 0 7.886-6.002 16.98-16.98 16.98h.001c-3.37 0-6.507-.988-9.148-2.68.467.054.943.082 1.424.082 2.796 0 5.37-.954 7.412-2.555-2.613-.048-4.815-1.774-5.575-4.145.364.07.738.108 1.121.108.545 0 1.073-.073 1.574-.21-2.73-.547-4.788-2.96-4.788-5.85l.001-.076c.804.447 1.724.716 2.703.746-1.602-1.07-2.656-2.897-2.656-4.967 0-1.094.296-2.118.809-3 2.942 3.611 7.34 5.986 12.3 6.235-.102-.437-.155-.892-.155-1.36 0-3.295 2.673-5.968 5.969-5.968 1.716 0 3.267.726 4.356 1.886 1.36-.268 2.636-.765 3.79-1.448-.447 1.393-1.393 2.561-2.625 3.3 1.207-.144 2.358-.464 3.427-.94-.799 1.197-1.812 2.249-2.977 3.091z"/>
</svg>
