<svg id="flag-icon-css-us" xmlns="http://www.w3.org/2000/svg" viewBox="0 0 477.79 479.01"><defs><style>.cls-1{fill:#bd3d44;}.cls-2{fill:#fff;}.cls-3{fill:#192f5d;}</style></defs><title>us-1</title><path class="cls-1" d="M.46.52H478.25V37.38H.46Zm0,73.72H478.25V111.1H.46Zm0,73.63H478.25v37H.46Zm0,73.72H478.25v36.86H.46Zm0,73.72H478.25v36.86H.46Zm0,73.63H478.25V405.8H.46Zm0,73.72H478.25v36.86H.46Z" transform="translate(-0.46 -0.52)"/><path class="cls-2" d="M.46,37.38H478.25V74.24H.46Zm0,73.72H478.25v36.77H.46Zm0,73.63H478.25v36.86H.46Zm0,73.72H478.25v36.86H.46Zm0,73.72H478.25V369H.46Zm0,73.63H478.25v36.86H.46Z" transform="translate(-0.46 -0.52)"/><path class="cls-3" d="M.46.52H272.79V258.45H.46Z" transform="translate(-0.46 -0.52)"/><path class="cls-2" d="M23.14,11.56l2.52,10.2h8L27.2,28l2.45,10.29L23.14,32,16.7,38.22,19.15,28l-6.51-6.27h8.12Zm45.42,0L71,21.75h8L72.55,28,75,38.31,68.56,32l-6.51,6.27L64.5,28l-6.44-6.27h8Zm45.35,0,2.52,10.2h7.91L117.9,28l2.45,10.29L113.84,32l-6.44,6.27L109.85,28l-6.51-6.27h8Zm45.42,0,2.45,10.2h8L163.33,28l2.52,10.29L159.34,32l-6.51,6.27L155.35,28l-6.51-6.27h8Zm45.35,0,2.52,10.2h8L208.75,28l2.45,10.29L204.69,32l-6.44,6.27L200.7,28l-6.44-6.27h8Zm45.42,0,2.45,10.2h8L254.1,28l2.52,10.29L250.11,32l-6.51,6.27L246.12,28l-6.51-6.27h8ZM45.88,37.38l2.45,10.2h8l-6.51,6.27L52.25,64,46,57.77,39.44,64l2.31-10.2-6.3-6.27h8Zm45.35,0,2.52,10.2h8l-6.51,6.27L97.75,64l-6.51-6.27L84.73,64l2.52-10.2-6.51-6.27h8Zm45.42,0,2.45,10.2h8l-6.51,6.27L143.1,64l-6.44-6.27L130.15,64l2.45-10.2-6.44-6.27h8Zm45.35,0,2.52,10.2h8L186,53.84,188.52,64,182,57.77,175.57,64,178,53.84l-6.51-6.27h8.12Zm45.42,0,2.45,10.2h8l-6.51,6.27L233.87,64l-6.44-6.27L220.93,64l2.45-10.2-6.44-6.27h8ZM23.14,63.11l2.52,10.38h8L27.2,79.76,29.65,90,23.14,83.6,16.7,90l2.45-10.29L12.64,73.4h8.12Zm45.42,0L71,73.4h8l-6.51,6.27L75,89.86,68.56,83.5l-6.51,6.36L64.5,79.57,58.06,73.3h8Zm45.35,0,2.52,10.29h7.91l-6.44,6.27,2.45,10.2-6.51-6.36-6.44,6.36,2.45-10.29-6.51-6.27h8Zm45.42,0,2.45,10.29h8l-6.51,6.27,2.52,10.2-6.51-6.36-6.51,6.36,2.52-10.29-6.51-6.27h8Zm45.35,0,2.52,10.29h8l-6.44,6.27,2.45,10.2-6.51-6.36-6.44,6.36,2.45-10.29-6.44-6.27h8Zm45.42,0,2.45,10.29h8l-6.51,6.27,2.52,10.2-6.51-6.36-6.51,6.36,2.52-10.29-6.51-6.27h8ZM45.88,88.93l2.45,10.2h8l-6.51,6.27,2.45,10.29-6.44-6.36-6.51,6.27,2.45-10.2-6.44-6.27h8Zm45.35,0,2.52,10.2h8l-6.51,6.27,2.52,10.29-6.51-6.36-6.51,6.27,2.52-10.2-6.51-6.27h8Zm45.42,0,2.45,10.2h8l-6.51,6.27,2.45,10.29-6.44-6.36-6.51,6.27,2.45-10.2-6.44-6.27h8Zm45.35,0,2.52,10.2h8l-6.44,6.27,2.45,10.29L182,109.32l-6.44,6.27,2.45-10.2-6.51-6.27h8.12Zm45.42,0,2.45,10.2h8l-6.51,6.27,2.45,10.29-6.44-6.36-6.51,6.27,2.45-10.2-6.44-6.27h8ZM23.14,114.75l2.52,10.2h8l-6.44,6.27,2.45,10.29-6.51-6.36-6.44,6.27,2.45-10.2-6.51-6.27h8.12Zm45.42,0L71,124.95h8l-6.51,6.27L75,141.41l-6.44-6.27-6.51,6.27,2.45-10.2-6.44-6.27h8Zm45.35,0,2.52,10.2h7.91l-6.44,6.27,2.45,10.29-6.51-6.36-6.44,6.27,2.45-10.2-6.51-6.27h8Zm45.42,0,2.45,10.2h8l-6.51,6.27,2.52,10.29-6.51-6.36-6.51,6.27,2.52-10.2-6.51-6.27h8Zm45.35,0,2.52,10.2h8l-6.44,6.27,2.45,10.29-6.51-6.36-6.44,6.27,2.45-10.2-6.44-6.27h8Zm45.42,0,2.45,10.2h8l-6.51,6.27,2.52,10.29-6.51-6.36-6.51,6.27,2.52-10.2-6.51-6.27h8ZM45.88,140.57l2.45,10.2h8L49.87,157l2.45,10.2-6.44-6.36-6.51,6.36,2.45-10.29-6.44-6.27h8Zm45.35,0,2.52,10.2h8L95.23,157l2.52,10.2-6.51-6.36-6.51,6.36,2.52-10.29-6.51-6.27h8Zm45.42,0,2.45,10.2h8L140.65,157l2.45,10.2-6.44-6.36-6.51,6.36,2.45-10.29-6.44-6.27h8Zm45.35,0,2.52,10.2h8L186.07,157l2.45,10.2L182,160.87l-6.44,6.36L178,156.94l-6.51-6.27h8.12Zm45.42,0,2.45,10.2h8L231.43,157l2.45,10.2-6.44-6.36-6.51,6.36,2.45-10.29-6.44-6.27h8ZM23.14,166.3l2.52,10.29h8l-6.44,6.27L29.65,193l-6.51-6.27L16.7,193l2.45-10.2-6.51-6.27h8.12Zm45.42,0L71,176.59h8l-6.51,6.27L75.07,193l-6.51-6.27L62.05,193l2.52-10.2-6.51-6.27h8Zm45.35,0,2.52,10.29h7.91l-6.44,6.27,2.45,10.1-6.51-6.27L107.4,193l2.45-10.2-6.51-6.27h8Zm45.42,0,2.45,10.29h8l-6.51,6.27,2.52,10.1-6.51-6.27L152.83,193l2.52-10.2-6.51-6.27h8Zm45.35,0,2.52,10.29h8l-6.44,6.27L211.2,193l-6.51-6.27L198.25,193l2.45-10.2-6.44-6.27h8Zm45.42,0,2.45,10.29h8l-6.51,6.27,2.52,10.1-6.51-6.27L243.6,193l2.52-10.2-6.51-6.27h8ZM45.88,192.12l2.45,10.2h8l-6.51,6.27,2.45,10.29-6.44-6.36-6.51,6.27,2.45-10.2-6.44-6.27h8Zm45.35,0,2.52,10.2h8l-6.51,6.27,2.52,10.29-6.51-6.36-6.51,6.27,2.52-10.2-6.51-6.27h8Zm45.42,0,2.45,10.2h8l-6.51,6.27,2.45,10.29-6.44-6.36-6.51,6.27,2.45-10.2-6.44-6.27h8Zm45.35,0,2.52,10.2h8l-6.44,6.27,2.45,10.29L182,212.52l-6.44,6.27,2.45-10.2-6.51-6.27h8.12Zm45.42,0,2.45,10.2h8l-6.51,6.27,2.45,10.29-6.44-6.36-6.51,6.27,2.45-10.2-6.44-6.27h8ZM23.14,217.94l2.52,10.2h8l-6.44,6.27,2.45,10.2-6.51-6.27-6.44,6.27,2.45-10.29L12.64,228h8.12Zm45.42,0L71,228.14h8l-6.51,6.27,2.52,10.2-6.51-6.27-6.51,6.27,2.52-10.29L58.06,228h8Zm45.35,0,2.52,10.2h7.91l-6.3,6.27,2.45,10.2L114,238.34l-6.44,6.27L110,234.32,103.48,228h8Zm45.42,0,2.45,10.2h8l-6.51,6.27,2.52,10.2-6.51-6.27-6.51,6.27,2.52-10.29L148.84,228h8Zm45.35,0,2.52,10.2h8l-6.44,6.27,2.45,10.2-6.51-6.27-6.44,6.27,2.45-10.29L194.26,228h8Zm45.42,0,2.45,10.2h8l-6.51,6.27,2.52,10.2-6.51-6.27-6.51,6.27,2.52-10.29L239.61,228h8Z" transform="translate(-0.46 -0.52)"/></svg>