<svg xmlns="http://www.w3.org/2000/svg" width="20" height="20" viewBox="0 0 20 20">
    <g fill="#FAFAFA">
        <path d="M19.936 8.42l-3.203-4.883c-.072-.11-.195-.176-.326-.176H3.609c-.132 0-.254.066-.327.175L.074 8.406c-.015.02-.028.043-.04.068-.062.14-.038.303.063.418l1.626 1.857c.142.162.389.178.55.036.163-.142.18-.389.037-.55l-1.058-1.21h5.254l2.64 9.014-2.983-3.406c-.143-.163-.39-.179-.552-.037-.162.142-.178.389-.036.551l4.132 4.719c.075.084.182.133.294.133.113 0 .22-.049.294-.133l4.4-5.025c.142-.162.125-.41-.037-.551-.162-.142-.41-.126-.551.036l-3.25 3.713 2.64-9.014h5.251L16.32 11.8c-.142.162-.126.409.037.55.074.066.166.098.257.098.109 0 .217-.046.294-.134l2.996-3.422c.116-.132.13-.325.033-.471zm-18.82-.176l2.492-3.782 2.48 3.782H1.116zm3.216-4.102h4.946l-2.473 3.77-2.473-3.77zm5.67.321l2.479 3.781H7.52l2.48-3.78zm0 13.717L7.32 9.026h5.362l-2.68 9.154zm3.202-10.257l-2.48-3.781h4.96l-2.48 3.78zm.723.321l2.48-3.78 2.48 3.78h-4.96z"/>
        <path d="M6.14 12.774c-1.007 0-1.827-.82-1.827-1.827 0-.216-.175-.39-.39-.39-.216 0-.391.174-.391.39 0 1.007-.82 1.827-1.828 1.827-.215 0-.39.175-.39.39 0 .216.175.391.39.391 1.008 0 1.828.82 1.828 1.828 0 .215.175.39.39.39.216 0 .39-.175.39-.39 0-1.008.82-1.828 1.828-1.828.216 0 .39-.175.39-.39 0-.216-.174-.39-.39-.39zm-2.218 1.237c-.213-.343-.503-.633-.846-.846.343-.213.633-.503.846-.846.213.343.503.633.846.846-.343.213-.633.503-.846.846zM19.61 1.563c-.647 0-1.172-.525-1.172-1.171 0-.216-.175-.39-.39-.39-.217 0-.392.174-.392.39 0 .646-.525 1.171-1.171 1.171-.216 0-.39.175-.39.391 0 .216.174.39.39.39.646 0 1.171.526 1.171 1.172 0 .216.175.39.391.39.216 0 .39-.174.39-.39 0-.646.526-1.171 1.172-1.171.216 0 .391-.175.391-.391 0-.216-.175-.39-.39-.39zm-1.563.783c-.111-.149-.243-.28-.392-.392.149-.111.28-.243.392-.392.112.149.244.28.392.392-.148.111-.28.243-.392.392zM15.734 13.1c-.073-.073-.174-.114-.276-.114-.103 0-.203.041-.277.114-.072.073-.114.174-.114.277 0 .102.042.203.114.276.073.072.174.114.277.114.102 0 .203-.042.276-.114.072-.073.114-.174.114-.276 0-.103-.042-.204-.114-.277z"/>
    </g>
</svg>
