<svg xmlns="http://www.w3.org/2000/svg" width="150" height="145" viewBox="0 0 150 145">
    <g fill="none" fill-rule="evenodd">
        <path fill="#FFC7C0" d="M107.018 130.085c-6.63 3.037-14.911 10.651-15.137 10.57l-1.929-.837-1.513 3.33 4.356 1.717c.17.064.362.058.528-.016 10.722-4.77 14.433-9.606 15.995-12.616.748-1.442-.816-2.828-2.3-2.148z" transform="matrix(-1 0 0 1 149.867 0)"/>
        <path fill="#FE5D60" d="M64.185 34.703C57.241 45.678 42.964 48.36 33.41 38.992c-4.561-4.473-7.375-13.422-7.847-19.46-.158-2.012-.363-4.014-.725-5.966-.391-2.102-.965-4.147-1.86-6.083-1.588-3.437-3.993-5.585-6.651-6.655-3.854-1.553-8.242-.843-11.45 1.475-1.388 1.004-2.67 2.254-3.363 3.863-3.758 8.74.531 13.167 1.647 15.72 1.424 3.261 2.984 6.241 3.837 9.97.943 4.121 1.022 9.157-.9 16.499-1.309 4.992-2.068 9.638-2.33 13.934-.283 4.632.013 8.856.825 12.665 1.422 6.668 6.962 14.35 11.977 17.451 19.437 12.02 42.944 6.585 57.214-9.04 2.552-2.795 4.951-5.909 7.16-9.327 3.242-5.02 5.408-9.89 6.684-14.452 1.053-3.762 1.5-7.315 1.446-10.57-.034-2.097-.277-4.07-.7-5.896-.704-3.048-1.911-5.686-3.49-7.802-1.097-1.471-2.375-2.69-3.788-3.622-1.86-1.226-3.958-1.951-6.193-2.092-2.71-.17-7.84.553-10.717 5.099z" transform="matrix(-1 0 0 1 149.867 0)"/>
        <path fill="#FFC7C0" d="M85.167 65.183s-8.786-4.26-7.3-15.607c.052-.396-.275-.741-.674-.741H72.27c-.426 0-.73.386-.666.807 1.77 11.435-6.79 15.53-6.79 15.53s-5.002 54.28-5.747 63.788c-.022.283.13.546.388.664 3.132 1.435 8.777 3.507 16.078 3.475 7.094-.031 12.593-2.035 15.705-3.458.274-.124.429-.414.385-.712-1.207-8.17-6.457-63.746-6.457-63.746z" transform="matrix(-1 0 0 1 149.867 0)"/>
        <path fill="#FFC7C0" d="M82.932 46.94l.051-.056c.49-.534 1.145-1.057 1.892-1.154.81-.106 1.536.513 1.637 1.32.137 1.085-1.013 3.42-4.171 4.396-1.149 3.624-3.826 6.202-7.037 6.322-3.279.122-6.195-2.356-7.577-6.01-3.233-.962-4.639-3.602-4.502-4.697.101-.807.827-1.427 1.636-1.322.814.106 1.519.714 2.019 1.294-.01-5.588 3.335-10.163 7.637-10.323 4.43-.164 8.197 4.416 8.415 10.23z" transform="matrix(-1 0 0 1 149.867 0)"/>
        <path fill="#5C7594" d="M91.24 129.93c.273-.126.428-.419.384-.72-.25-1.702-.625-5.113-1.073-9.517-11.234 2.798-26.068 1.175-30.752.548-.332 4.022-.592 7.206-.731 9.002-.023.285.13.55.388.67 3.131 1.447 8.777 3.537 16.077 3.505 7.095-.031 12.594-2.053 15.707-3.488z" transform="matrix(-1 0 0 1 149.867 0)"/>
        <path fill="#7C99BE" d="M90.353 138.274c-21.69-18.823-52.561-32.247-66.132-27.017-.035.014-.067.029-.1.047-.534.303-5.174 3.12-1.01 7.605 11.514 12.403 51.627 23.165 64.603 24.718.144.018.282-.011.41-.081.5-.278 1.695-1.26 2.531-4.528.073-.286-.08-.55-.302-.744z" transform="matrix(-1 0 0 1 149.867 0)"/>
        <path fill="#FFC7C0" d="M68.078 137.283l-9.383 3.385c-.224.08-.472.04-.657-.111-1.595-1.306-9.332-7.57-14.38-10.427-1.412-.8-3.028.704-2.285 2.14 1.551 3.002 5.238 7.823 15.888 12.58.166.073.357.079.526.015l11.381-4.347c.333-.126.509-.488.403-.825l-.618-1.978c-.114-.366-.513-.563-.875-.432z" transform="matrix(-1 0 0 1 149.867 0)"/>
        <path fill="#FFC7C0" d="M68.078 137.283l-9.383 3.385c-.224.08-.472.04-.657-.111-1.595-1.306-9.332-7.57-14.38-10.427-1.412-.8-3.028.704-2.285 2.14 1.551 3.002 5.238 7.823 15.888 12.58.166.073.357.079.526.015l11.381-4.347c.333-.126.509-.488.403-.825l-.618-1.978c-.114-.366-.513-.563-.875-.432z" transform="matrix(-1 0 0 1 149.867 0)"/>
        <path fill="#7C99BE" d="M60.985 138.294c4.962-3.066 52.56-32.124 66.13-26.914.035.014.066.028.1.047.534.301 5.174 3.109 1.01 7.576-11.513 12.356-51.625 23.076-64.601 24.624-.144.018-.282-.011-.41-.081-.5-.277-1.695-1.255-2.531-4.51-.074-.286.052-.587.302-.742z" transform="matrix(-1 0 0 1 149.867 0)"/>
        <path fill="#F4B9B2" d="M77.583 114.108c0 .44-.785.798-1.756.798-.97 0-1.756-.357-1.756-.798 0-.441.786-.798 1.756-.798s1.756.357 1.756.798z" transform="matrix(-1 0 0 1 149.867 0)"/>
        <path fill="#FFC7C0" d="M85.565 66.39s25.982 39.904 26.248 39.798c2.998-1.187 20.364-8.018 23.721-8.254.06-.004.114 0 .173.01.193.035.677.147 1.377.476.085.04.175.062.269.064.933.02 2.439.226 4.202 1.121 1.577.801 2.933 1.145 3.858 1.292.702.111.78 1.097.102 1.31-.28.087-.623.155-1.046.191-.343.03-.702.014-1.063-.034-.604-.08-1.008.59-.638 1.072.035.045.07.09.103.135.078.103.185.188.306.233 1.532.574 3.271.598 5.705.082 0 0 1.046.487.22 1.119-.209.16-.451.294-.72.406.223.175.34.426-.068.74-.226.172-.5.316-.81.434-.227.086-.431.264-.462.505-.016.127-.11.275-.33.448-1.565 1.23-5.292 1.122-8.396.063-.119-.041-.22-.112-.3-.209-.445-.535-2.051-2.476-3.716-4.52-.213-.262-.57-.31-.87-.158l-23.653 11.873c-9.583-9.004-16.617-18.67-23.631-28.342l-.58-19.855zM64.813 66.71s-26.766 38.956-27.023 38.827c-3.584-1.804-19.88-7.016-23.243-7.252-.06-.005-.114-.001-.173.01-.193.034-.678.147-1.38.477-.084.04-.175.062-.268.064-.935.02-2.443.228-4.21 1.126-1.579.804-2.937 1.149-3.864 1.296-.703.112-.78 1.101-.102 1.314.28.089.624.157 1.047.193.345.03.704.014 1.066-.034.605-.081 1.008.592.638 1.076l-.103.136c-.078.103-.184.187-.306.233-1.535.576-3.277.6-5.715.083 0 0-1.047.488-.22 1.123.209.16.452.295.721.407-.223.175-.341.428.068.742.226.173.5.318.812.437.227.086.432.265.462.506.016.127.111.276.33.45 1.569 1.235 5.301 1.126 8.41.063.12-.041.222-.112.302-.209.445-.537 2.054-2.485 3.721-4.538.213-.262.582-.33.873-.158 3.353 1.986 14.833 8.638 21.908 10.892.286.09.601.406.836.251 9.506-6.301 25.034-26.367 24.702-28.189l.71-19.327z" transform="matrix(-1 0 0 1 149.867 0)"/>
        <path fill="#DDEBEF" d="M85.202 64.866c-2.124 4.214-5.864 6.039-10.477 5.96-7.826-.136-10.464-6.032-10.464-6.032L45.337 92.687c.666 3.607 5.521 7.34 9.92 6.78l3.559-4.034-.524 8.294c6.078 5.688 26.967 5.273 33.21.373l-.919-9.33 3.38 4.638c3.204.553 8.503-1.972 9.8-6.299l-18.56-28.243z" transform="matrix(-1 0 0 1 149.867 0)"/>
    </g>
</svg>
