<svg xmlns="http://www.w3.org/2000/svg" width="14" height="18" viewBox="0 0 14 18">
    <path fill="#FAFAFA" d="M13.697 14.325c-.052-.035-.443-.314-.834-1.158-.718-1.55-.869-3.733-.869-5.291v-.02c-.008-2.06-1.218-3.836-2.95-4.632V2.005C9.045.9 8.165 0 7.082 0H6.92C5.836 0 4.955.9 4.955 2.005v1.219c-1.737.799-2.949 2.583-2.949 4.652 0 1.558-.15 3.741-.869 5.291-.391.844-.782 1.123-.834 1.158-.218.103-.326.341-.276.583.051.244.275.412.519.412h3.791C4.358 16.8 5.544 18 7 18c1.456 0 2.642-1.199 2.663-2.68h3.791c.244 0 .468-.168.519-.412.05-.242-.058-.48-.276-.583zM5.99 2.005c0-.523.416-.949.929-.949h.162c.513 0 .93.426.93.95v.875c-.327-.069-.665-.105-1.011-.105-.346 0-.684.036-1.01.105v-.876zM7 16.944c-.885 0-1.607-.725-1.628-1.624h3.256c-.02.899-.743 1.624-1.628 1.624zm2.083-2.68H1.725c.09-.143.18-.304.27-.486.694-1.393 1.045-3.38 1.045-5.902 0-2.23 1.777-4.043 3.96-4.043s3.96 1.813 3.96 4.045v.02c.001 2.512.353 4.49 1.044 5.88.09.182.182.343.271.485H9.083z"/>
</svg>
