<svg xmlns="http://www.w3.org/2000/svg" width="18" height="18" viewBox="0 0 18 18">
    <g fill="#FAFAFA">
        <path d="M9.565 18h-1.13c-.914 0-1.657-.743-1.657-1.657v-.382c-.388-.124-.766-.281-1.128-.469l-.271.271c-.656.657-1.707.638-2.344 0l-.798-.798c-.638-.638-.657-1.688 0-2.344l.27-.27c-.187-.363-.344-.74-.468-1.13h-.382C.743 11.222 0 10.48 0 9.566v-1.13c0-.914.743-1.657 1.657-1.657h.382c.124-.388.281-.766.469-1.128l-.271-.271c-.656-.656-.638-1.706 0-2.344l.798-.798c.639-.64 1.69-.655 2.344 0l.27.27c.363-.187.74-.344 1.13-.468v-.382C6.778.743 7.52 0 8.434 0h1.13c.914 0 1.657.743 1.657 1.657v.382c.388.124.766.281 1.128.469l.271-.271c.656-.657 1.707-.638 2.344 0l.798.798c.638.638.657 1.688 0 2.344l-.27.27c.187.363.344.74.468 1.13h.382c.914 0 1.657.742 1.657 1.656v1.13c0 .914-.743 1.657-1.657 1.657h-.382c-.124.388-.281.766-.469 1.128l.271.271c.656.656.638 1.706 0 2.344l-.798.798c-.639.64-1.69.656-2.344 0l-.27-.27c-.363.187-.74.344-1.13.468v.382c0 .914-.742 1.657-1.656 1.657zm-3.739-3.615c.504.298 1.046.523 1.611.669.233.06.396.27.396.51v.779c0 .332.27.602.602.602h1.13c.332 0 .602-.27.602-.602v-.779c0-.24.163-.45.396-.51.565-.146 1.107-.371 1.611-.67.207-.122.471-.088.641.082l.552.551c.238.239.62.233.852 0l.799-.798c.231-.231.239-.613 0-.852l-.552-.552c-.17-.17-.204-.434-.081-.641.298-.504.523-1.046.669-1.611.06-.233.27-.396.51-.396h.779c.332 0 .602-.27.602-.602v-1.13c0-.332-.27-.602-.602-.602h-.779c-.24 0-.45-.163-.51-.396-.146-.565-.371-1.107-.669-1.61-.123-.208-.09-.472.081-.642l.552-.552c.238-.238.232-.62 0-.851l-.8-.8c-.23-.231-.613-.238-.85 0l-.553.552c-.17.17-.434.204-.64.081-.505-.298-1.047-.523-1.612-.669-.233-.06-.396-.27-.396-.51v-.779c0-.332-.27-.602-.602-.602h-1.13c-.332 0-.602.27-.602.602v.779c0 .24-.163.45-.396.51-.565.146-1.107.371-1.611.67-.207.122-.471.088-.641-.082l-.552-.551c-.238-.239-.62-.233-.851 0l-.8.798c-.23.231-.239.613 0 .852l.552.552c.17.17.204.434.081.641-.298.504-.523 1.046-.669 1.611-.06.233-.27.396-.51.396h-.779c-.332 0-.602.27-.602.602v1.13c0 .332.27.602.602.602h.779c.24 0 .45.163.51.396.146.565.371 1.107.67 1.611.122.207.088.471-.082.641l-.552.552c-.238.238-.232.62 0 .852l.8.798c.23.232.613.24.85 0l.553-.551c.125-.126.386-.232.641-.081z"/>
        <path d="M9 12.916c-2.16 0-3.916-1.756-3.916-3.916S6.84 5.084 9 5.084 12.916 6.84 12.916 9 11.16 12.916 9 12.916zm0-6.778C7.422 6.138 6.138 7.422 6.138 9S7.422 11.862 9 11.862 11.862 10.578 11.862 9 10.578 6.138 9 6.138z"/>
    </g>
</svg>
