<svg xmlns="http://www.w3.org/2000/svg" width="20" height="20" viewBox="0 0 20 20">
    <g fill="#FAFAFA">
        <path d="M9.933 19.967c-.696 0-1.393-.147-2.038-.44l-3.083-1.401c-1.116-.507-2.295-.828-3.506-.955l-1.012-.105c-.167-.018-.294-.164-.294-.34v-3.319c0-.073.023-.145.065-.204.076-.106 1.89-2.583 4.663-1.939 1.56.362 2.815 1.04 3.593 1.545.566.366 1.228.56 1.916.56h3.084c.531 0 .999.293 1.26.734l2.656-3.197c.514-.719 1.357-1.159 2.239-1.159h.198c.11 0 .213.058.273.155.06.096.07.218.026.323l-2.402 5.704c-.526 1.248-1.595 2.19-2.86 2.521l-.423.11-2.458 1.028c-.605.253-1.251.379-1.897.379zM.652 16.418l.719.076c1.278.133 2.523.472 3.701 1.007l3.083 1.401c1.085.493 2.335.512 3.433.053l2.478-1.036.042-.014.444-.116c1.072-.28 1.977-1.078 2.422-2.134l2.19-5.203c-.56.086-1.076.402-1.42.881l-2.942 3.543v.04c0 .854-.664 1.548-1.48 1.548H9.018c-.56 0-1.112.094-1.643.278l-.12-.317-.1-.324.016-.006c.595-.207 1.217-.312 1.847-.312h4.302c.457 0 .83-.39.83-.867 0-.478-.373-.867-.83-.867h-3.083c-.81 0-1.592-.229-2.26-.662-.735-.477-1.921-1.116-3.39-1.458-2.1-.487-3.611 1.197-3.936 1.599v2.89zM12.836 9.67c-.502 0-1.064-.161-1.682-.485-.075-.04-.133-.107-.161-.19-.026-.074-.608-1.824.317-3.119.673-.94 1.938-1.365 3.762-1.258.166.01.299.148.307.323.006.135.14 3.327-1.417 4.39-.331.226-.707.34-1.126.34zM11.569 8.64c.856.42 1.54.46 2.037.122.924-.63 1.123-2.502 1.128-3.476-1.429-.036-2.402.3-2.901.999-.595.832-.364 1.976-.264 2.355zM7.851 5.208c-.578 0-1.244-.13-1.826-.575-.987-.756-1.44-2.194-1.348-4.276.007-.174.14-.314.306-.324.141-.009 3.478-.195 4.6 1.567.524.82.48 1.893-.126 3.192-.037.079-.102.14-.18.17-.044.017-.656.246-1.426.246zM5.318.703c-.028 1.667.339 2.804 1.092 3.38.902.691 2.133.398 2.52.28.443-1.005.48-1.807.112-2.386C8.355.901 6.342.69 5.318.703z"/>
        <path d="M10.397 13.93c-.01 0-.02 0-.031-.002-.174-.017-.304-.174-.295-.356.02-.4.052-.78.097-1.14.135-2.411.065-8.024-3.33-9.577-.166-.075-.24-.276-.169-.448.072-.172.265-.25.43-.176 2 .915 3.26 3.193 3.64 6.588.034.304.06.604.078.896.895-2.362 2.263-3.196 2.344-3.244.157-.092.356-.034.444.13.088.164.033.37-.123.463-.035.021-2.133 1.337-2.66 5.395-.04.694-.097 1.136-.103 1.177-.022.17-.161.294-.322.294z"/>
    </g>
</svg>
