<svg version="1" xmlns="http://www.w3.org/2000/svg" width="400" height="400" viewBox="0 0 300.000000 300.000000"><path d="M99 114c-2.6 2.6-2.5 6.4.2 8.9 3.9 3.7 9.8.6 9.8-5 0-4.9-6.4-7.5-10-3.9zM123.6 113.6c-1.9 1.9-1.7-1.6-1.8 31 0 29.2-.3 31.1-5.1 32.8-2.2.8-3.2.6-5.5-1.1l-2.7-2-.1-19.4c-.1-10.7-.4-20.2-.8-21.1-1.1-2.5-3.6-3-6.2-1.3-2.4 1.5-2.4 1.6-2.4 22.8 0 24 .6 26.4 7.4 30.3 6.1 3.4 15.9 2.1 20.2-2.7 4-4.7 4.3-6.7 4.4-37.7l.1-30-2.3-1.6c-2.8-2-3.3-2-5.2 0zM145 113.3c-3.3 1.7-3.9 6.8-1.1 9.6 3.6 3.6 10.1.8 10.1-4.4 0-4.6-4.7-7.3-9-5.2zM219.5 113.3c-1.7 1.3-1.8 3.3-1.7 28.9 0 28-.3 30.9-3.9 33.1-2.3 1.4-6.6.1-8.1-2.6-.8-1.3-1.5-7.6-1.8-16.3-.5-12.9-.7-14.4-3-17.7-8.6-12.5-30.6-9.9-34.9 4.2-.6 2.1-1.1 9.4-1.1 16.3 0 11.1-.2 12.7-2 14.6-2.6 2.7-6 2.8-9.1.3-2.4-1.9-2.4-2.2-2.4-20.9-.1-20.3-.5-22.2-5-22.2-1.2 0-2.8.6-3.4 1.4-1.4 1.7-1.6 39.2-.2 42.7 3 7.9 14.4 12.6 21.6 9.1 8.5-4.1 9.8-7.4 10.1-25.1.2-14.4.2-14.5 2.8-16.8 5.6-4.8 16.5-1.6 16.7 4.9 0 1.3.2 7.2.3 13.3.3 12.2 1 14.6 5.6 19.8 3.7 4.2 7 5.5 13 5 8.5-.7 13-6 13.8-16.2.5-7.6.1-7.1 6.3-7.5 1-.1 3.7 2.6 6.2 6 7.7 10.5 20.6 17.1 35 17.8 11 .6 20.5-3.6 22.9-10.2.7-1.7 1.5-3.2 1.9-3.2 1.2 0 .4-6.2-1.3-10.2-2.1-4.7-7.9-8.5-16.6-10.9-8-2.2-11-5-8.8-8.3 1.9-2.9 7.2-2.9 11.8.2 3.6 2.3 3.9 2.4 6.3.8 3-2 3.2-4.5.5-7.4-5.3-5.7-13.8-7.3-20.8-4-7.8 3.7-10.5 12.3-6.1 19.5 2.4 3.8 6.7 6.3 15.1 8.8 6.8 1.9 10.9 4.9 10.2 7.3-2.6 7.9-8.6 10.1-21.2 7.5-10-2-15.4-5.5-21-13.2l-3.2-4.3 2.5-1.9c3.4-2.7 7.3-11.4 8-18.1.6-4.9.5-5.7-1.1-6.6-3.5-1.8-6.1.2-7.4 6-2.5 10.8-6.1 14.6-14.7 15.5l-4.2.5v-15.9c.1-21.6.1-22-1.7-23.7-1.9-2-3.5-2-5.9-.3zM23.3 132.2c-5.5.9-10.1 3.4-13.6 7.2-3.2 3.5-7.7 12.2-7.7 14.8 0 1-.4 1.8-.8 1.8-.9 0-.8 9.2.2 13.4 1.7 7.3 7.4 14.4 13.5 16.8 4.2 1.6 12.3 1.3 15.9-.6 1.8-.9 4.6-3.1 6.2-4.8l3-3.1 3.6 2.8c6.2 4.7 12.9 6.8 22.4 6.9 13.4.1 19.9-3.2 23.5-11.8 4.1-9.8-1.6-18.6-14.8-22.5-4-1.2-8.3-2.8-9.5-3.7-3.7-2.6-2.4-6.9 2.3-7.4 3.8-.4 5.4 0 8.2 2.4 3.1 2.5 6.1 2.6 7.9.1 3.6-5-5.1-12.5-14.4-12.5-9.4 0-15.5 5.5-15.5 14 0 8.3 4 12.1 16.6 16 8.6 2.7 10.9 4.5 10.5 8.2-.5 5.4-4.5 7.3-14.6 7.3-7-.1-9.5-.5-12.7-2.3-9.1-4.9-9.5-5.9-9.5-22.6 0-12.8-.1-13.6-2.5-16.4-1.9-2.3-3.7-3.1-8.2-3.8-3.2-.5-7.7-.6-10-.2zm10.5 10.3c1.6.6 1.6 18.8 0 24.9-1.4 5.4-6.7 10.6-10.8 10.6-6.8 0-11.4-5.1-12.6-14.2-1.9-14.1 11.1-25.9 23.4-21.3z"/></svg>